<?xml version="1.0" standalone="no"?>
<!DOCTYPE svg PUBLIC "-//W3C//DTD SVG 1.1//EN" "http://www.w3.org/Graphics/SVG/1.1/DTD/svg11.dtd" >
<svg>
<metadata>
Created by FontForge 20090622 at Tue Jun 26 05:28:10 2018
 By ffonts
Font data copyright Google 2014, Design modifications and new weights 2015, Cannot Into Space Fonts
</metadata>
<defs>
<font id="AsimovDist" horiz-adv-x="863" >
  <font-face 
    font-family="Asimov"
    font-weight="500"
    font-stretch="normal"
    units-per-em="1000"
    panose-1="0 0 0 0 0 0 0 0 0 0"
    ascent="750"
    descent="-250"
    x-height="528"
    cap-height="711"
    bbox="-632 -271 1602 1056"
    underline-thickness="48"
    underline-position="-145"
    stemh="114"
    stemv="141"
    unicode-range="U+0002-U+FFFD"
  />
<missing-glyph horiz-adv-x="440" 
 />
    <glyph glyph-name=".notdef" horiz-adv-x="440" 
 />
    <glyph glyph-name="uni0009" horiz-adv-x="191" 
 />
    <glyph glyph-name="uni0009" horiz-adv-x="191" 
 />
    <glyph glyph-name="uni0002" horiz-adv-x="191" 
 />
    <glyph glyph-name="CR" unicode="&#xd;" horiz-adv-x="440" 
 />
    <glyph glyph-name="space" unicode=" " horiz-adv-x="440" 
 />
    <glyph glyph-name="exclam" unicode="!" horiz-adv-x="462" 
d="M294 218h-117l-17 493h150zM235 -8c-47 0 -78 28 -78 74c0 47 30 75 78 75c47 0 79 -28 79 -75s-32 -74 -79 -74z" />
    <glyph glyph-name="quotedbl" unicode="&#x22;" horiz-adv-x="552" 
d="M426 750l-38 -268l-61 69v199h99zM267 750l-38 -268l-61 69v199h99z" />
    <glyph glyph-name="numbersign" unicode="#" horiz-adv-x="786" 
d="M414 200h-94l-35 -200h-89l35 200h-111v84h125l25 139h-113v85h128l36 203h88l-35 -203h95l35 203h90l-36 -203h107v-85h-122l-25 -139h110v-84h-124l-35 -200h-90zM335 284h94l24 139h-94z" />
    <glyph glyph-name="dollar" unicode="$" horiz-adv-x="764" 
d="M389 103c55 0 93 29 93 84c0 69 -50 90 -102 109c-84 31 -163 66 -197 144c-10 23 -15 51 -15 82c0 92 48 148 113 177c24 11 50 17 80 20v105l78 -46v-60c114 -16 184 -97 184 -227h-141c0 68 -28 116 -89 116c-55 0 -84 -31 -84 -85c0 -45 23 -66 53 -83
c38 -21 96 -42 135 -62c69 -35 126 -87 126 -189c0 -123 -84 -183 -194 -196v-97l-78 46v51c-96 9 -161 55 -193 131c-12 28 -17 61 -17 100h141c0 -75 34 -120 107 -120z" />
    <glyph glyph-name="percent" unicode="%" horiz-adv-x="929" 
d="M142 574c0 70 36 115 87 136c20 7 42 11 66 11c76 0 125 -35 146 -90c6 -18 10 -37 10 -57v-37c0 -69 -37 -114 -88 -134c-19 -8 -41 -12 -66 -12c-76 0 -125 35 -145 90c-7 17 -10 36 -10 56v37zM295 640c-38 0 -60 -28 -60 -66v-37c0 -39 22 -65 61 -65s60 27 60 65v37
c0 39 -21 66 -61 66zM481 174c0 71 38 114 89 135c19 8 41 12 66 12c94 0 154 -55 154 -147v-38c0 -70 -35 -114 -86 -135c-19 -7 -41 -11 -67 -11c-74 0 -125 35 -146 89c-6 18 -10 37 -10 57v38zM636 239c-39 0 -61 -26 -61 -65v-38c0 -37 26 -65 62 -65c42 0 59 24 59 65
v38c0 39 -20 65 -60 65zM324 53l-69 37l347 556l69 -37z" />
    <glyph glyph-name="ampersand" unicode="&#x26;" horiz-adv-x="847" 
d="M544 42c-49 -32 -105 -52 -181 -52c-108 0 -184 45 -216 120c-11 25 -16 52 -16 81c0 70 36 112 76 145c16 13 33 27 53 40c-22 28 -38 55 -50 80s-18 51 -18 78c0 90 47 148 114 174c24 9 50 13 80 13c84 0 143 -43 168 -102c8 -20 13 -41 13 -64
c0 -78 -49 -124 -95 -157l-45 -32l122 -143c28 31 46 59 57 92l114 -4c-9 -77 -44 -131 -86 -187l107 -124h-161zM370 104c34 0 66 9 96 28l-140 162l-10 -7c-25 -21 -44 -46 -44 -88c0 -58 39 -95 98 -95zM385 607c-43 0 -67 -29 -67 -71c0 -15 4 -29 12 -44s18 -32 31 -49
l38 25c26 18 51 37 51 78c0 36 -29 61 -65 61z" />
    <glyph glyph-name="quotesingle" unicode="'" horiz-adv-x="352" 
d="M230 750l-38 -268l-61 69v199h99z" />
    <glyph glyph-name="parenleft" unicode="(" horiz-adv-x="542" 
d="M157 289c0 177 50 313 131 410c30 37 68 71 112 90l28 -76c-75 -56 -117 -150 -139 -264c-9 -47 -13 -100 -13 -159v-13c0 -154 31 -283 97 -368c18 -23 36 -42 55 -56l-28 -75c-72 32 -124 96 -163 165c-50 86 -80 200 -80 335v11z" />
    <glyph glyph-name="parenright" unicode=")" horiz-adv-x="543" 
d="M116 -147c103 81 150 235 150 424v13c0 154 -32 283 -97 368c-18 24 -36 43 -53 56l27 75c73 -32 127 -99 167 -169c49 -86 83 -196 83 -331v-11c0 -176 -56 -311 -135 -408c-31 -38 -71 -73 -115 -92z" />
    <glyph glyph-name="asterisk" unicode="*" horiz-adv-x="644" 
d="M263 470l-154 43l29 89l152 -61l-10 170h96l-10 -174l148 60l29 -89l-156 -44l102 -130l-78 -55l-88 143l-88 -138l-78 53z" />
    <glyph glyph-name="plus" unicode="+" horiz-adv-x="736" 
d="M435 398h176v-127h-176v-200h-134v200h-177v127h177v191h134v-191z" />
    <glyph glyph-name="comma" unicode="," horiz-adv-x="435" 
d="M113 -140c24 46 51 87 51 157v103h120l-1 -96c0 -67 -28 -120 -58 -161c-12 -15 -24 -29 -38 -41z" />
    <glyph glyph-name="hyphen" unicode="-" horiz-adv-x="578" 
d="M425 248h-275v113h275v-113z" />
    <glyph glyph-name="period" unicode="." horiz-adv-x="481" 
d="M237 -5c-47 0 -79 28 -79 74s32 76 79 76s80 -29 80 -76s-33 -74 -80 -74z" />
    <glyph glyph-name="slash" unicode="/" horiz-adv-x="564" 
d="M195 -61h-105l261 772h105z" />
    <glyph glyph-name="zero" unicode="0" horiz-adv-x="764" 
d="M623 294c0 -178 -66 -304 -240 -304c-127 0 -192 67 -223 167c-12 38 -18 84 -18 137v123c0 143 43 247 142 287c29 11 62 17 98 17c125 0 193 -67 223 -166c12 -38 18 -84 18 -138v-123zM383 104c85 0 99 82 99 171v163c0 89 -15 168 -100 168s-98 -80 -98 -168v-163
c0 -89 14 -171 99 -171z" />
    <glyph glyph-name="one" unicode="1" horiz-adv-x="764" 
d="M487 0h-141v544l-168 -76l32 130l170 114h107v-712z" />
    <glyph glyph-name="two" unicode="2" horiz-adv-x="764" 
d="M375 607c-70 0 -103 -50 -103 -120h-142c0 111 63 183 144 216c30 12 65 18 103 18c109 0 184 -40 216 -117c10 -25 16 -54 16 -85c0 -56 -20 -97 -44 -135c-31 -50 -71 -94 -114 -138l-125 -132h306v-114h-488v97l230 245c28 31 53 61 73 95c11 20 20 41 20 68
c0 61 -32 102 -92 102z" />
    <glyph glyph-name="three" unicode="3" horiz-adv-x="764" 
d="M480 201c0 74 -44 107 -118 107h-75v110h75c67 0 106 35 106 98c0 59 -37 91 -97 91c-42 0 -73 -18 -87 -47c-5 -10 -8 -21 -8 -33h-141c0 99 67 155 143 180c28 9 58 14 90 14c110 0 189 -40 224 -115c12 -25 17 -55 17 -88c0 -58 -29 -96 -62 -124
c-13 -11 -28 -21 -46 -29c71 -25 119 -77 119 -166c0 -108 -67 -169 -152 -195c-30 -9 -64 -14 -100 -14c-104 0 -183 44 -221 113c-14 26 -21 57 -21 92h141c0 -45 30 -72 63 -84c13 -5 27 -7 42 -7c63 0 108 34 108 97z" />
    <glyph glyph-name="four" unicode="4" horiz-adv-x="764" 
d="M562 268h80v-114h-80v-154h-141v154h-292v102l290 455h143v-443zM263 268h158v260z" />
    <glyph glyph-name="five" unicode="5" horiz-adv-x="764" 
d="M373 361c-46 0 -73 -17 -95 -39l-113 28l41 361h399v-118h-283l-18 -153c27 15 63 27 107 27c144 0 217 -94 217 -239c0 -111 -55 -184 -134 -218c-30 -14 -66 -20 -106 -20c-106 0 -182 49 -219 120c-14 25 -21 55 -22 88h140c5 -56 41 -94 101 -94c72 0 99 59 99 132
c0 77 -38 125 -114 125z" />
    <glyph glyph-name="six" unicode="6" horiz-adv-x="764" 
d="M289 417c32 32 79 59 143 59c105 0 165 -66 190 -148c8 -29 13 -61 13 -94c0 -115 -60 -190 -141 -225c-30 -13 -63 -19 -99 -19c-125 0 -201 73 -233 168c-12 35 -17 73 -17 115v55c0 181 79 307 208 362c45 19 96 28 154 28h20v-116h-8c-134 0 -214 -68 -230 -185z
M389 362c-53 0 -87 -29 -103 -65v-43c0 -67 18 -120 63 -140c13 -7 27 -10 43 -10c52 0 81 37 94 78c5 15 8 32 8 51c0 59 -23 100 -62 120c-13 6 -27 9 -43 9z" />
    <glyph glyph-name="seven" unicode="7" horiz-adv-x="764" 
d="M628 632l-275 -632h-149l275 597h-353v114h502v-79z" />
    <glyph glyph-name="eight" unicode="8" horiz-adv-x="764" 
d="M254 366c-54 28 -96 79 -96 156c0 102 56 161 134 186c27 9 57 13 91 13c102 0 176 -42 208 -114c11 -25 17 -53 17 -85c0 -77 -44 -128 -97 -156c61 -30 112 -84 112 -171c0 -107 -61 -167 -144 -192c-30 -9 -62 -13 -96 -13c-110 0 -187 42 -223 116
c-12 25 -18 55 -18 89c0 86 50 142 112 171zM383 104c61 0 98 39 98 101c0 63 -37 102 -99 102c-63 0 -98 -39 -98 -102c0 -62 36 -101 99 -101zM383 421c54 0 84 39 84 94s-30 92 -84 92c-55 0 -84 -36 -84 -92c0 -55 29 -94 84 -94z" />
    <glyph glyph-name="nine" unicode="9" horiz-adv-x="764" 
d="M474 284c-30 -29 -73 -54 -128 -54c-107 0 -170 63 -195 145c-9 29 -13 60 -13 94c0 115 59 195 140 232c29 13 62 20 99 20c123 0 192 -76 223 -171c11 -36 17 -76 17 -119v-50c0 -184 -72 -306 -203 -360c-46 -19 -99 -28 -159 -28h-11v118h10c130 0 211 52 220 173z
M279 471c0 -72 29 -133 101 -133c46 0 80 28 96 60v58c0 67 -18 119 -61 142c-12 6 -25 9 -39 9c-68 0 -97 -68 -97 -136z" />
    <glyph glyph-name="colon" unicode=":" horiz-adv-x="473" 
d="M237 -5c-47 0 -79 28 -79 74s32 76 79 76s80 -29 80 -76s-33 -74 -80 -74zM237 395c-47 0 -79 28 -79 74s32 76 79 76s80 -29 80 -76s-33 -74 -80 -74z" />
    <glyph glyph-name="semicolon" unicode=";" horiz-adv-x="453" 
d="M228 395c-47 0 -79 28 -79 74s32 76 79 76s80 -29 80 -76s-33 -74 -80 -74zM124 -140c24 46 51 87 51 157v103h120l-1 -96c0 -67 -28 -120 -58 -161c-12 -15 -24 -29 -38 -41z" />
    <glyph glyph-name="less" unicode="&#x3c;" horiz-adv-x="699" 
d="M264 302l279 -98v-137l-421 178v115l421 179v-137z" />
    <glyph glyph-name="equal" unicode="=" horiz-adv-x="763" 
d="M599 364h-437v115h437v-115zM599 153h-437v115h437v-115z" />
    <glyph glyph-name="greater" unicode="&#x3e;" horiz-adv-x="707" 
d="M438 303l-283 99v136l425 -178v-115l-425 -179v137z" />
    <glyph glyph-name="question" unicode="?" horiz-adv-x="688" 
d="M340 721c130 0 218 -62 218 -192c0 -46 -17 -79 -37 -107c-23 -33 -53 -59 -84 -87c-22 -21 -40 -45 -44 -82c-2 -11 -3 -22 -3 -35h-125c0 64 11 112 39 149c32 40 87 70 106 123c4 10 6 21 6 33c0 54 -24 82 -76 82c-51 0 -80 -32 -80 -83h-142c0 132 90 199 222 199z
M409 68c0 -46 -32 -74 -79 -74c-38 0 -62 18 -73 45c-4 9 -6 18 -6 29c0 46 32 76 79 76s79 -29 79 -76z" />
    <glyph glyph-name="at" unicode="@" horiz-adv-x="1086" 
d="M713 -178c-45 -29 -111 -43 -183 -43c-271 0 -404 168 -394 447c9 210 106 361 257 430c52 23 109 35 173 35c132 0 228 -46 290 -118c63 -72 98 -177 92 -311c-3 -125 -51 -226 -147 -261c-20 -7 -42 -11 -67 -11c-59 0 -99 27 -118 70c-27 -38 -68 -69 -128 -69
c-110 0 -149 102 -140 219c14 115 62 212 147 254c26 13 52 19 80 19c72 0 110 -24 150 -53l-25 -282c-5 -46 9 -80 52 -80c39 0 61 28 77 56c37 65 41 195 19 280c-31 129 -123 208 -284 208c-108 0 -185 -47 -237 -109c-55 -67 -89 -163 -95 -277
c-7 -172 47 -290 167 -339c39 -15 83 -23 133 -23c62 0 119 14 163 33zM623 391c-11 4 -23 6 -39 6c-37 0 -66 -16 -87 -47c-20 -32 -34 -79 -40 -140c-5 -69 6 -131 65 -131c47 0 68 44 81 81z" />
    <glyph glyph-name="A" unicode="A" 
d="M561 146h-257l-49 -146h-156l265 711h136l266 -711h-156zM344 265h177l-89 266z" />
    <glyph glyph-name="B" unicode="B" horiz-adv-x="829" 
d="M688 209c0 -147 -105 -209 -257 -209h-272v711h249c118 0 207 -30 246 -109c12 -24 18 -53 18 -86c0 -78 -45 -128 -102 -150c70 -18 118 -71 118 -157zM541 210c0 68 -36 100 -104 100h-131v-192h125c64 0 110 29 110 92zM525 501c0 70 -44 91 -117 91h-102v-179h108
c66 1 111 25 111 88z" />
    <glyph glyph-name="C" unicode="C" horiz-adv-x="845" 
d="M431 110c91 0 134 42 140 127h147c-9 -119 -74 -194 -170 -228c-34 -13 -73 -19 -117 -19c-150 0 -236 84 -273 200c-14 42 -20 89 -20 142v46c0 158 63 271 173 319c36 16 77 24 122 24c172 0 268 -96 286 -251h-147c-6 86 -47 131 -139 131c-116 0 -147 -94 -147 -222
v-47c0 -121 25 -222 145 -222z" />
    <glyph glyph-name="D" unicode="D" horiz-adv-x="840" 
d="M159 0v711h219c158 0 256 -85 301 -201c16 -42 24 -88 24 -139v-32c0 -161 -79 -267 -194 -314c-40 -17 -84 -25 -132 -25h-218zM554 372c0 132 -51 220 -176 220h-72v-474h71c125 0 177 90 177 221v33z" />
    <glyph glyph-name="E" unicode="E" horiz-adv-x="753" 
d="M587 308h-281v-190h330v-118h-477v711h476v-119h-329v-169h281v-115z" />
    <glyph glyph-name="F" unicode="F" horiz-adv-x="738" 
d="M587 291h-281v-291h-147v711h463v-119h-316v-183h281v-118z" />
    <glyph glyph-name="G" unicode="G" horiz-adv-x="872" 
d="M458 108c48 0 95 9 117 35v123h-133v108h280v-284c-56 -64 -150 -100 -272 -100c-154 0 -246 82 -286 198c-15 42 -22 91 -22 146v42c0 162 61 274 175 322c36 15 77 23 123 23c171 0 264 -84 282 -236h-143c-11 73 -51 118 -135 118c-116 0 -153 -99 -153 -226v-43
c0 -132 44 -226 167 -226z" />
    <glyph glyph-name="H" unicode="H" horiz-adv-x="897" 
d="M738 0h-146v305h-286v-305h-147v711h147v-288h286v288h146v-711z" />
    <glyph glyph-name="I" unicode="I" horiz-adv-x="482" 
d="M315 0h-146v711h146v-711z" />
    <glyph glyph-name="J" unicode="J" horiz-adv-x="749" 
d="M354 108c61 0 91 47 91 111v492h147v-492c0 -111 -61 -184 -144 -213c-29 -11 -61 -16 -95 -16c-110 0 -187 44 -220 122c-12 27 -17 60 -17 98h147c0 -66 26 -102 91 -102z" />
    <glyph glyph-name="K" unicode="K" horiz-adv-x="825" 
d="M382 285l-76 -82v-203h-147v711h147v-322c78 111 163 215 246 322h180l-253 -316l260 -395h-174z" />
    <glyph glyph-name="L" unicode="L" horiz-adv-x="732" 
d="M306 118h311v-118h-458v711h147v-593z" />
    <glyph glyph-name="M" unicode="M" horiz-adv-x="1066" 
d="M351 711l183 -516l181 516h193v-711h-147v194l14 336l-192 -530h-100l-192 529l15 -335v-194h-147v711h192z" />
    <glyph glyph-name="N" unicode="N" horiz-adv-x="897" 
d="M738 0h-147l-285 468v-468h-147v711h147l286 -469v469h146v-711z" />
    <glyph glyph-name="O" unicode="O" horiz-adv-x="881" 
d="M743 339c0 -164 -66 -274 -179 -325c-37 -16 -78 -24 -123 -24c-97 0 -170 40 -219 93c-52 59 -85 147 -85 256v32c0 163 68 276 181 326c37 16 78 24 122 24c98 0 170 -40 219 -94c52 -59 84 -146 84 -256v-32zM441 110c115 0 153 104 153 229v33
c0 126 -39 228 -154 228c-114 0 -155 -102 -155 -228v-33c0 -100 26 -180 90 -214c20 -10 42 -15 66 -15z" />
    <glyph glyph-name="P" unicode="P" horiz-adv-x="836" 
d="M306 250v-250h-147v711h278c125 0 212 -53 249 -141c12 -29 18 -61 18 -94c0 -116 -66 -181 -155 -210c-33 -11 -70 -16 -112 -16h-131zM556 475c0 73 -45 117 -119 117h-131v-223h131c72 0 119 34 119 106z" />
    <glyph glyph-name="Q" unicode="Q" horiz-adv-x="881" 
d="M742 339c0 -134 -46 -232 -122 -291l118 -92l-93 -83l-152 122c-17 -3 -35 -4 -53 -5c-97 0 -169 40 -218 94c-53 57 -86 145 -86 255v32c0 163 68 276 181 326c37 16 78 24 122 24c98 0 170 -40 219 -94c52 -59 84 -146 84 -256v-32zM440 110c115 0 153 104 153 229v33
c0 126 -39 228 -154 228c-114 0 -155 -102 -155 -228v-33c0 -100 26 -180 90 -214c20 -10 42 -15 66 -15z" />
    <glyph glyph-name="R" unicode="R" horiz-adv-x="829" 
d="M686 496c0 -110 -52 -164 -127 -199l154 -290v-7h-157l-133 260h-117v-260h-147v711h265c120 0 206 -39 244 -122c12 -27 18 -58 18 -93zM540 484c0 71 -43 108 -116 108h-118v-213h118c70 0 116 35 116 105z" />
    <glyph glyph-name="S" unicode="S" horiz-adv-x="805" 
d="M417 106c61 0 110 22 110 81c0 51 -30 68 -68 86c-18 8 -42 16 -71 25c-89 29 -177 66 -218 143c-12 23 -19 50 -19 81c0 104 74 160 156 185c32 9 68 14 106 14c120 0 205 -51 243 -132c12 -27 18 -56 18 -88h-146c0 69 -47 103 -118 103c-61 0 -113 -23 -113 -83
c0 -23 12 -43 36 -58c24 -16 59 -31 105 -45c96 -29 186 -68 222 -152c10 -23 15 -49 15 -78c0 -105 -68 -161 -152 -184c-32 -10 -67 -14 -106 -14c-138 0 -240 59 -276 161c-8 22 -11 46 -11 73h147c0 -86 54 -118 140 -118z" />
    <glyph glyph-name="T" unicode="T" horiz-adv-x="809" 
d="M695 592h-218v-592h-147v592h-214v119h579v-119z" />
    <glyph glyph-name="U" unicode="U" horiz-adv-x="849" 
d="M425 108c84 0 126 46 126 134v469h147v-469c0 -128 -67 -205 -165 -236c-33 -11 -69 -16 -108 -16c-128 0 -214 53 -252 143c-14 31 -20 68 -20 109v469h146v-469c0 -88 41 -134 126 -134z" />
    <glyph glyph-name="V" unicode="V" horiz-adv-x="844" 
d="M422 176l161 535h163l-247 -711h-153l-247 711h163z" />
    <glyph glyph-name="W" unicode="W" horiz-adv-x="1065" 
d="M713 205l96 506h146l-158 -711h-147l-116 476l-116 -476h-147l-158 711h146l96 -505l117 505h124z" />
    <glyph glyph-name="X" unicode="X" horiz-adv-x="826" 
d="M414 466l133 245h169l-207 -353l212 -358h-170l-137 249l-137 -249h-170l212 358l-207 353h169z" />
    <glyph glyph-name="Y" unicode="Y" horiz-adv-x="809" 
d="M405 391l148 320h160l-234 -453v-258h-149v258l-233 453h161z" />
    <glyph glyph-name="Z" unicode="Z" horiz-adv-x="796" 
d="M315 118h358v-118h-541v86l351 506h-351v119h533v-84z" />
    <glyph glyph-name="bracketleft" unicode="[" horiz-adv-x="468" 
d="M366 718h-70v-775h70v-109h-211v993h211v-109z" />
    <glyph glyph-name="backslash" unicode="\" horiz-adv-x="612" 
d="M96 711h144l297 -772h-145z" />
    <glyph glyph-name="bracketright" unicode="]" horiz-adv-x="468" 
d="M102 827h211v-993h-211v109h70v775h-70v109z" />
    <glyph glyph-name="asciicircum" unicode="^" horiz-adv-x="628" 
d="M315 579l-85 -223h-113l146 355h103l146 -355h-112z" />
    <glyph glyph-name="underscore" unicode="_" horiz-adv-x="637" 
d="M541 -110h-445v110h445v-110z" />
    <glyph glyph-name="grave" unicode="`" horiz-adv-x="521" 
d="M372 599h-116l-135 151h154z" />
    <glyph glyph-name="a" unicode="a" horiz-adv-x="727" 
d="M578 128c0 -49 6 -87 21 -120v-8h-143c-7 13 -12 28 -14 47c-29 -33 -72 -57 -134 -57c-81 0 -139 40 -166 95c-9 19 -14 40 -14 63c0 131 111 175 244 175h63v30c0 51 -25 81 -78 81c-43 0 -76 -22 -76 -64h-141c0 53 29 92 61 118c39 31 95 50 165 50
c97 0 164 -37 196 -105c10 -23 16 -50 16 -81v-224zM270 159c0 -37 30 -61 70 -61c45 0 79 22 96 51v91h-58c-61 0 -108 -22 -108 -81z" />
    <glyph glyph-name="b" unicode="b" horiz-adv-x="753" 
d="M291 481c28 34 69 57 129 57c111 0 170 -70 193 -160c8 -33 13 -69 13 -108v-11c0 -120 -37 -209 -115 -249c-26 -13 -56 -20 -90 -20c-66 0 -108 28 -137 66l-7 -56h-127v750h141v-269zM385 104c83 0 100 71 100 155v11c0 82 -20 153 -101 153c-51 0 -77 -20 -93 -55
v-208c15 -34 44 -56 94 -56z" />
    <glyph glyph-name="c" unicode="c" horiz-adv-x="712" 
d="M269 257c0 -83 17 -153 100 -153c53 0 87 29 89 79h132c0 -61 -29 -108 -64 -138c-35 -32 -89 -55 -155 -55c-124 0 -199 67 -228 163c-10 32 -15 67 -15 104v14c0 122 50 208 136 247c30 13 66 20 107 20c103 0 172 -47 203 -120c11 -26 17 -55 17 -86h-132
c0 54 -36 92 -90 92c-82 0 -100 -71 -100 -153v-14z" />
    <glyph glyph-name="d" unicode="d" horiz-adv-x="754" 
d="M470 56c-31 -38 -72 -66 -137 -66c-71 0 -119 34 -151 76c-34 46 -55 113 -55 192v10c0 119 41 211 120 251c26 13 55 19 88 19c59 0 98 -24 128 -58v270h141v-750h-127zM462 368c-16 33 -44 55 -92 55c-79 0 -102 -75 -102 -155v-10c0 -80 23 -154 101 -154
c48 0 77 23 93 56v208z" />
    <glyph glyph-name="e" unicode="e" horiz-adv-x="731" 
d="M599 85c-41 -56 -109 -95 -207 -95c-126 0 -208 65 -244 157c-12 31 -18 64 -18 99v19c0 125 57 214 145 253c30 13 64 20 102 20c119 0 190 -62 219 -153c10 -32 15 -68 15 -107v-60h-337c6 -53 36 -89 78 -105c15 -6 32 -9 51 -9c58 0 99 23 127 59zM472 326
c0 61 -34 98 -96 98c-65 0 -93 -51 -100 -110h196v12z" />
    <glyph glyph-name="f" unicode="f" horiz-adv-x="549" 
d="M410 646c-49 0 -80 -24 -80 -72v-46h105v-103h-105v-425h-141v425h-79v103h79v46c0 121 72 186 194 186c26 0 49 -5 71 -10l-1 -109c-12 3 -27 4 -43 5z" />
    <glyph glyph-name="g" unicode="g" horiz-adv-x="761" 
d="M471 45c-29 -32 -70 -55 -129 -55c-71 0 -122 34 -155 77c-36 45 -57 111 -57 191v10c0 121 43 211 124 251c26 13 56 19 89 19c64 0 106 -23 135 -59l6 49h128v-510c0 -114 -63 -183 -151 -211c-31 -10 -65 -15 -103 -15c-86 0 -157 34 -197 83l62 86
c30 -33 70 -59 129 -59c73 0 119 41 119 115v28zM471 375c-18 29 -46 48 -92 48c-80 0 -109 -74 -109 -155v-10c0 -65 19 -118 60 -142c14 -8 30 -12 48 -12c47 0 76 19 93 49v222z" />
    <glyph glyph-name="h" unicode="h" horiz-adv-x="750" 
d="M378 423c-45 0 -74 -19 -90 -48v-375h-141v750h141v-279c30 38 75 67 141 67c124 0 174 -78 174 -205v-333h-141v334c0 61 -24 89 -84 89z" />
    <glyph glyph-name="i" unicode="i" horiz-adv-x="456" 
d="M299 0h-141v528h141v-528zM228 592c-47 0 -79 27 -79 73c0 44 33 73 79 73s79 -27 79 -73s-33 -73 -79 -73z" />
    <glyph glyph-name="j" unicode="j" horiz-adv-x="450" 
d="M94 -98c43 0 64 24 64 69v557h142v-557c0 -117 -64 -184 -181 -184c-26 0 -48 3 -69 8v112c13 -3 28 -5 44 -5zM226 592c-47 0 -79 27 -79 73c0 45 32 73 79 73c46 0 79 -28 79 -73c0 -46 -33 -73 -79 -73z" />
    <glyph glyph-name="k" unicode="k" horiz-adv-x="725" 
d="M342 212l-51 -51v-161h-141v750h141v-416c51 67 108 129 163 194h169l-191 -220l208 -308h-162z" />
    <glyph glyph-name="l" unicode="l" horiz-adv-x="456" 
d="M299 0h-141v750h141v-750z" />
    <glyph glyph-name="m" unicode="m" horiz-adv-x="1056" 
d="M378 423c-44 0 -71 -20 -87 -49v-374h-141v528h133l4 -59c32 40 81 69 152 69c70 0 115 -29 140 -80c32 48 81 80 159 80c123 0 170 -76 170 -202v-336h-142v336c0 60 -21 87 -80 87c-48 0 -74 -26 -88 -60c0 -2 1 -9 1 -11v-352h-141v335c0 44 -12 76 -46 85
c-10 2 -22 3 -34 3z" />
    <glyph glyph-name="n" unicode="n" horiz-adv-x="751" 
d="M378 423c-45 0 -73 -22 -90 -50v-373h-141v528h133l4 -61c32 41 82 71 152 71c121 0 167 -78 167 -202v-336h-141v337c0 60 -25 86 -84 86z" />
    <glyph glyph-name="o" unicode="o" horiz-adv-x="756" 
d="M128 269c0 125 55 210 143 249c31 13 67 20 107 20c125 0 202 -68 234 -162c11 -33 17 -68 17 -107v-10c0 -125 -56 -210 -144 -249c-31 -13 -66 -20 -106 -20c-126 0 -203 68 -235 162c-11 33 -16 68 -16 107v10zM488 269c0 83 -28 155 -110 155s-109 -73 -109 -155v-10
c0 -84 26 -155 110 -155c82 0 109 72 109 155v10z" />
    <glyph glyph-name="p" unicode="p" horiz-adv-x="753" 
d="M286 477c29 36 70 61 133 61c112 0 169 -69 193 -158c9 -33 13 -70 13 -110v-11c0 -118 -40 -207 -117 -248c-25 -14 -54 -21 -87 -21c-60 0 -101 24 -130 56v-249h-141v731h131zM383 104c79 0 101 76 101 155v11c0 79 -23 153 -102 153c-47 0 -75 -19 -92 -50v-217
c16 -32 45 -52 93 -52z" />
    <glyph glyph-name="q" unicode="q" horiz-adv-x="755" 
d="M463 45c-29 -32 -70 -55 -128 -55c-111 0 -168 74 -193 162c-10 33 -14 68 -14 107v10c0 118 40 210 118 250c26 13 56 19 90 19c64 0 105 -27 135 -65l9 55h124v-731h-141v248zM372 424c-80 0 -103 -75 -103 -155v-10c0 -81 22 -155 102 -155c48 0 75 20 92 52v218
c-17 31 -45 50 -91 50z" />
    <glyph glyph-name="r" unicode="r" horiz-adv-x="555" 
d="M405 538c13 0 33 -3 44 -6l-2 -136c-15 1 -36 4 -51 4c-55 0 -88 -18 -105 -54v-346h-141v528h134l3 -63c23 40 59 73 118 73z" />
    <glyph glyph-name="s" unicode="s" horiz-adv-x="705" 
d="M354 90c45 0 82 16 82 56c0 34 -27 44 -54 54c-14 5 -32 9 -54 13c-74 16 -143 43 -174 101c-10 17 -14 37 -14 60c0 51 25 89 56 115c35 30 89 49 155 49c99 0 172 -36 205 -102c10 -21 16 -43 16 -68h-141c0 46 -32 70 -81 70c-42 0 -74 -20 -74 -58
c0 -31 26 -43 51 -51c36 -12 90 -20 126 -32c46 -15 83 -40 105 -78c10 -19 16 -41 16 -67c0 -53 -28 -91 -61 -115c-39 -29 -95 -47 -162 -47c-105 0 -181 44 -213 114c-10 21 -15 43 -15 64h134c2 -53 42 -78 97 -78z" />
    <glyph glyph-name="t" unicode="t" horiz-adv-x="528" 
d="M329 -10c-102 0 -151 53 -151 156v279h-77v103h77v130h141v-130h90v-103h-90v-264c0 -39 15 -55 54 -55c15 0 30 1 42 4v-107c-26 -7 -52 -13 -86 -13z" />
    <glyph glyph-name="u" unicode="u" horiz-adv-x="750" 
d="M363 104c49 0 81 19 99 50v374h141v-528h-132l-4 54c-32 -38 -78 -64 -145 -64c-121 0 -175 74 -175 197v341h141v-342c0 -52 23 -82 75 -82z" />
    <glyph glyph-name="v" unicode="v" horiz-adv-x="696" 
d="M348 172l98 356h148l-179 -528h-134l-179 528h148z" />
    <glyph glyph-name="w" unicode="w" horiz-adv-x="925" 
d="M610 192l69 336h136l-135 -528h-118l-100 333l-100 -333h-118l-134 528h136l69 -336l96 336h102z" />
    <glyph glyph-name="x" unicode="x" horiz-adv-x="699" 
d="M351 371l89 157h151l-150 -258l156 -270h-151l-94 166l-94 -166h-152l157 270l-150 258h151z" />
    <glyph glyph-name="y" unicode="y" horiz-adv-x="692" 
d="M154 -97c6 0 14 -1 21 -1c52 0 78 18 92 57l16 40l-186 529h152l98 -328l98 328h151l-211 -607c-26 -72 -70 -134 -169 -134c-25 0 -45 2 -62 9v107z" />
    <glyph glyph-name="z" unicode="z" horiz-adv-x="699" 
d="M312 114h259v-114h-439v86l249 328h-242v114h424v-83z" />
    <glyph glyph-name="braceleft" unicode="{" horiz-adv-x="521" 
d="M333 52c0 -75 20 -129 76 -149l-27 -79c-107 30 -176 95 -176 228v99c0 61 -26 100 -87 100v102c63 0 87 38 87 101v99c0 132 70 197 176 227l27 -79c-56 -20 -76 -73 -76 -148v-99c0 -75 -34 -124 -87 -152c52 -27 87 -77 87 -151v-99z" />
    <glyph glyph-name="bar" unicode="|" horiz-adv-x="443" 
d="M266 -132h-86v843h86v-843z" />
    <glyph glyph-name="braceright" unicode="}" horiz-adv-x="521" 
d="M403 251c-63 0 -87 -37 -87 -100v-99c0 -133 -70 -198 -176 -228l-27 79c54 20 76 75 76 149v99c0 77 35 126 89 151c-56 26 -89 76 -89 152v99c0 74 -22 128 -76 148l27 79c105 -30 176 -95 176 -227v-99c0 -63 24 -101 87 -101v-102z" />
    <glyph glyph-name="asciitilde" unicode="~" horiz-adv-x="839" 
d="M522 299c45 0 65 43 65 89l104 -1c0 -91 -35 -160 -97 -189c-20 -10 -41 -15 -65 -15c-65 0 -101 32 -137 65c-14 13 -26 24 -38 31s-25 10 -39 10c-43 0 -63 -43 -63 -87l-105 1c0 91 35 158 96 187c20 9 42 14 65 14c27 0 51 -5 72 -16c22 -11 44 -27 66 -48
c14 -14 27 -24 39 -31s24 -10 37 -10z" />
    <glyph glyph-name="nonbreakingspace" unicode="&#xa0;" horiz-adv-x="440" 
 />
    <glyph glyph-name="exclamdown" unicode="&#xa1;" horiz-adv-x="473" 
d="M179 312h118l16 -492h-150zM317 463c0 -45 -34 -75 -79 -75c-38 0 -63 19 -74 46c-4 9 -6 18 -6 29c0 46 34 75 80 75c37 0 61 -19 73 -45c4 -9 6 -19 6 -30z" />
    <glyph glyph-name="cent" unicode="&#xa2;" horiz-adv-x="766" 
d="M285 257c0 -83 17 -153 101 -153c52 0 86 29 89 79h132c0 -83 -48 -135 -102 -165c-21 -11 -44 -19 -68 -23v-115h-97v114c-127 21 -196 117 -196 263v14c0 109 41 188 109 232c24 15 53 26 87 31v110h97v-110c78 -14 132 -59 157 -127c8 -23 13 -48 13 -75h-132
c0 54 -36 92 -90 92c-82 0 -100 -71 -100 -153v-14z" />
    <glyph glyph-name="sterling" unicode="&#xa3;" horiz-adv-x="785" 
d="M437 602c-50 0 -74 -41 -74 -95l4 -111h151v-115h-147l3 -68c0 -42 -11 -71 -30 -95h319v-118h-517v118h45c30 8 35 49 35 87l-3 76h-79v115h76l-4 111c0 106 52 170 131 199c27 9 57 14 91 14c106 0 176 -44 206 -120c10 -25 15 -53 15 -83h-140c0 55 -29 85 -82 85z
" />
    <glyph glyph-name="currency" unicode="&#xa4;" horiz-adv-x="883" 
d="M734 297c0 -70 -20 -126 -48 -171l68 -68l-70 -71l-64 65c-45 -35 -103 -62 -176 -62c-75 0 -134 26 -177 62l-63 -65l-68 71l65 67c-29 46 -48 101 -48 172c0 74 21 133 53 178l-70 72l68 70l70 -71c43 32 99 57 170 57s127 -25 170 -58l70 73l70 -71l-73 -74
c30 -45 53 -104 53 -176zM243 297c0 -65 26 -117 59 -152c31 -34 79 -62 142 -62c62 0 109 28 141 62c32 35 58 87 58 152c0 98 -53 166 -122 197c-24 11 -50 16 -77 16c-62 0 -111 -28 -142 -61c-33 -35 -59 -87 -59 -152z" />
    <glyph glyph-name="yen" unicode="&#xa5;" horiz-adv-x="803" 
d="M402 415l135 296h161l-184 -349h115v-85h-156v-56h156v-85h-156v-136h-147v136h-164v85h164v56h-164v85h127l-183 349h161z" />
    <glyph glyph-name="brokenbar" unicode="&#xa6;" horiz-adv-x="442" 
d="M158 -132v388h127v-388h-127zM285 341h-127v370h127v-370z" />
    <glyph glyph-name="section" unicode="&#xa7;" horiz-adv-x="819" 
d="M221 394c-41 30 -66 72 -66 141c0 99 69 150 148 173c31 9 66 13 105 13c115 0 200 -40 236 -120c12 -26 18 -56 18 -89h-141c0 63 -49 95 -113 95c-51 0 -90 -12 -106 -44c-4 -9 -6 -18 -6 -27c0 -48 32 -61 71 -74c18 -7 41 -14 70 -21c93 -25 182 -52 219 -129
c10 -22 16 -48 16 -77c0 -66 -34 -107 -79 -132c40 -30 66 -72 66 -141c0 -99 -68 -150 -149 -171c-31 -8 -65 -12 -103 -12c-127 0 -224 40 -256 134c-7 21 -10 44 -10 70h141c0 -69 55 -89 125 -89c58 0 111 16 111 67c0 26 -13 39 -31 51c-31 19 -67 30 -112 43
c-93 25 -180 53 -217 129c-11 21 -16 47 -16 77c0 66 34 107 79 133zM492 152c23 13 41 36 41 69c0 47 -38 63 -75 78c-37 14 -99 29 -138 45c-23 -13 -37 -36 -37 -69c0 -49 31 -65 70 -79c36 -13 99 -28 139 -44z" />
    <glyph glyph-name="dieresis" unicode="&#xa8;" horiz-adv-x="657" 
d="M209 605c-40 0 -68 23 -68 62c0 38 29 62 68 62c37 0 67 -25 67 -62c0 -38 -29 -62 -67 -62zM447 604c-39 0 -68 25 -68 63s29 62 68 62c37 0 67 -25 67 -62c0 -38 -30 -63 -67 -63z" />
    <glyph glyph-name="copyright" unicode="&#xa9;" horiz-adv-x="975" 
d="M478 204c59 0 87 25 87 87h76c0 -102 -62 -153 -163 -153c-87 0 -137 47 -159 112c-8 23 -12 49 -12 77v58c0 87 38 148 99 175c21 9 45 14 72 14c102 0 164 -52 164 -154h-76c0 61 -29 88 -88 88c-68 0 -95 -55 -95 -123v-58c0 -69 27 -123 95 -123zM198 356
c0 -141 76 -237 175 -282c34 -15 72 -23 112 -23c91 0 156 39 202 88c48 51 84 121 84 217c0 128 -62 215 -142 264c-39 23 -87 40 -144 40c-89 0 -157 -40 -204 -87c-48 -50 -83 -124 -83 -217zM138 356c0 115 44 200 101 260c40 42 91 74 153 92c30 9 61 13 93 13
c109 0 189 -48 245 -105c41 -43 71 -96 88 -161c8 -31 13 -64 13 -99c0 -113 -44 -200 -102 -261c-56 -57 -138 -105 -244 -105c-110 0 -191 47 -246 105c-57 61 -101 146 -101 261z" />
    <glyph glyph-name="ordfeminine" unicode="&#xaa;" horiz-adv-x="634" 
d="M465 433c0 -34 4 -61 12 -89h-86c-4 10 -7 21 -8 33c-22 -23 -54 -40 -99 -40c-74 0 -121 39 -121 112c0 85 71 113 166 113h50v24c0 39 -18 62 -56 62s-68 -13 -68 -48l-84 7c0 59 42 91 89 106c18 5 39 8 63 8c87 0 142 -47 142 -135v-153zM248 451
c0 -32 22 -43 57 -43c28 0 58 16 74 30v66h-49c-37 0 -66 -9 -77 -33c-4 -7 -5 -13 -5 -20z" />
    <glyph glyph-name="guillemotleft" unicode="&#xab;" horiz-adv-x="690" 
d="M244 256l117 -195h-91l-136 190v10l136 190h91zM432 256l117 -195h-91l-136 190v10l136 190h91z" />
    <glyph glyph-name="logicalnot" unicode="&#xac;" horiz-adv-x="742" 
d="M565 183h-97v127h-310v83h407v-210z" />
    <glyph glyph-name="uni00AD" unicode="&#xad;" horiz-adv-x="578" 
d="M425 248h-275v113h275v-113z" />
    <glyph glyph-name="registered" unicode="&#xae;" horiz-adv-x="975" 
d="M138 356c0 115 44 200 101 260c40 42 91 74 153 92c30 9 61 13 93 13c109 0 189 -48 245 -105c41 -43 71 -96 88 -161c8 -31 13 -64 13 -99c0 -113 -44 -200 -102 -260c-56 -58 -138 -106 -244 -106c-110 0 -191 47 -246 106c-57 60 -101 145 -101 260zM198 356
c0 -141 76 -237 175 -281c34 -16 72 -24 112 -24c91 0 156 39 202 88c48 51 84 121 84 217c0 128 -62 215 -142 264c-39 23 -87 40 -144 40c-89 0 -157 -40 -204 -87c-48 -50 -83 -124 -83 -217zM561 251c0 48 -20 68 -69 68h-78v-165h-73v415h137c91 0 159 -37 159 -128
c0 -43 -26 -68 -56 -85c36 -18 54 -53 54 -105v-27c0 -23 0 -46 8 -62v-8h-75c-5 14 -7 37 -7 56v41zM563 441c0 53 -32 63 -85 63h-64v-120h67c40 0 82 17 82 57z" />
    <glyph glyph-name="macron" unicode="&#xaf;" horiz-adv-x="691" 
d="M525 630h-357v81h357v-81z" />
    <glyph glyph-name="macron" unicode="&#x2c9;" horiz-adv-x="691" 
d="M525 630h-357v81h357v-81z" />
    <glyph glyph-name="degree" unicode="&#xb0;" horiz-adv-x="579" 
d="M158 586c0 63 37 104 80 124c16 7 33 11 51 11c61 0 104 -39 121 -83c7 -16 10 -33 10 -52c0 -62 -35 -103 -80 -122c-16 -7 -33 -11 -51 -11c-60 0 -102 38 -121 81c-7 16 -10 33 -10 52zM289 648c-35 0 -61 -27 -61 -62c0 -29 18 -47 38 -56c8 -3 15 -5 23 -5
c37 0 60 25 60 61s-23 62 -60 62z" />
    <glyph glyph-name="plusminus" unicode="&#xb1;" horiz-adv-x="728" 
d="M427 460h160v-117h-160v-178h-124v178h-163v117h163v168h124v-168zM573 0h-421v116h421v-116z" />
    <glyph glyph-name="twosuperior" unicode="&#xb2;" horiz-adv-x="563" 
d="M272 716c87 0 150 -37 150 -121c0 -53 -28 -82 -59 -108c-13 -12 -29 -25 -47 -39l-54 -42h171v-80h-302v67l140 126c18 16 31 31 39 44s12 24 12 32c0 27 -17 41 -46 41c-32 0 -54 -21 -54 -53h-100c0 63 40 105 87 123c19 7 40 10 63 10z" />
    <glyph glyph-name="threesuperior" unicode="&#xb3;" horiz-adv-x="563" 
d="M334 443c0 36 -26 45 -62 45h-43v67h43c32 0 55 13 55 43c0 27 -24 37 -51 37c-24 0 -50 -8 -50 -29h-100c0 59 43 90 91 103c17 5 36 7 56 7c82 0 154 -29 154 -111c0 -45 -32 -69 -66 -82c42 -11 73 -37 73 -90c0 -81 -80 -113 -161 -113c-65 0 -116 23 -140 64
c-10 15 -14 34 -14 56h101c0 -28 30 -40 59 -40c32 0 55 15 55 43z" />
    <glyph glyph-name="acute" unicode="&#xb4;" horiz-adv-x="522" 
d="M242 750h153l-135 -151h-115z" />
    <glyph glyph-name="mu" unicode="&#xb5;" horiz-adv-x="806" 
d="M500 33c-26 -26 -61 -43 -111 -43c-33 0 -61 7 -84 22v-215h-141v731h141v-302c0 -74 16 -122 88 -122c51 0 82 19 100 52v372h141v-528h-131z" />
    <glyph glyph-name="paragraph" unicode="&#xb6;" horiz-adv-x="680" 
d="M413 0v254h-40c-117 0 -194 52 -225 137c-10 28 -15 58 -15 91c0 111 55 180 137 212c30 11 64 17 103 17h147v-711h-107z" />
    <glyph glyph-name="periodcentered" unicode="&#xb7;" horiz-adv-x="492" 
d="M324 340c0 -46 -34 -75 -80 -75c-39 0 -63 19 -74 46c-4 9 -6 18 -6 29c0 46 33 76 80 76s80 -29 80 -76z" />
    <glyph glyph-name="cedilla" unicode="&#xb8;" horiz-adv-x="458" 
d="M213 -104c0 33 -33 35 -69 38l15 69h105l-5 -28c42 -6 73 -34 73 -84c0 -63 -45 -95 -97 -109c-21 -5 -45 -8 -73 -8l-4 82c30 0 55 10 55 40z" />
    <glyph glyph-name="onesuperior" unicode="&#xb9;" horiz-adv-x="556" 
d="M354 326h-100v268l-92 -20v77l183 59h9v-384z" />
    <glyph glyph-name="ordmasculine" unicode="&#xba;" horiz-adv-x="648" 
d="M154 547c0 83 39 137 98 161c21 9 45 13 71 13c82 0 135 -43 157 -104c8 -21 12 -45 12 -70v-37c0 -82 -39 -137 -98 -160c-21 -9 -44 -13 -70 -13c-84 0 -135 42 -158 103c-8 21 -12 45 -12 70v37zM323 648c-59 0 -84 -42 -84 -101v-37c0 -59 26 -102 85 -102
c56 0 83 45 83 102v37c0 57 -27 101 -84 101z" />
    <glyph glyph-name="guillemotright" unicode="&#xbb;" horiz-adv-x="690" 
d="M228 451l137 -191v-9l-137 -190h-91l117 194l-117 196h91zM420 451l137 -191v-9l-137 -190h-91l117 194l-117 196h91z" />
    <glyph glyph-name="onequarter" unicode="&#xbc;" horiz-adv-x="908" 
d="M337 324h-100v268l-92 -20v77l183 59h9v-384zM319 57l-68 37l347 556l69 -37zM732 159h44v-81h-44v-78h-100v78h-168l-6 66l174 240v1h100v-226zM554 159h78v102c-25 -35 -53 -68 -78 -102z" />
    <glyph glyph-name="onehalf" unicode="&#xbd;" horiz-adv-x="952" 
d="M299 57l-68 37l347 556l69 -37zM329 327h-100v268l-92 -20v77l183 59h9v-384zM655 391c87 0 151 -37 151 -121c0 -53 -29 -83 -59 -109c-14 -12 -29 -25 -47 -39l-54 -42h171v-80h-302v67l140 126c18 16 31 31 39 45c8 13 12 24 12 31c0 27 -18 41 -46 41
c-33 0 -54 -21 -54 -53h-100c0 64 39 104 87 123c18 7 39 11 62 11z" />
    <glyph glyph-name="threequarters" unicode="&#xbe;" horiz-adv-x="999" 
d="M398 57l-68 37l347 556l69 -37zM809 159h44v-81h-44v-78h-100v78h-168l-6 66l174 240v1h100v-226zM631 159h78v102c-25 -35 -53 -68 -78 -102zM356 444c0 36 -26 45 -62 45h-43v66h43c32 0 55 14 55 43c0 27 -24 38 -51 38c-24 0 -50 -8 -50 -29h-100c0 60 43 89 91 103
c17 5 36 7 56 7c82 0 154 -30 154 -111c0 -45 -32 -69 -66 -82c42 -11 73 -37 73 -90c0 -81 -80 -113 -161 -113c-66 0 -115 22 -140 64c-10 15 -14 34 -14 56h101c0 -28 30 -40 59 -40c32 0 55 15 55 43z" />
    <glyph glyph-name="questiondown" unicode="&#xbf;" horiz-adv-x="688" 
d="M349 -188c-132 0 -219 60 -219 191c0 47 16 80 37 109c23 32 54 61 85 89c30 26 44 57 44 113h125c0 -91 -25 -141 -72 -184c-29 -27 -58 -51 -72 -89c-4 -11 -6 -24 -6 -37c0 -50 26 -77 75 -77c51 0 83 31 83 84h142c0 -132 -91 -199 -222 -199zM360 538
c47 0 79 -28 79 -75c0 -46 -33 -74 -79 -74c-47 0 -79 28 -79 74c0 47 31 75 79 75z" />
    <glyph glyph-name="Agrave" unicode="&#xc0;" 
d="M561 146h-257l-49 -146h-156l265 711h136l266 -711h-156zM344 265h177l-89 266zM504 750h-116l-135 151h154z" />
    <glyph glyph-name="Aacute" unicode="&#xc1;" 
d="M561 146h-257l-49 -146h-156l265 711h136l266 -711h-156zM344 265h177l-89 266zM463 901h153l-135 -151h-115z" />
    <glyph glyph-name="Acircumflex" unicode="&#xc2;" 
d="M561 146h-257l-49 -146h-156l265 711h136l266 -711h-156zM344 265h177l-89 266zM621 764v-6h-112l-75 71l-76 -71h-110v8l145 135h82z" />
    <glyph glyph-name="Atilde" unicode="&#xc3;" 
d="M561 146h-257l-49 -146h-156l265 711h136l266 -711h-156zM344 265h177l-89 266zM494 853c25 0 42 20 42 47l82 -6c0 -58 -29 -99 -67 -119c-14 -7 -28 -11 -44 -11c-46 0 -69 22 -100 36c-10 4 -22 6 -34 6c-26 0 -41 -20 -41 -47l-82 5c0 57 28 101 66 121
c14 7 28 10 44 10c27 0 48 -12 68 -21c19 -10 39 -21 66 -21z" />
    <glyph glyph-name="Adieresis" unicode="&#xc4;" 
d="M561 146h-257l-49 -146h-156l265 711h136l266 -711h-156zM344 265h177l-89 266zM314 756c-40 0 -68 23 -68 62c0 38 29 62 68 62c37 0 67 -25 67 -62c0 -38 -29 -62 -67 -62zM552 755c-39 0 -68 25 -68 63s29 62 68 62c37 0 67 -25 67 -62c0 -38 -30 -63 -67 -63z" />
    <glyph glyph-name="Aring" unicode="&#xc5;" 
d="M561 146h-257l-49 -146h-156l265 711h136l266 -711h-156zM344 265h177l-89 266zM325 845c0 48 31 78 66 92c13 5 27 8 43 8c49 0 85 -27 101 -61c5 -13 8 -26 8 -39c0 -48 -31 -77 -66 -90c-14 -5 -28 -8 -43 -8c-50 0 -85 26 -101 60c-6 11 -8 24 -8 38zM434 898
c-32 0 -53 -22 -53 -53c0 -29 22 -52 53 -52c30 0 53 22 53 52c0 31 -22 53 -53 53z" />
    <glyph glyph-name="AE" unicode="&#xc6;" horiz-adv-x="1130" 
d="M1007 0h-438l-7 163h-218l-81 -163h-166l384 711h496v-115h-292l7 -174h245v-115h-240l8 -192h302v-115zM405 283h152l-12 279z" />
    <glyph glyph-name="Ccedilla" unicode="&#xc7;" horiz-adv-x="845" 
d="M431 110c91 0 134 42 140 127h147c-9 -119 -74 -194 -170 -228c-34 -13 -73 -19 -117 -19c-150 0 -236 84 -273 200c-14 42 -20 89 -20 142v46c0 158 63 271 173 319c36 16 77 24 122 24c172 0 268 -96 286 -251h-147c-6 86 -47 131 -139 131c-116 0 -147 -94 -147 -222
v-47c0 -121 25 -222 145 -222zM434 -104c0 33 -33 35 -69 38l15 69h105l-5 -28c42 -6 73 -34 73 -84c0 -63 -45 -95 -97 -109c-21 -5 -45 -8 -73 -8l-4 82c30 0 55 10 55 40z" />
    <glyph glyph-name="Egrave" unicode="&#xc8;" horiz-adv-x="753" 
d="M587 308h-281v-190h330v-118h-477v711h476v-119h-329v-169h281v-115zM476 752h-116l-135 151h154z" />
    <glyph glyph-name="Eacute" unicode="&#xc9;" horiz-adv-x="753" 
d="M587 308h-281v-190h330v-118h-477v711h476v-119h-329v-169h281v-115zM435 903h153l-135 -151h-115z" />
    <glyph glyph-name="Ecircumflex" unicode="&#xca;" horiz-adv-x="753" 
d="M587 308h-281v-190h330v-118h-477v711h476v-119h-329v-169h281v-115zM593 766v-6h-112l-75 71l-76 -71h-110v8l145 135h82z" />
    <glyph glyph-name="Edieresis" unicode="&#xcb;" horiz-adv-x="753" 
d="M587 308h-281v-190h330v-118h-477v711h476v-119h-329v-169h281v-115zM287 758c-40 0 -68 23 -68 62c0 38 29 62 68 62c37 0 67 -25 67 -62c0 -38 -29 -62 -67 -62zM525 757c-39 0 -68 25 -68 63s29 62 68 62c37 0 67 -25 67 -62c0 -38 -30 -63 -67 -63z" />
    <glyph glyph-name="Igrave" unicode="&#xcc;" horiz-adv-x="482" 
d="M315 0h-146v711h146v-711zM312 752h-116l-135 151h154z" />
    <glyph glyph-name="Iacute" unicode="&#xcd;" horiz-adv-x="482" 
d="M315 0h-146v711h146v-711zM270 903h153l-135 -151h-115z" />
    <glyph glyph-name="Icircumflex" unicode="&#xce;" horiz-adv-x="482" 
d="M315 0h-146v711h146v-711zM429 766v-6h-112l-75 71l-76 -71h-110v8l145 135h82z" />
    <glyph glyph-name="Idieresis" unicode="&#xcf;" horiz-adv-x="482" 
d="M315 0h-146v711h146v-711zM123 758c-40 0 -68 23 -68 62c0 38 29 62 68 62c37 0 67 -25 67 -62c0 -38 -29 -62 -67 -62zM361 757c-39 0 -68 25 -68 63s29 62 68 62c37 0 67 -25 67 -62c0 -38 -30 -63 -67 -63z" />
    <glyph glyph-name="Eth" unicode="&#xd0;" horiz-adv-x="855" 
d="M174 0v313h-73v90h73v308h219c157 0 256 -86 301 -201c16 -42 24 -88 24 -139v-32c0 -160 -80 -268 -194 -314c-40 -17 -85 -25 -133 -25h-217zM569 372c0 131 -52 220 -176 220h-72v-189h121v-90h-121v-195h70c125 0 178 90 178 221v33z" />
    <glyph glyph-name="Ntilde" unicode="&#xd1;" horiz-adv-x="897" 
d="M738 0h-147l-285 468v-468h-147v711h147l286 -469v469h146v-711zM510 853c25 0 42 20 42 47l82 -6c0 -58 -29 -99 -67 -119c-14 -7 -28 -11 -44 -11c-46 0 -69 22 -100 36c-10 4 -22 6 -34 6c-26 0 -41 -20 -41 -47l-82 5c0 57 28 101 66 121c14 7 28 10 44 10
c27 0 48 -12 68 -21c19 -10 39 -21 66 -21z" />
    <glyph glyph-name="Ograve" unicode="&#xd2;" horiz-adv-x="881" 
d="M743 339c0 -164 -66 -274 -179 -324c-37 -17 -78 -25 -122 -25c-98 0 -171 40 -219 94c-53 58 -85 146 -85 255v32c0 163 67 276 180 326c37 16 78 24 123 24c97 0 169 -40 218 -94c52 -59 84 -146 84 -256v-32zM442 110c114 0 153 104 153 229v33
c0 126 -40 228 -154 228c-115 0 -155 -102 -155 -228v-33c0 -100 25 -180 90 -214c19 -10 41 -15 66 -15zM511 750h-116l-135 151h154z" />
    <glyph glyph-name="Oacute" unicode="&#xd3;" horiz-adv-x="881" 
d="M743 339c0 -164 -66 -274 -179 -324c-37 -17 -78 -25 -122 -25c-98 0 -171 40 -219 94c-53 58 -85 146 -85 255v32c0 163 67 276 180 326c37 16 78 24 123 24c97 0 169 -40 218 -94c52 -59 84 -146 84 -256v-32zM442 110c114 0 153 104 153 229v33
c0 126 -40 228 -154 228c-115 0 -155 -102 -155 -228v-33c0 -100 25 -180 90 -214c19 -10 41 -15 66 -15zM470 901h153l-135 -151h-115z" />
    <glyph glyph-name="Ocircumflex" unicode="&#xd4;" horiz-adv-x="881" 
d="M743 339c0 -164 -66 -274 -179 -324c-37 -17 -78 -25 -122 -25c-98 0 -171 40 -219 94c-53 58 -85 146 -85 255v32c0 163 67 276 180 326c37 16 78 24 123 24c97 0 169 -40 218 -94c52 -59 84 -146 84 -256v-32zM442 110c114 0 153 104 153 229v33
c0 126 -40 228 -154 228c-115 0 -155 -102 -155 -228v-33c0 -100 25 -180 90 -214c19 -10 41 -15 66 -15zM628 764v-6h-112l-75 71l-76 -71h-110v8l145 135h82z" />
    <glyph glyph-name="Otilde" unicode="&#xd5;" horiz-adv-x="881" 
d="M743 339c0 -164 -66 -274 -179 -324c-37 -17 -78 -25 -122 -25c-98 0 -171 40 -219 94c-53 58 -85 146 -85 255v32c0 163 67 276 180 326c37 16 78 24 123 24c97 0 169 -40 218 -94c52 -59 84 -146 84 -256v-32zM442 110c114 0 153 104 153 229v33
c0 126 -40 228 -154 228c-115 0 -155 -102 -155 -228v-33c0 -100 25 -180 90 -214c19 -10 41 -15 66 -15zM501 853c25 0 42 20 42 47l82 -6c0 -58 -29 -99 -67 -119c-14 -7 -28 -11 -44 -11c-46 0 -69 22 -100 36c-10 4 -22 6 -34 6c-26 0 -41 -20 -41 -47l-82 5
c0 57 28 101 66 121c14 7 28 10 44 10c27 0 48 -12 68 -21c19 -10 39 -21 66 -21z" />
    <glyph glyph-name="Odieresis" unicode="&#xd6;" horiz-adv-x="881" 
d="M743 339c0 -164 -66 -274 -179 -324c-37 -17 -78 -25 -122 -25c-98 0 -171 40 -219 94c-53 58 -85 146 -85 255v32c0 163 67 276 180 326c37 16 78 24 123 24c97 0 169 -40 218 -94c52 -59 84 -146 84 -256v-32zM442 110c114 0 153 104 153 229v33
c0 126 -40 228 -154 228c-115 0 -155 -102 -155 -228v-33c0 -100 25 -180 90 -214c19 -10 41 -15 66 -15zM321 756c-40 0 -68 23 -68 62c0 38 29 62 68 62c37 0 67 -25 67 -62c0 -38 -29 -62 -67 -62zM559 755c-39 0 -68 25 -68 63s29 62 68 62c37 0 67 -25 67 -62
c0 -38 -30 -63 -67 -63z" />
    <glyph glyph-name="multiply" unicode="&#xd7;" horiz-adv-x="722" 
d="M128 182l150 153l-150 153l83 82l148 -152l149 152l83 -82l-150 -153l150 -153l-83 -82l-149 151l-148 -151z" />
    <glyph glyph-name="Oslash" unicode="&#xd8;" horiz-adv-x="879" 
d="M659 630c54 -60 88 -146 88 -259v-32c0 -163 -67 -275 -180 -324c-37 -17 -78 -25 -122 -25c-54 0 -102 11 -144 34l-41 -70h-92l70 117c-60 60 -97 150 -97 268v32c0 162 68 276 180 326c37 16 78 24 123 24c62 0 113 -16 154 -41l36 61h91zM444 600
c-115 0 -154 -103 -154 -228v-33c0 -56 8 -102 24 -139l219 369c-24 20 -54 30 -89 31zM445 110c114 0 153 104 153 229v33c0 49 -6 90 -18 124l-214 -363c22 -15 48 -23 79 -23z" />
    <glyph glyph-name="Ugrave" unicode="&#xd9;" horiz-adv-x="849" 
d="M425 108c84 0 126 46 126 134v469h147v-469c0 -128 -67 -205 -164 -236c-34 -11 -70 -16 -109 -16c-128 0 -214 53 -252 143c-14 31 -20 68 -20 109v469h146v-469c0 -88 41 -134 126 -134zM494 750h-116l-135 151h154z" />
    <glyph glyph-name="Uacute" unicode="&#xda;" horiz-adv-x="849" 
d="M425 108c84 0 126 46 126 134v469h147v-469c0 -128 -67 -205 -164 -236c-34 -11 -70 -16 -109 -16c-128 0 -214 53 -252 143c-14 31 -20 68 -20 109v469h146v-469c0 -88 41 -134 126 -134zM452 901h153l-135 -151h-115z" />
    <glyph glyph-name="Ucircumflex" unicode="&#xdb;" horiz-adv-x="849" 
d="M425 108c84 0 126 46 126 134v469h147v-469c0 -128 -67 -205 -164 -236c-34 -11 -70 -16 -109 -16c-128 0 -214 53 -252 143c-14 31 -20 68 -20 109v469h146v-469c0 -88 41 -134 126 -134zM611 764v-6h-112l-75 71l-76 -71h-110v8l145 135h82z" />
    <glyph glyph-name="Udieresis" unicode="&#xdc;" horiz-adv-x="849" 
d="M425 108c84 0 126 46 126 134v469h147v-469c0 -128 -67 -205 -164 -236c-34 -11 -70 -16 -109 -16c-128 0 -214 53 -252 143c-14 31 -20 68 -20 109v469h146v-469c0 -88 41 -134 126 -134zM304 756c-40 0 -68 23 -68 62c0 38 29 62 68 62c37 0 67 -25 67 -62
c0 -38 -29 -62 -67 -62zM542 755c-39 0 -68 25 -68 63s29 62 68 62c37 0 67 -25 67 -62c0 -38 -30 -63 -67 -63z" />
    <glyph glyph-name="Yacute" unicode="&#xdd;" horiz-adv-x="809" 
d="M405 391l148 320h160l-234 -453v-258h-149v258l-233 453h161zM435 901h153l-135 -151h-115z" />
    <glyph glyph-name="Thorn" unicode="&#xde;" horiz-adv-x="799" 
d="M302 711v-130h109c122 0 207 -48 244 -132c12 -27 18 -57 18 -89c0 -111 -65 -175 -150 -203c-33 -11 -70 -17 -112 -17h-109v-140h-141v711h141zM532 359c0 70 -49 108 -121 108h-109v-213h109c71 0 121 35 121 105z" />
    <glyph glyph-name="germandbls" unicode="&#xdf;" horiz-adv-x="821" 
d="M383 648c-63 0 -80 -47 -80 -112v-536h-141v538c0 147 84 223 231 223c93 0 159 -37 190 -102c10 -23 16 -49 16 -78c0 -43 -10 -70 -26 -95c-14 -23 -26 -45 -26 -81c0 -28 21 -47 38 -62c35 -35 75 -67 98 -115c7 -16 11 -34 11 -55c0 -127 -90 -183 -218 -183
c-52 0 -104 8 -136 28l27 111c25 -13 64 -25 106 -25c46 0 80 22 80 66c0 31 -21 51 -38 67c-23 21 -51 41 -71 65c-21 23 -38 54 -38 97c0 66 35 91 50 141c2 9 4 20 4 33c0 46 -31 75 -77 75z" />
    <glyph glyph-name="agrave" unicode="&#xe0;" horiz-adv-x="727" 
d="M578 128c0 -49 6 -87 21 -120v-8h-143c-7 13 -12 28 -14 47c-29 -33 -72 -57 -133 -57c-82 0 -140 40 -166 95c-10 19 -14 40 -14 63c0 131 110 175 244 175h63v30c0 51 -26 81 -78 81c-44 0 -76 -22 -76 -64h-141c0 53 28 92 61 118c38 31 94 50 164 50
c97 0 164 -37 196 -105c10 -23 16 -50 16 -81v-224zM270 159c0 -37 30 -61 70 -61c45 0 79 22 96 51v91h-58c-61 0 -108 -22 -108 -81zM435 599h-116l-135 151h154z" />
    <glyph glyph-name="aacute" unicode="&#xe1;" horiz-adv-x="727" 
d="M578 128c0 -49 6 -87 21 -120v-8h-143c-7 13 -12 28 -14 47c-29 -33 -72 -57 -133 -57c-82 0 -140 40 -166 95c-10 19 -14 40 -14 63c0 131 110 175 244 175h63v30c0 51 -26 81 -78 81c-44 0 -76 -22 -76 -64h-141c0 53 28 92 61 118c38 31 94 50 164 50
c97 0 164 -37 196 -105c10 -23 16 -50 16 -81v-224zM270 159c0 -37 30 -61 70 -61c45 0 79 22 96 51v91h-58c-61 0 -108 -22 -108 -81zM394 750h153l-135 -151h-115z" />
    <glyph glyph-name="acircumflex" unicode="&#xe2;" horiz-adv-x="727" 
d="M578 128c0 -49 6 -87 21 -120v-8h-143c-7 13 -12 28 -14 47c-29 -33 -72 -57 -133 -57c-82 0 -140 40 -166 95c-10 19 -14 40 -14 63c0 131 110 175 244 175h63v30c0 51 -26 81 -78 81c-44 0 -76 -22 -76 -64h-141c0 53 28 92 61 118c38 31 94 50 164 50
c97 0 164 -37 196 -105c10 -23 16 -50 16 -81v-224zM270 159c0 -37 30 -61 70 -61c45 0 79 22 96 51v91h-58c-61 0 -108 -22 -108 -81zM552 613v-6h-112l-75 71l-76 -71h-110v8l145 135h82z" />
    <glyph glyph-name="atilde" unicode="&#xe3;" horiz-adv-x="727" 
d="M578 128c0 -49 6 -87 21 -120v-8h-143c-7 13 -12 28 -14 47c-29 -33 -72 -57 -133 -57c-82 0 -140 40 -166 95c-10 19 -14 40 -14 63c0 131 110 175 244 175h63v30c0 51 -26 81 -78 81c-44 0 -76 -22 -76 -64h-141c0 53 28 92 61 118c38 31 94 50 164 50
c97 0 164 -37 196 -105c10 -23 16 -50 16 -81v-224zM270 159c0 -37 30 -61 70 -61c45 0 79 22 96 51v91h-58c-61 0 -108 -22 -108 -81zM425 703c25 0 42 20 42 47l82 -6c0 -58 -29 -99 -67 -119c-14 -7 -28 -11 -44 -11c-46 0 -69 22 -100 36c-10 4 -22 6 -34 6
c-26 0 -41 -20 -41 -47l-82 5c0 57 28 101 66 121c14 7 28 10 44 10c27 0 48 -12 68 -21c19 -10 39 -21 66 -21z" />
    <glyph glyph-name="adieresis" unicode="&#xe4;" horiz-adv-x="727" 
d="M578 128c0 -49 6 -87 21 -120v-8h-143c-7 13 -12 28 -14 47c-29 -33 -72 -57 -133 -57c-82 0 -140 40 -166 95c-10 19 -14 40 -14 63c0 131 110 175 244 175h63v30c0 51 -26 81 -78 81c-44 0 -76 -22 -76 -64h-141c0 53 28 92 61 118c38 31 94 50 164 50
c97 0 164 -37 196 -105c10 -23 16 -50 16 -81v-224zM270 159c0 -37 30 -61 70 -61c45 0 79 22 96 51v91h-58c-61 0 -108 -22 -108 -81zM246 605c-40 0 -68 23 -68 62c0 38 29 62 68 62c37 0 67 -25 67 -62c0 -38 -29 -62 -67 -62zM484 604c-39 0 -68 25 -68 63s29 62 68 62
c37 0 67 -25 67 -62c0 -38 -30 -63 -67 -63z" />
    <glyph glyph-name="aring" unicode="&#xe5;" horiz-adv-x="727" 
d="M578 128c0 -49 6 -87 21 -120v-8h-143c-7 13 -12 28 -14 47c-29 -33 -72 -57 -133 -57c-82 0 -140 40 -166 95c-10 19 -14 40 -14 63c0 131 110 175 244 175h63v30c0 51 -26 81 -78 81c-44 0 -76 -22 -76 -64h-141c0 53 28 92 61 118c38 31 94 50 164 50
c97 0 164 -37 196 -105c10 -23 16 -50 16 -81v-224zM270 159c0 -37 30 -61 70 -61c45 0 79 22 96 51v91h-58c-61 0 -108 -22 -108 -81zM257 693c0 48 31 78 66 92c13 5 27 8 43 8c49 0 85 -27 101 -61c5 -13 8 -26 8 -39c0 -48 -31 -77 -66 -90c-14 -5 -28 -8 -43 -8
c-50 0 -85 26 -101 60c-6 11 -8 24 -8 38zM366 746c-32 0 -53 -22 -53 -53c0 -29 22 -52 53 -52c30 0 53 22 53 52c0 31 -22 53 -53 53z" />
    <glyph glyph-name="ae" unicode="&#xe6;" horiz-adv-x="1035" 
d="M901 49c-46 -35 -116 -59 -198 -59c-84 0 -146 28 -188 72c-40 -44 -106 -72 -192 -72c-91 0 -155 34 -183 98c-8 20 -13 43 -13 68c0 120 109 161 242 161h80v28c0 49 -27 79 -77 79c-39 0 -67 -12 -81 -37c-4 -7 -6 -15 -6 -23l-141 9c0 55 29 93 63 118
c40 29 97 47 166 47c70 0 125 -19 160 -54c39 33 90 55 159 54c111 0 179 -56 207 -140c10 -29 15 -62 15 -99v-79h-326c6 -73 50 -116 131 -116c62 0 103 17 144 37zM268 154c0 -43 34 -60 81 -60c43 0 77 18 100 39v92h-79c-45 0 -79 -16 -95 -45c-4 -9 -7 -17 -7 -26z
M775 328c0 58 -25 96 -83 96c-68 0 -95 -49 -103 -110h186v14z" />
    <glyph glyph-name="ccedilla" unicode="&#xe7;" horiz-adv-x="712" 
d="M269 257c0 -83 17 -153 101 -153c52 0 86 29 89 79h132c0 -61 -30 -108 -64 -138c-36 -32 -90 -55 -155 -55c-125 0 -200 67 -229 163c-10 32 -15 67 -15 104v14c0 122 50 208 136 247c30 13 66 20 107 20c103 0 172 -47 203 -120c11 -26 17 -55 17 -86h-132
c0 54 -36 92 -90 92c-82 0 -100 -71 -100 -153v-14zM370 -104c0 33 -33 35 -69 38l15 69h105l-5 -28c42 -6 73 -34 73 -84c0 -63 -45 -95 -97 -109c-21 -5 -45 -8 -73 -8l-4 82c30 0 55 10 55 40z" />
    <glyph glyph-name="egrave" unicode="&#xe8;" horiz-adv-x="731" 
d="M599 85c-41 -56 -109 -95 -206 -95c-127 0 -209 65 -244 157c-12 31 -18 64 -18 99v19c0 125 56 214 144 253c30 13 65 20 103 20c118 0 189 -62 218 -153c10 -32 15 -68 15 -107v-60h-337c6 -53 36 -89 79 -105c14 -6 31 -9 50 -9c58 0 99 23 127 59zM472 326
c0 61 -34 98 -95 98c-66 0 -94 -51 -101 -110h196v12zM432 599h-116l-135 151h154z" />
    <glyph glyph-name="eacute" unicode="&#xe9;" horiz-adv-x="731" 
d="M599 85c-41 -56 -109 -95 -206 -95c-127 0 -209 65 -244 157c-12 31 -18 64 -18 99v19c0 125 56 214 144 253c30 13 65 20 103 20c118 0 189 -62 218 -153c10 -32 15 -68 15 -107v-60h-337c6 -53 36 -89 79 -105c14 -6 31 -9 50 -9c58 0 99 23 127 59zM472 326
c0 61 -34 98 -95 98c-66 0 -94 -51 -101 -110h196v12zM390 750h153l-135 -151h-115z" />
    <glyph glyph-name="ecircumflex" unicode="&#xea;" horiz-adv-x="731" 
d="M599 85c-41 -56 -109 -95 -206 -95c-127 0 -209 65 -244 157c-12 31 -18 64 -18 99v19c0 125 56 214 144 253c30 13 65 20 103 20c118 0 189 -62 218 -153c10 -32 15 -68 15 -107v-60h-337c6 -53 36 -89 79 -105c14 -6 31 -9 50 -9c58 0 99 23 127 59zM472 326
c0 61 -34 98 -95 98c-66 0 -94 -51 -101 -110h196v12zM549 613v-6h-112l-75 71l-76 -71h-110v8l145 135h82z" />
    <glyph glyph-name="edieresis" unicode="&#xeb;" horiz-adv-x="731" 
d="M599 85c-41 -56 -109 -95 -206 -95c-127 0 -209 65 -244 157c-12 31 -18 64 -18 99v19c0 125 56 214 144 253c30 13 65 20 103 20c118 0 189 -62 218 -153c10 -32 15 -68 15 -107v-60h-337c6 -53 36 -89 79 -105c14 -6 31 -9 50 -9c58 0 99 23 127 59zM472 326
c0 61 -34 98 -95 98c-66 0 -94 -51 -101 -110h196v12zM242 605c-40 0 -68 23 -68 62c0 38 29 62 68 62c37 0 67 -25 67 -62c0 -38 -29 -62 -67 -62zM480 604c-39 0 -68 25 -68 63s29 62 68 62c37 0 67 -25 67 -62c0 -38 -30 -63 -67 -63z" />
    <glyph glyph-name="igrave" unicode="&#xec;" horiz-adv-x="464" 
d="M303 0h-142v528h142v-528zM304 592h-116l-135 151h154z" />
    <glyph glyph-name="iacute" unicode="&#xed;" horiz-adv-x="464" 
d="M303 0h-142v528h142v-528zM262 743h153l-135 -151h-115z" />
    <glyph glyph-name="icircumflex" unicode="&#xee;" horiz-adv-x="464" 
d="M303 0h-142v528h142v-528zM421 606v-6h-112l-75 71l-76 -71h-110v8l145 135h82z" />
    <glyph glyph-name="idieresis" unicode="&#xef;" horiz-adv-x="464" 
d="M303 0h-142v528h142v-528zM114 598c-40 0 -68 23 -68 62c0 38 29 62 68 62c37 0 67 -25 67 -62c0 -38 -29 -62 -67 -62zM352 597c-39 0 -68 25 -68 63s29 62 68 62c37 0 67 -25 67 -62c0 -38 -30 -63 -67 -63z" />
    <glyph glyph-name="eth" unicode="&#xf0;" horiz-adv-x="766" 
d="M339 607c-38 24 -83 42 -129 55l44 109c77 -15 145 -45 203 -88l84 53l37 -55l-67 -44c72 -75 125 -178 125 -320v-35c0 -133 -61 -228 -153 -270c-31 -15 -64 -22 -100 -22c-118 0 -194 62 -228 146c-12 29 -18 60 -18 93c0 113 47 191 127 226c27 11 58 17 94 17
c48 0 88 -16 119 -37c-18 53 -45 94 -81 129l-93 -60l-39 56zM389 364c-78 0 -111 -56 -111 -135c0 -56 23 -96 61 -115c13 -7 28 -10 46 -10c81 0 109 81 109 164v56c-21 25 -57 40 -105 40z" />
    <glyph glyph-name="ntilde" unicode="&#xf1;" horiz-adv-x="751" 
d="M378 423c-45 0 -73 -22 -90 -50v-373h-141v528h133l4 -61c32 41 82 71 152 71c121 0 167 -78 167 -202v-336h-141v337c0 60 -25 86 -84 86zM437 703c25 0 42 20 42 47l82 -6c0 -58 -29 -99 -67 -119c-14 -7 -28 -11 -44 -11c-46 0 -69 22 -100 36c-10 4 -22 6 -34 6
c-26 0 -41 -20 -41 -47l-82 5c0 57 28 101 66 121c14 7 28 10 44 10c27 0 48 -12 68 -21c19 -10 39 -21 66 -21z" />
    <glyph glyph-name="ograve" unicode="&#xf2;" horiz-adv-x="756" 
d="M128 269c0 125 55 210 143 249c31 13 67 20 107 20c125 0 202 -68 234 -162c11 -33 17 -68 17 -107v-10c0 -125 -56 -210 -144 -248c-31 -14 -66 -21 -106 -21c-126 0 -203 68 -235 162c-11 33 -16 68 -16 107v10zM488 269c0 83 -28 155 -110 155s-109 -73 -109 -155v-10
c0 -84 26 -155 110 -155c82 0 109 72 109 155v10zM448 599h-116l-135 151h154z" />
    <glyph glyph-name="oacute" unicode="&#xf3;" horiz-adv-x="756" 
d="M128 269c0 125 55 210 143 249c31 13 67 20 107 20c125 0 202 -68 234 -162c11 -33 17 -68 17 -107v-10c0 -125 -56 -210 -144 -248c-31 -14 -66 -21 -106 -21c-126 0 -203 68 -235 162c-11 33 -16 68 -16 107v10zM488 269c0 83 -28 155 -110 155s-109 -73 -109 -155v-10
c0 -84 26 -155 110 -155c82 0 109 72 109 155v10zM406 750h153l-135 -151h-115z" />
    <glyph glyph-name="ocircumflex" unicode="&#xf4;" horiz-adv-x="756" 
d="M128 269c0 125 55 210 143 249c31 13 67 20 107 20c125 0 202 -68 234 -162c11 -33 17 -68 17 -107v-10c0 -125 -56 -210 -144 -248c-31 -14 -66 -21 -106 -21c-126 0 -203 68 -235 162c-11 33 -16 68 -16 107v10zM488 269c0 83 -28 155 -110 155s-109 -73 -109 -155v-10
c0 -84 26 -155 110 -155c82 0 109 72 109 155v10zM565 613v-6h-112l-75 71l-76 -71h-110v8l145 135h82z" />
    <glyph glyph-name="otilde" unicode="&#xf5;" horiz-adv-x="756" 
d="M128 269c0 125 55 210 143 249c31 13 67 20 107 20c125 0 202 -68 234 -162c11 -33 17 -68 17 -107v-10c0 -125 -56 -210 -144 -248c-31 -14 -66 -21 -106 -21c-126 0 -203 68 -235 162c-11 33 -16 68 -16 107v10zM488 269c0 83 -28 155 -110 155s-109 -73 -109 -155v-10
c0 -84 26 -155 110 -155c82 0 109 72 109 155v10zM437 703c25 0 42 20 42 47l82 -6c0 -58 -29 -99 -67 -119c-14 -7 -28 -11 -44 -11c-46 0 -69 22 -100 36c-10 4 -22 6 -34 6c-26 0 -41 -20 -41 -47l-82 5c0 57 28 101 66 121c14 7 28 10 44 10c27 0 48 -12 68 -21
c19 -10 39 -21 66 -21z" />
    <glyph glyph-name="odieresis" unicode="&#xf6;" horiz-adv-x="756" 
d="M128 269c0 125 55 210 143 249c31 13 67 20 107 20c125 0 202 -68 234 -162c11 -33 17 -68 17 -107v-10c0 -125 -56 -210 -144 -248c-31 -14 -66 -21 -106 -21c-126 0 -203 68 -235 162c-11 33 -16 68 -16 107v10zM488 269c0 83 -28 155 -110 155s-109 -73 -109 -155v-10
c0 -84 26 -155 110 -155c82 0 109 72 109 155v10zM258 605c-40 0 -68 23 -68 62c0 38 29 62 68 62c37 0 67 -25 67 -62c0 -38 -29 -62 -67 -62zM496 604c-39 0 -68 25 -68 63s29 62 68 62c37 0 67 -25 67 -62c0 -38 -30 -63 -67 -63z" />
    <glyph glyph-name="divide" unicode="&#xf7;" horiz-adv-x="761" 
d="M629 279h-502v112h502v-112zM378 458c-48 0 -79 27 -79 74s31 74 79 74c47 0 80 -27 80 -74s-33 -74 -80 -74zM378 62c-48 0 -79 26 -79 73s31 74 79 74c47 0 80 -27 80 -74s-34 -73 -80 -73z" />
    <glyph glyph-name="oslash" unicode="&#xf8;" horiz-adv-x="755" 
d="M229 34c-63 44 -101 122 -101 225v10c0 125 55 210 143 248c31 14 67 21 107 21c32 0 63 -5 91 -14l34 70h78l-50 -103c59 -45 98 -121 98 -222v-10c0 -125 -56 -210 -144 -248c-31 -14 -66 -21 -106 -21c-31 0 -60 4 -86 13l-35 -72h-79zM269 259c0 -40 7 -75 20 -102
l127 260c-12 5 -25 7 -38 7c-82 0 -109 -73 -109 -155v-10zM379 104c82 0 109 72 109 155v10c0 38 -7 69 -18 96l-125 -256c10 -3 21 -5 34 -5z" />
    <glyph glyph-name="ugrave" unicode="&#xf9;" horiz-adv-x="750" 
d="M363 104c49 0 81 19 99 50v374h141v-528h-132l-4 54c-32 -38 -78 -64 -145 -64c-121 0 -175 74 -175 197v341h141v-342c0 -52 23 -82 75 -82zM446 599h-116l-135 151h154z" />
    <glyph glyph-name="uacute" unicode="&#xfa;" horiz-adv-x="750" 
d="M363 104c49 0 81 19 99 50v374h141v-528h-132l-4 54c-32 -38 -78 -64 -145 -64c-121 0 -175 74 -175 197v341h141v-342c0 -52 23 -82 75 -82zM404 750h153l-135 -151h-115z" />
    <glyph glyph-name="ucircumflex" unicode="&#xfb;" horiz-adv-x="750" 
d="M363 104c49 0 81 19 99 50v374h141v-528h-132l-4 54c-32 -38 -78 -64 -145 -64c-121 0 -175 74 -175 197v341h141v-342c0 -52 23 -82 75 -82zM563 613v-6h-112l-75 71l-76 -71h-110v8l145 135h82z" />
    <glyph glyph-name="udieresis" unicode="&#xfc;" horiz-adv-x="750" 
d="M363 104c49 0 81 19 99 50v374h141v-528h-132l-4 54c-32 -38 -78 -64 -145 -64c-121 0 -175 74 -175 197v341h141v-342c0 -52 23 -82 75 -82zM256 605c-40 0 -68 23 -68 62c0 38 29 62 68 62c37 0 67 -25 67 -62c0 -38 -29 -62 -67 -62zM494 604c-39 0 -68 25 -68 63
s29 62 68 62c37 0 67 -25 67 -62c0 -38 -30 -63 -67 -63z" />
    <glyph glyph-name="yacute" unicode="&#xfd;" horiz-adv-x="692" 
d="M154 -97c6 0 14 -1 21 -1c52 0 78 18 92 57l16 40l-186 529h152l98 -328l98 328h151l-211 -607c-26 -72 -70 -134 -169 -134c-25 0 -45 2 -62 9v107zM379 750h153l-135 -151h-115z" />
    <glyph glyph-name="thorn" unicode="&#xfe;" horiz-adv-x="758" 
d="M293 483c28 33 68 55 128 55c111 0 168 -69 192 -158c9 -33 14 -70 14 -110v-11c0 -118 -41 -207 -118 -248c-26 -14 -55 -21 -87 -21c-60 0 -101 22 -129 55v-45h-1v-203h-141v953h142v-267zM385 104c78 0 101 76 101 155v11c0 79 -24 153 -102 153
c-46 0 -76 -19 -91 -49v-219c16 -32 43 -51 92 -51z" />
    <glyph glyph-name="ydieresis" unicode="&#xff;" horiz-adv-x="692" 
d="M154 -97c6 0 14 -1 21 -1c52 0 78 18 92 57l16 40l-186 529h152l98 -328l98 328h151l-211 -607c-26 -72 -70 -134 -169 -134c-25 0 -45 2 -62 9v107zM230 605c-40 0 -68 23 -68 62c0 38 29 62 68 62c37 0 67 -25 67 -62c0 -38 -29 -62 -67 -62zM468 604
c-39 0 -68 25 -68 63s29 62 68 62c37 0 67 -25 67 -62c0 -38 -30 -63 -67 -63z" />
    <glyph glyph-name="Amacron" unicode="&#x100;" 
d="M561 146h-257l-49 -146h-156l265 711h136l266 -711h-156zM344 265h177l-89 266zM613 780h-357v81h357v-81z" />
    <glyph glyph-name="amacron" unicode="&#x101;" horiz-adv-x="727" 
d="M578 128c0 -49 6 -87 21 -120v-8h-143c-7 13 -12 28 -14 47c-29 -33 -72 -57 -133 -57c-82 0 -140 40 -166 95c-10 19 -14 40 -14 63c0 131 110 175 244 175h63v30c0 51 -26 81 -78 81c-44 0 -76 -22 -76 -64h-141c0 53 28 92 61 118c38 31 94 50 164 50
c97 0 164 -37 196 -105c10 -23 16 -50 16 -81v-224zM270 159c0 -37 30 -61 70 -61c45 0 79 22 96 51v91h-58c-61 0 -108 -22 -108 -81zM545 630h-357v81h357v-81z" />
    <glyph glyph-name="Abreve" unicode="&#x102;" 
d="M561 146h-257l-49 -146h-156l265 711h136l266 -711h-156zM344 265h177l-89 266zM435 832c42 0 68 23 68 64h101c0 -73 -45 -115 -100 -134c-21 -7 -44 -11 -69 -11c-78 0 -135 33 -158 87c-8 17 -11 37 -11 58h100c0 -43 25 -64 69 -64z" />
    <glyph glyph-name="abreve" unicode="&#x103;" horiz-adv-x="727" 
d="M578 128c0 -49 6 -87 21 -120v-8h-143c-7 13 -12 28 -14 47c-29 -33 -72 -57 -133 -57c-82 0 -140 40 -166 95c-10 19 -14 40 -14 63c0 131 110 175 244 175h63v30c0 51 -26 81 -78 81c-44 0 -76 -22 -76 -64h-141c0 53 28 92 61 118c38 31 94 50 164 50
c97 0 164 -37 196 -105c10 -23 16 -50 16 -81v-224zM270 159c0 -37 30 -61 70 -61c45 0 79 22 96 51v91h-58c-61 0 -108 -22 -108 -81zM366 681c42 0 68 23 68 64h101c0 -73 -45 -115 -100 -134c-21 -7 -44 -11 -69 -11c-78 0 -135 33 -158 87c-8 17 -11 37 -11 58h100
c0 -43 25 -64 69 -64z" />
    <glyph glyph-name="Aogonek" unicode="&#x104;" 
d="M544 -104c0 52 26 84 64 109l-47 141h-257l-49 -146h-156l265 711h136l266 -711h-41c-24 -14 -43 -28 -56 -41s-19 -28 -19 -45c0 -21 9 -32 32 -32c17 0 27 5 39 10l14 -77c-20 -11 -46 -21 -80 -21c-66 0 -111 36 -111 102zM344 265h177l-89 266z" />
    <glyph glyph-name="aogonek" unicode="&#x105;" horiz-adv-x="727" 
d="M394 -104c0 51 25 81 60 106c-5 13 -9 28 -12 45c-29 -33 -72 -57 -134 -57c-81 0 -139 40 -166 95c-9 19 -14 40 -14 63c0 131 111 175 244 175h63v30c0 51 -25 81 -78 81c-43 0 -76 -22 -76 -64h-141c0 53 29 92 61 118c39 31 95 50 165 50c97 0 164 -37 196 -105
c10 -23 16 -50 16 -81v-224c0 -49 6 -87 21 -120v-8h-24c-24 -14 -43 -28 -56 -41s-19 -28 -19 -45c0 -21 10 -32 33 -32c17 0 27 5 39 10l14 -77c-21 -12 -46 -21 -81 -21c-66 0 -111 36 -111 102zM269 159c0 -37 31 -61 70 -61c46 0 80 22 96 51v91h-58
c-60 0 -108 -22 -108 -81z" />
    <glyph glyph-name="Cacute" unicode="&#x106;" horiz-adv-x="845" 
d="M431 110c91 0 134 42 140 127h147c-9 -119 -74 -194 -170 -228c-34 -13 -73 -19 -117 -19c-150 0 -236 84 -273 200c-14 42 -20 89 -20 142v46c0 158 63 271 173 319c36 16 77 24 122 24c172 0 268 -96 286 -251h-147c-6 86 -47 131 -139 131c-116 0 -147 -94 -147 -222
v-47c0 -121 25 -222 145 -222zM461 905h153l-135 -151h-115z" />
    <glyph glyph-name="cacute" unicode="&#x107;" horiz-adv-x="712" 
d="M269 257c0 -83 17 -153 101 -153c52 0 86 29 89 79h132c0 -61 -30 -108 -64 -138c-36 -32 -90 -55 -155 -55c-125 0 -200 67 -229 163c-10 32 -15 67 -15 104v14c0 122 50 208 136 247c30 13 66 20 107 20c103 0 172 -47 203 -120c11 -26 17 -55 17 -86h-132
c0 54 -36 92 -90 92c-82 0 -100 -71 -100 -153v-14zM386 750h153l-135 -151h-115z" />
    <glyph glyph-name="Ccircumflex" unicode="&#x108;" horiz-adv-x="845" 
d="M431 110c91 0 134 42 140 127h147c-9 -119 -74 -194 -170 -228c-34 -13 -73 -19 -117 -19c-150 0 -236 84 -273 200c-14 42 -20 89 -20 142v46c0 158 63 271 173 319c36 16 77 24 122 24c172 0 268 -96 286 -251h-147c-6 86 -47 131 -139 131c-116 0 -147 -94 -147 -222
v-47c0 -121 25 -222 145 -222zM619 768v-6h-112l-75 71l-76 -71h-110v8l145 135h82z" />
    <glyph glyph-name="ccircumflex" unicode="&#x109;" horiz-adv-x="712" 
d="M269 257c0 -83 17 -153 101 -153c52 0 86 29 89 79h132c0 -61 -30 -108 -64 -138c-36 -32 -90 -55 -155 -55c-125 0 -200 67 -229 163c-10 32 -15 67 -15 104v14c0 122 50 208 136 247c30 13 66 20 107 20c103 0 172 -47 203 -120c11 -26 17 -55 17 -86h-132
c0 54 -36 92 -90 92c-82 0 -100 -71 -100 -153v-14zM544 613v-6h-112l-75 71l-76 -71h-110v8l145 135h82z" />
    <glyph glyph-name="uni010A" unicode="&#x10a;" horiz-adv-x="845" 
d="M431 110c91 0 134 42 140 127h147c-9 -119 -74 -194 -170 -228c-34 -13 -73 -19 -117 -19c-150 0 -236 84 -273 200c-14 42 -20 89 -20 142v46c0 158 63 271 173 319c36 16 77 24 122 24c172 0 268 -96 286 -251h-147c-6 86 -47 131 -139 131c-116 0 -147 -94 -147 -222
v-47c0 -121 25 -222 145 -222zM432 768c-42 0 -72 27 -72 67c0 42 29 67 72 67c42 0 72 -26 72 -67s-30 -67 -72 -67z" />
    <glyph glyph-name="uni010B" unicode="&#x10b;" horiz-adv-x="712" 
d="M269 257c0 -83 17 -153 101 -153c52 0 86 29 89 79h132c0 -61 -30 -108 -64 -138c-36 -32 -90 -55 -155 -55c-125 0 -200 67 -229 163c-10 32 -15 67 -15 104v14c0 122 50 208 136 247c30 13 66 20 107 20c103 0 172 -47 203 -120c11 -26 17 -55 17 -86h-132
c0 54 -36 92 -90 92c-82 0 -100 -71 -100 -153v-14zM356 612c-42 0 -72 27 -72 67c0 42 29 67 72 67c42 0 72 -26 72 -67s-30 -67 -72 -67z" />
    <glyph glyph-name="Ccaron" unicode="&#x10c;" horiz-adv-x="845" 
d="M431 110c91 0 134 42 140 127h147c-9 -119 -74 -194 -170 -228c-34 -13 -73 -19 -117 -19c-150 0 -236 84 -273 200c-14 42 -20 89 -20 142v46c0 158 63 271 173 319c36 16 77 24 122 24c172 0 268 -96 286 -251h-147c-6 86 -47 131 -139 131c-116 0 -147 -94 -147 -222
v-47c0 -121 25 -222 145 -222zM432 836l71 69h121v-5l-148 -137h-89l-147 138v4h120z" />
    <glyph glyph-name="ccaron" unicode="&#x10d;" horiz-adv-x="712" 
d="M269 257c0 -83 17 -153 101 -153c52 0 86 29 89 79h132c0 -61 -30 -108 -64 -138c-36 -32 -90 -55 -155 -55c-125 0 -200 67 -229 163c-10 32 -15 67 -15 104v14c0 122 50 208 136 247c30 13 66 20 107 20c103 0 172 -47 203 -120c11 -26 17 -55 17 -86h-132
c0 54 -36 92 -90 92c-82 0 -100 -71 -100 -153v-14zM357 681l71 69h121v-5l-148 -137h-89l-147 138v4h120z" />
    <glyph glyph-name="Dcaron" unicode="&#x10e;" horiz-adv-x="840" 
d="M159 0v711h219c158 0 256 -85 301 -201c16 -42 24 -88 24 -139v-32c0 -161 -79 -267 -194 -314c-40 -17 -84 -25 -132 -25h-218zM554 372c0 132 -51 220 -176 220h-72v-474h71c125 0 177 90 177 221v33zM353 834l71 69h121v-5l-148 -137h-89l-147 138v4h120z" />
    <glyph glyph-name="dcaron" unicode="&#x10f;" horiz-adv-x="827" 
d="M470 56c-31 -38 -72 -66 -136 -66c-72 0 -120 34 -152 77c-34 45 -54 112 -54 191v10c0 119 40 211 119 251c26 13 55 19 88 19c59 0 98 -24 128 -58v270h141v-750h-127zM463 368c-17 33 -45 55 -92 55c-80 0 -102 -75 -102 -155v-10c0 -80 22 -154 101 -154
c47 0 76 23 93 56v208zM656 531c23 39 44 81 44 143v76h112v-76c0 -38 -13 -71 -26 -98c-16 -32 -39 -61 -63 -83z" />
    <glyph glyph-name="Dcroat" unicode="&#x110;" horiz-adv-x="855" 
d="M174 0v313h-73v90h73v308h219c157 0 256 -86 301 -201c16 -42 24 -88 24 -139v-32c0 -160 -80 -268 -194 -314c-40 -17 -85 -25 -133 -25h-217zM569 372c0 131 -52 220 -176 220h-72v-189h121v-90h-121v-195h70c125 0 178 90 178 221v33z" />
    <glyph glyph-name="dcroat" unicode="&#x111;" horiz-adv-x="769" 
d="M335 538c59 0 98 -24 127 -58v115h-123v90h123v65h141v-65h77v-90h-77v-595h-127l-7 56c-30 -38 -71 -66 -136 -66c-71 0 -119 34 -151 76c-34 46 -55 113 -55 192v10c0 119 41 211 120 251c26 13 55 19 88 19zM462 368c-16 33 -44 55 -92 55c-79 0 -102 -75 -102 -155
v-10c0 -80 23 -154 101 -154c48 0 77 23 93 56v208z" />
    <glyph glyph-name="Emacron" unicode="&#x112;" horiz-adv-x="753" 
d="M587 308h-281v-190h330v-118h-477v711h476v-119h-329v-169h281v-115zM586 782h-357v81h357v-81z" />
    <glyph glyph-name="emacron" unicode="&#x113;" horiz-adv-x="731" 
d="M599 85c-41 -56 -109 -95 -206 -95c-127 0 -209 65 -244 157c-12 31 -18 64 -18 99v19c0 125 56 214 144 253c30 13 65 20 103 20c118 0 189 -62 218 -153c10 -32 15 -68 15 -107v-60h-337c6 -53 36 -89 79 -105c14 -6 31 -9 50 -9c58 0 99 23 127 59zM472 326
c0 61 -34 98 -95 98c-66 0 -94 -51 -101 -110h196v12zM541 630h-357v81h357v-81z" />
    <glyph glyph-name="Ebreve" unicode="&#x114;" horiz-adv-x="753" 
d="M587 308h-281v-190h330v-118h-477v711h476v-119h-329v-169h281v-115zM407 834c42 0 68 23 68 64h101c0 -73 -45 -115 -100 -134c-21 -7 -44 -11 -69 -11c-78 0 -135 33 -158 87c-8 17 -11 37 -11 58h100c0 -43 25 -64 69 -64z" />
    <glyph glyph-name="ebreve" unicode="&#x115;" horiz-adv-x="731" 
d="M599 85c-41 -56 -109 -95 -206 -95c-127 0 -209 65 -244 157c-12 31 -18 64 -18 99v19c0 125 56 214 144 253c30 13 65 20 103 20c118 0 189 -62 218 -153c10 -32 15 -68 15 -107v-60h-337c6 -53 36 -89 79 -105c14 -6 31 -9 50 -9c58 0 99 23 127 59zM472 326
c0 61 -34 98 -95 98c-66 0 -94 -51 -101 -110h196v12zM362 681c42 0 68 23 68 64h101c0 -73 -45 -115 -100 -134c-21 -7 -44 -11 -69 -11c-78 0 -135 33 -158 87c-8 17 -11 37 -11 58h100c0 -43 25 -64 69 -64z" />
    <glyph glyph-name="Edotaccent" unicode="&#x116;" horiz-adv-x="753" 
d="M587 308h-281v-190h330v-118h-477v711h476v-119h-329v-169h281v-115zM406 765c-42 0 -72 27 -72 67c0 42 29 67 72 67c42 0 72 -26 72 -67s-30 -67 -72 -67z" />
    <glyph glyph-name="edotaccent" unicode="&#x117;" horiz-adv-x="731" 
d="M599 85c-41 -56 -109 -95 -206 -95c-127 0 -209 65 -244 157c-12 31 -18 64 -18 99v19c0 125 56 214 144 253c30 13 65 20 103 20c118 0 189 -62 218 -153c10 -32 15 -68 15 -107v-60h-337c6 -53 36 -89 79 -105c14 -6 31 -9 50 -9c58 0 99 23 127 59zM472 326
c0 61 -34 98 -95 98c-66 0 -94 -51 -101 -110h196v12zM361 612c-42 0 -72 27 -72 67c0 42 29 67 72 67c42 0 72 -26 72 -67s-30 -67 -72 -67z" />
    <glyph glyph-name="Eogonek" unicode="&#x118;" horiz-adv-x="753" 
d="M381 -104c0 48 23 80 56 104h-278v711h476v-119h-329v-169h281v-115h-281v-190h330v-118h-74c-24 -14 -43 -28 -56 -41s-19 -28 -19 -45c0 -21 9 -32 32 -32c17 0 27 5 39 10l14 -77c-20 -11 -46 -21 -80 -21c-66 0 -111 36 -111 102z" />
    <glyph glyph-name="eogonek" unicode="&#x119;" horiz-adv-x="731" 
d="M403 104c58 0 99 23 127 59l69 -78c-21 -30 -50 -53 -86 -70c-24 -14 -43 -27 -56 -40s-19 -29 -19 -46c0 -21 10 -32 33 -32c17 0 27 5 39 10l14 -76c-21 -12 -46 -22 -81 -22c-66 0 -111 36 -111 102c0 35 12 60 31 81c-111 10 -186 71 -217 160c-10 29 -16 61 -16 94
v19c0 125 57 214 145 253c30 13 64 20 102 20c119 0 190 -62 219 -153c10 -32 15 -68 15 -107v-60h-337c6 -53 36 -89 78 -105c15 -6 32 -9 51 -9zM472 326c0 61 -34 98 -96 98c-65 0 -93 -51 -100 -110h196v12z" />
    <glyph glyph-name="Ecaron" unicode="&#x11a;" horiz-adv-x="753" 
d="M587 308h-281v-190h330v-118h-477v711h476v-119h-329v-169h281v-115zM406 834l71 69h121v-5l-148 -137h-89l-147 138v4h120z" />
    <glyph glyph-name="ecaron" unicode="&#x11b;" horiz-adv-x="731" 
d="M599 85c-41 -56 -109 -95 -206 -95c-127 0 -209 65 -244 157c-12 31 -18 64 -18 99v19c0 125 56 214 144 253c30 13 65 20 103 20c118 0 189 -62 218 -153c10 -32 15 -68 15 -107v-60h-337c6 -53 36 -89 79 -105c14 -6 31 -9 50 -9c58 0 99 23 127 59zM472 326
c0 61 -34 98 -95 98c-66 0 -94 -51 -101 -110h196v12zM362 681l71 69h121v-5l-148 -137h-89l-147 138v4h120z" />
    <glyph glyph-name="Gcircumflex" unicode="&#x11c;" horiz-adv-x="872" 
d="M458 108c48 0 95 9 117 35v123h-133v108h280v-284c-56 -64 -150 -100 -272 -100c-154 0 -246 82 -286 198c-15 42 -22 91 -22 146v42c0 162 61 274 175 322c36 15 77 23 123 23c171 0 264 -84 282 -236h-143c-11 73 -51 118 -135 118c-116 0 -153 -99 -153 -226v-43
c0 -132 44 -226 167 -226zM623 768v-6h-112l-75 71l-76 -71h-110v8l145 135h82z" />
    <glyph glyph-name="gcircumflex" unicode="&#x11d;" horiz-adv-x="761" 
d="M471 45c-29 -32 -70 -55 -128 -55c-72 0 -123 34 -156 77c-36 45 -57 111 -57 191v10c0 121 43 211 124 251c26 13 56 19 90 19c63 0 105 -23 135 -59l6 49h128v-510c0 -114 -64 -183 -151 -211c-32 -10 -66 -15 -103 -15c-87 0 -158 34 -197 83l62 86
c29 -33 69 -59 128 -59c73 0 119 41 119 115v28zM471 375c-18 29 -46 48 -91 48c-81 0 -109 -74 -109 -155v-10c0 -65 18 -118 59 -142c14 -8 30 -12 49 -12c46 0 75 19 92 49v222zM554 613v-6h-112l-75 71l-76 -71h-110v8l145 135h82z" />
    <glyph glyph-name="Gbreve" unicode="&#x11e;" horiz-adv-x="872" 
d="M458 108c48 0 95 9 117 35v123h-133v108h280v-284c-56 -64 -150 -100 -272 -100c-154 0 -246 82 -286 198c-15 42 -22 91 -22 146v42c0 162 61 274 175 322c36 15 77 23 123 23c171 0 264 -84 282 -236h-143c-11 73 -51 118 -135 118c-116 0 -153 -99 -153 -226v-43
c0 -132 44 -226 167 -226zM436 836c42 0 68 23 68 64h101c0 -73 -45 -115 -100 -134c-21 -7 -44 -11 -69 -11c-78 0 -135 33 -158 87c-8 17 -11 37 -11 58h100c0 -43 25 -64 69 -64z" />
    <glyph glyph-name="gbreve" unicode="&#x11f;" horiz-adv-x="761" 
d="M471 45c-29 -32 -70 -55 -128 -55c-72 0 -123 34 -156 77c-36 45 -57 111 -57 191v10c0 121 43 211 124 251c26 13 56 19 90 19c63 0 105 -23 135 -59l6 49h128v-510c0 -114 -64 -183 -151 -211c-32 -10 -66 -15 -103 -15c-87 0 -158 34 -197 83l62 86
c29 -33 69 -59 128 -59c73 0 119 41 119 115v28zM471 375c-18 29 -46 48 -91 48c-81 0 -109 -74 -109 -155v-10c0 -65 18 -118 59 -142c14 -8 30 -12 49 -12c46 0 75 19 92 49v222zM367 681c42 0 68 23 68 64h101c0 -73 -45 -115 -100 -134c-21 -7 -44 -11 -69 -11
c-78 0 -135 33 -158 87c-8 17 -11 37 -11 58h100c0 -43 25 -64 69 -64z" />
    <glyph glyph-name="uni0120" unicode="&#x120;" horiz-adv-x="872" 
d="M458 108c48 0 95 9 117 35v123h-133v108h280v-284c-56 -64 -150 -100 -272 -100c-154 0 -246 82 -286 198c-15 42 -22 91 -22 146v42c0 162 61 274 175 322c36 15 77 23 123 23c171 0 264 -84 282 -236h-143c-11 73 -51 118 -135 118c-116 0 -153 -99 -153 -226v-43
c0 -132 44 -226 167 -226zM435 768c-42 0 -72 27 -72 67c0 42 29 67 72 67c42 0 72 -26 72 -67s-30 -67 -72 -67z" />
    <glyph glyph-name="uni0121" unicode="&#x121;" horiz-adv-x="761" 
d="M471 45c-29 -32 -70 -55 -128 -55c-72 0 -123 34 -156 77c-36 45 -57 111 -57 191v10c0 121 43 211 124 251c26 13 56 19 90 19c63 0 105 -23 135 -59l6 49h128v-510c0 -114 -64 -183 -151 -211c-32 -10 -66 -15 -103 -15c-87 0 -158 34 -197 83l62 86
c29 -33 69 -59 128 -59c73 0 119 41 119 115v28zM471 375c-18 29 -46 48 -91 48c-81 0 -109 -74 -109 -155v-10c0 -65 18 -118 59 -142c14 -8 30 -12 49 -12c46 0 75 19 92 49v222zM366 612c-42 0 -72 27 -72 67c0 42 29 67 72 67c42 0 72 -26 72 -67s-30 -67 -72 -67z" />
    <glyph glyph-name="Gcommaaccent" unicode="&#x122;" horiz-adv-x="872" 
d="M458 108c48 0 95 9 117 35v123h-133v108h280v-284c-56 -64 -150 -100 -272 -100c-154 0 -246 82 -286 198c-15 42 -22 91 -22 146v42c0 162 61 274 175 322c36 15 77 23 123 23c171 0 264 -84 282 -236h-143c-11 73 -51 118 -135 118c-116 0 -153 -99 -153 -226v-43
c0 -132 44 -226 167 -226zM354 -214c21 34 37 70 37 126v42h104v-35c0 -55 -21 -101 -43 -137c-9 -13 -18 -25 -28 -35z" />
    <glyph glyph-name="gcommaaccent" unicode="&#x123;" horiz-adv-x="761" 
d="M471 45c-29 -32 -70 -55 -128 -55c-72 0 -123 34 -156 77c-36 45 -57 111 -57 191v10c0 121 43 211 124 251c26 13 56 19 90 19c63 0 105 -23 135 -59l6 49h128v-510c0 -114 -64 -183 -151 -211c-32 -10 -66 -15 -103 -15c-87 0 -158 34 -197 83l62 86
c29 -33 69 -59 128 -59c73 0 119 41 119 115v28zM471 375c-18 29 -46 48 -91 48c-81 0 -109 -74 -109 -155v-10c0 -65 18 -118 59 -142c14 -8 30 -12 49 -12c46 0 75 19 92 49v222zM452 802c-18 -31 -33 -76 -33 -126v-61h-110v67c0 71 28 128 70 158z" />
    <glyph glyph-name="Hcircumflex" unicode="&#x124;" horiz-adv-x="897" 
d="M738 0h-146v305h-286v-305h-147v711h147v-288h286v288h146v-711zM636 766v-6h-112l-75 71l-76 -71h-110v8l145 135h82z" />
    <glyph glyph-name="hcircumflex" unicode="&#x125;" horiz-adv-x="750" 
d="M378 423c-45 0 -74 -19 -90 -48v-375h-141v750h141v-279c30 38 75 67 141 67c124 0 174 -78 174 -205v-333h-141v334c0 61 -24 89 -84 89zM539 799v-6h-112l-75 71l-76 -71h-110v8l145 135h82z" />
    <glyph glyph-name="Hbar" unicode="&#x126;" horiz-adv-x="910" 
d="M746 598h59v-85h-59v-513h-147v305h-285v-305h-147v513h-55v85h55v113h147v-113h285v113h147v-113zM314 423h285v90h-285v-90z" />
    <glyph glyph-name="hbar" unicode="&#x127;" horiz-adv-x="765" 
d="M392 423c-45 0 -74 -19 -89 -48v-375h-142v594h-76v89h76v67h142v-67h123v-89h-123v-123c30 38 75 67 141 67c124 0 174 -78 174 -205v-333h-141v334c0 61 -25 89 -85 89z" />
    <glyph glyph-name="Itilde" unicode="&#x128;" horiz-adv-x="482" 
d="M315 0h-146v711h146v-711zM302 855c25 0 42 20 42 47l82 -6c0 -58 -29 -99 -67 -119c-14 -7 -28 -11 -44 -11c-46 0 -69 22 -100 36c-10 4 -22 6 -34 6c-26 0 -41 -20 -41 -47l-82 5c0 57 28 101 66 121c14 7 28 10 44 10c27 0 48 -12 68 -21c19 -10 39 -21 66 -21z" />
    <glyph glyph-name="itilde" unicode="&#x129;" horiz-adv-x="464" 
d="M303 0h-142v528h142v-528zM293 695c25 0 42 20 42 47l82 -6c0 -58 -29 -99 -67 -119c-14 -7 -28 -11 -44 -11c-46 0 -69 22 -100 36c-10 4 -22 6 -34 6c-26 0 -41 -20 -41 -47l-82 5c0 57 28 101 66 121c14 7 28 10 44 10c27 0 48 -12 68 -21c19 -10 39 -21 66 -21z" />
    <glyph glyph-name="Imacron" unicode="&#x12a;" horiz-adv-x="482" 
d="M315 0h-146v711h146v-711zM421 782h-357v81h357v-81z" />
    <glyph glyph-name="imacron" unicode="&#x12b;" horiz-adv-x="464" 
d="M303 0h-142v528h142v-528zM413 622h-357v81h357v-81z" />
    <glyph glyph-name="Ibreve" unicode="&#x12c;" horiz-adv-x="482" 
d="M315 0h-146v711h146v-711zM243 834c42 0 68 23 68 64h101c0 -73 -45 -115 -100 -134c-21 -7 -44 -11 -69 -11c-78 0 -135 33 -158 87c-8 17 -11 37 -11 58h100c0 -43 25 -64 69 -64z" />
    <glyph glyph-name="ibreve" unicode="&#x12d;" horiz-adv-x="464" 
d="M303 0h-142v528h142v-528zM234 674c42 0 68 23 68 64h101c0 -73 -45 -115 -100 -134c-21 -7 -44 -11 -69 -11c-78 0 -135 33 -158 87c-8 17 -11 37 -11 58h100c0 -43 25 -64 69 -64z" />
    <glyph glyph-name="Iogonek" unicode="&#x12e;" horiz-adv-x="482" 
d="M105 -104c0 54 29 85 64 108v707h146v-711h-29c-24 -14 -43 -28 -56 -41s-19 -28 -19 -45c0 -20 10 -32 32 -32c17 0 28 5 40 10l14 -77c-21 -12 -46 -21 -81 -21c-66 0 -111 36 -111 102z" />
    <glyph glyph-name="iogonek" unicode="&#x12f;" horiz-adv-x="456" 
d="M97 -104c0 51 24 82 61 106v526h141v-528h-21c-24 -14 -43 -28 -56 -41s-19 -28 -19 -45c0 -20 10 -32 32 -32c17 0 27 5 39 10l14 -77c-21 -12 -45 -21 -80 -21c-66 0 -111 36 -111 102zM228 592c-47 0 -79 27 -79 73c0 44 33 73 79 73s79 -27 79 -73s-33 -73 -79 -73z
" />
    <glyph glyph-name="Idotaccent" unicode="&#x130;" horiz-adv-x="482" 
d="M315 0h-146v711h146v-711zM241 765c-42 0 -72 27 -72 67c0 42 29 67 72 67c42 0 72 -26 72 -67s-30 -67 -72 -67z" />
    <glyph glyph-name="dotlessi" unicode="&#x131;" horiz-adv-x="464" 
d="M303 0h-142v528h142v-528z" />
    <glyph glyph-name="IJ" unicode="&#x132;" horiz-adv-x="1041" 
d="M315 0h-146v711h146v-711zM646 108c61 0 92 47 92 111v492h147v-492c0 -111 -62 -184 -145 -213c-29 -11 -60 -16 -94 -16c-111 0 -188 44 -221 122c-12 27 -17 60 -17 98h147c0 -66 26 -102 91 -102z" />
    <glyph glyph-name="ij" unicode="&#x133;" horiz-adv-x="715" 
d="M299 0h-141v528h141v-528zM228 592c-47 0 -79 27 -79 73c0 44 33 73 79 73s79 -27 79 -73s-33 -73 -79 -73zM359 -98c43 0 64 24 64 69v557h142v-557c0 -117 -64 -184 -181 -184c-26 0 -48 3 -69 8v112c13 -3 28 -5 44 -5zM491 592c-47 0 -79 27 -79 73c0 45 32 73 79 73
c46 0 79 -28 79 -73c0 -46 -33 -73 -79 -73z" />
    <glyph glyph-name="Jcircumflex" unicode="&#x134;" horiz-adv-x="749" 
d="M354 108c61 0 92 47 92 111v492h147v-492c0 -111 -62 -184 -145 -213c-29 -11 -60 -16 -94 -16c-111 0 -188 44 -221 122c-12 27 -17 60 -17 98h147c0 -66 26 -102 91 -102zM700 764v-6h-112l-75 71l-76 -71h-110v8l145 135h82z" />
    <glyph glyph-name="jcircumflex" unicode="&#x135;" horiz-adv-x="472" 
d="M110 -99c42 0 59 36 59 82v545h141v-545c0 -123 -63 -196 -185 -196c-29 0 -47 2 -70 8l7 112c14 -4 30 -6 48 -6zM418 600v-6h-112l-75 71l-76 -71h-110v8l145 135h82z" />
    <glyph glyph-name="Kcommaaccent" unicode="&#x136;" horiz-adv-x="825" 
d="M382 285l-76 -82v-203h-147v711h147v-322c78 111 163 215 246 322h180l-253 -316l260 -395h-174zM326 -183c21 34 37 70 37 126v42h104v-35c0 -55 -21 -101 -43 -137c-9 -13 -18 -25 -28 -35z" />
    <glyph glyph-name="kcommaaccent" unicode="&#x137;" horiz-adv-x="725" 
d="M342 212l-51 -51v-161h-141v750h141v-416c51 67 108 129 163 194h169l-191 -220l208 -308h-162zM283 -194c21 34 37 70 37 126v42h104v-35c0 -55 -21 -101 -43 -137c-9 -13 -18 -25 -28 -35z" />
    <glyph glyph-name="kgreenlandic" unicode="&#x138;" horiz-adv-x="780" 
d="M358 195h-57v-195h-142v528h142v-198h42l138 198h178l-186 -254l194 -274h-181z" />
    <glyph glyph-name="Lacute" unicode="&#x139;" horiz-adv-x="732" 
d="M306 118h311v-118h-458v711h147v-593zM264 901h153l-135 -151h-115z" />
    <glyph glyph-name="lacute" unicode="&#x13a;" horiz-adv-x="456" 
d="M299 0h-141v750h141v-750zM257 941h153l-135 -151h-115z" />
    <glyph glyph-name="Lcommaaccent" unicode="&#x13b;" horiz-adv-x="732" 
d="M306 118h311v-118h-458v711h147v-593zM301 -208c21 34 37 70 37 126v42h104v-35c0 -55 -21 -101 -43 -137c-9 -13 -18 -25 -28 -35z" />
    <glyph glyph-name="lcommaaccent" unicode="&#x13c;" horiz-adv-x="456" 
d="M299 0h-141v750h141v-750zM140 -208c21 34 37 70 37 126v42h104v-35c0 -55 -21 -101 -43 -137c-9 -13 -18 -25 -28 -35z" />
    <glyph glyph-name="Lcaron" unicode="&#x13d;" horiz-adv-x="732" 
d="M306 118h311v-118h-458v711h147v-593zM413 492c23 39 44 81 44 143v76h112v-76c0 -38 -13 -71 -26 -98c-16 -32 -39 -61 -63 -83z" />
    <glyph glyph-name="lcaron" unicode="&#x13e;" horiz-adv-x="529" 
d="M299 0h-141v750h141v-750zM352 531c23 39 44 81 44 143v76h112v-76c0 -38 -13 -71 -26 -98c-16 -32 -39 -61 -63 -83z" />
    <glyph glyph-name="Ldot" unicode="&#x13f;" horiz-adv-x="732" 
d="M306 118h311v-118h-458v711h147v-593zM457 338c-42 0 -72 27 -72 67c0 42 29 67 72 67c42 0 72 -26 72 -67s-30 -67 -72 -67z" />
    <glyph glyph-name="ldot" unicode="&#x140;" horiz-adv-x="563" 
d="M299 0h-141v750h141v-750zM419 311c-42 0 -72 27 -72 67c0 42 29 67 72 67c42 0 72 -26 72 -67s-30 -67 -72 -67z" />
    <glyph glyph-name="Lslash" unicode="&#x141;" horiz-adv-x="748" 
d="M322 437l106 30v-96l-106 -31v-222h311v-118h-457v298l-65 -19v97l65 19v316h146v-274z" />
    <glyph glyph-name="lslash" unicode="&#x142;" horiz-adv-x="496" 
d="M316 444l70 23v-96l-70 -23v-348h-141v300l-64 -21v97l64 21v353h141v-306z" />
    <glyph glyph-name="Nacute" unicode="&#x143;" horiz-adv-x="897" 
d="M738 0h-147l-285 468v-468h-147v711h147l286 -469v469h146v-711zM479 901h153l-135 -151h-115z" />
    <glyph glyph-name="nacute" unicode="&#x144;" horiz-adv-x="751" 
d="M378 423c-45 0 -73 -22 -90 -50v-373h-141v528h133l4 -61c32 41 82 71 152 71c121 0 167 -78 167 -202v-336h-141v337c0 60 -25 86 -84 86zM406 750h153l-135 -151h-115z" />
    <glyph glyph-name="Ncommaaccent" unicode="&#x145;" horiz-adv-x="897" 
d="M738 0h-147l-285 468v-468h-147v711h147l286 -469v469h146v-711zM361 -212c21 34 37 70 37 126v42h104v-35c0 -55 -21 -101 -43 -137c-9 -13 -18 -25 -28 -35z" />
    <glyph glyph-name="ncommaaccent" unicode="&#x146;" horiz-adv-x="751" 
d="M378 423c-45 0 -73 -22 -90 -50v-373h-141v528h133l4 -61c32 41 82 71 152 71c121 0 167 -78 167 -202v-336h-141v337c0 60 -25 86 -84 86zM287 -208c21 34 37 70 37 126v42h104v-35c0 -55 -21 -101 -43 -137c-9 -13 -18 -25 -28 -35z" />
    <glyph glyph-name="Ncaron" unicode="&#x147;" horiz-adv-x="897" 
d="M738 0h-147l-285 468v-468h-147v711h147l286 -469v469h146v-711zM451 832l71 69h121v-5l-148 -137h-89l-147 138v4h120z" />
    <glyph glyph-name="ncaron" unicode="&#x148;" horiz-adv-x="751" 
d="M378 423c-45 0 -73 -22 -90 -50v-373h-141v528h133l4 -61c32 41 82 71 152 71c121 0 167 -78 167 -202v-336h-141v337c0 60 -25 86 -84 86zM377 681l71 69h121v-5l-148 -137h-89l-147 138v4h120z" />
    <glyph glyph-name="napostrophe" unicode="&#x149;" horiz-adv-x="751" 
d="M378 423c-45 0 -73 -22 -90 -50v-373h-141v528h133l4 -61c32 41 82 71 152 71c121 0 167 -78 167 -202v-336h-141v337c0 60 -25 86 -84 86zM56 531c23 39 44 81 44 143v76h112v-76c0 -38 -13 -71 -26 -98c-16 -32 -39 -61 -63 -83z" />
    <glyph glyph-name="Eng" unicode="&#x14a;" horiz-adv-x="894" 
d="M531 -95c42 0 59 36 59 82v13l-285 479v-479h-147v711h147l285 -478v478h147v-724c0 -125 -65 -200 -189 -200c-29 0 -49 2 -72 8l7 116c14 -4 29 -6 48 -6z" />
    <glyph glyph-name="eng" unicode="&#x14b;" horiz-adv-x="755" 
d="M386 423c-45 0 -77 -16 -96 -42v-381h-141v528h131l6 -74c30 47 78 84 151 84c125 0 170 -87 170 -216v-339c0 -124 -63 -196 -186 -196c-29 0 -47 2 -70 8l7 113c14 -4 31 -6 49 -6c42 0 59 35 59 81v339c0 62 -20 101 -80 101z" />
    <glyph glyph-name="Omacron" unicode="&#x14c;" horiz-adv-x="881" 
d="M743 339c0 -164 -66 -274 -179 -324c-37 -17 -78 -25 -122 -25c-98 0 -171 40 -219 94c-53 58 -85 146 -85 255v32c0 163 67 276 180 326c37 16 78 24 123 24c97 0 169 -40 218 -94c52 -59 84 -146 84 -256v-32zM442 110c114 0 153 104 153 229v33
c0 126 -40 228 -154 228c-115 0 -155 -102 -155 -228v-33c0 -100 25 -180 90 -214c19 -10 41 -15 66 -15zM620 780h-357v81h357v-81z" />
    <glyph glyph-name="omacron" unicode="&#x14d;" horiz-adv-x="756" 
d="M128 269c0 125 55 210 143 249c31 13 67 20 107 20c125 0 202 -68 234 -162c11 -33 17 -68 17 -107v-10c0 -125 -56 -210 -144 -248c-31 -14 -66 -21 -106 -21c-126 0 -203 68 -235 162c-11 33 -16 68 -16 107v10zM488 269c0 83 -28 155 -110 155s-109 -73 -109 -155v-10
c0 -84 26 -155 110 -155c82 0 109 72 109 155v10zM557 630h-357v81h357v-81z" />
    <glyph glyph-name="Obreve" unicode="&#x14e;" horiz-adv-x="881" 
d="M743 339c0 -164 -66 -274 -179 -324c-37 -17 -78 -25 -122 -25c-98 0 -171 40 -219 94c-53 58 -85 146 -85 255v32c0 163 67 276 180 326c37 16 78 24 123 24c97 0 169 -40 218 -94c52 -59 84 -146 84 -256v-32zM442 110c114 0 153 104 153 229v33
c0 126 -40 228 -154 228c-115 0 -155 -102 -155 -228v-33c0 -100 25 -180 90 -214c19 -10 41 -15 66 -15zM442 832c42 0 68 23 68 64h101c0 -73 -45 -115 -100 -134c-21 -7 -44 -11 -69 -11c-78 0 -135 33 -158 87c-8 17 -11 37 -11 58h100c0 -43 25 -64 69 -64z" />
    <glyph glyph-name="obreve" unicode="&#x14f;" horiz-adv-x="756" 
d="M128 269c0 125 55 210 143 249c31 13 67 20 107 20c125 0 202 -68 234 -162c11 -33 17 -68 17 -107v-10c0 -125 -56 -210 -144 -248c-31 -14 -66 -21 -106 -21c-126 0 -203 68 -235 162c-11 33 -16 68 -16 107v10zM488 269c0 83 -28 155 -110 155s-109 -73 -109 -155v-10
c0 -84 26 -155 110 -155c82 0 109 72 109 155v10zM378 681c42 0 68 23 68 64h101c0 -73 -45 -115 -100 -134c-21 -7 -44 -11 -69 -11c-78 0 -135 33 -158 87c-8 17 -11 37 -11 58h100c0 -43 25 -64 69 -64z" />
    <glyph glyph-name="Ohungarumlaut" unicode="&#x150;" horiz-adv-x="881" 
d="M743 339c0 -164 -66 -274 -179 -324c-37 -17 -78 -25 -122 -25c-98 0 -171 40 -219 94c-53 58 -85 146 -85 255v32c0 163 67 276 180 326c37 16 78 24 123 24c97 0 169 -40 218 -94c52 -59 84 -146 84 -256v-32zM442 110c114 0 153 104 153 229v33
c0 126 -40 228 -154 228c-115 0 -155 -102 -155 -228v-33c0 -100 25 -180 90 -214c19 -10 41 -15 66 -15zM574 901h126l-130 -147h-106zM383 901h124l-112 -147h-103z" />
    <glyph glyph-name="ohungarumlaut" unicode="&#x151;" horiz-adv-x="756" 
d="M128 269c0 125 55 210 143 249c31 13 67 20 107 20c125 0 202 -68 234 -162c11 -33 17 -68 17 -107v-10c0 -125 -56 -210 -144 -248c-31 -14 -66 -21 -106 -21c-126 0 -203 68 -235 162c-11 33 -16 68 -16 107v10zM488 269c0 83 -28 155 -110 155s-109 -73 -109 -155v-10
c0 -84 26 -155 110 -155c82 0 109 72 109 155v10zM510 750h126l-130 -147h-106zM319 750h124l-112 -147h-103z" />
    <glyph glyph-name="OE" unicode="&#x152;" horiz-adv-x="1159" 
d="M438 721c48 0 98 -5 141 -10h432v-119h-329v-169h281v-115h-281v-190h330v-118h-433c-44 -5 -91 -10 -140 -10c-93 0 -166 34 -214 81c-49 47 -82 119 -82 210v149c0 139 72 229 174 270c36 14 77 21 121 21zM284 281c0 -107 49 -177 155 -177c33 0 65 2 96 6v490
c-31 4 -64 7 -97 7c-105 0 -154 -70 -154 -176v-150z" />
    <glyph glyph-name="oe" unicode="&#x153;" horiz-adv-x="1092" 
d="M567 63c-41 -43 -100 -73 -182 -73c-124 0 -202 67 -233 162c-10 33 -16 68 -16 107v10c0 125 55 209 142 249c31 13 66 20 106 20c83 0 141 -29 181 -73c38 43 93 74 170 73c114 0 182 -55 211 -140c10 -29 15 -62 15 -99v-79h-320c8 -66 48 -116 122 -116
c64 0 107 14 147 38l39 -92c-48 -37 -116 -60 -200 -60c-81 0 -142 30 -182 73zM384 424c-81 0 -107 -73 -107 -155v-10c0 -84 24 -155 108 -155c83 0 107 72 107 155v10c0 66 -16 118 -58 143c-14 8 -30 12 -50 12zM821 329c0 58 -27 95 -86 95c-61 0 -85 -53 -93 -108h179
v13z" />
    <glyph glyph-name="Racute" unicode="&#x154;" horiz-adv-x="829" 
d="M686 496c0 -110 -52 -164 -127 -199l154 -290v-7h-157l-133 260h-117v-260h-147v711h265c120 0 206 -39 244 -122c12 -27 18 -58 18 -93zM540 484c0 71 -43 108 -116 108h-118v-213h118c70 0 116 35 116 105zM417 901h153l-135 -151h-115z" />
    <glyph glyph-name="racute" unicode="&#x155;" horiz-adv-x="555" 
d="M405 538c13 0 33 -3 44 -6l-2 -136c-15 1 -36 4 -51 4c-55 0 -88 -18 -105 -54v-346h-141v528h134l3 -63c23 40 59 73 118 73zM325 750h153l-135 -151h-115z" />
    <glyph glyph-name="Rcommaaccent" unicode="&#x156;" horiz-adv-x="829" 
d="M686 496c0 -110 -52 -164 -127 -199l154 -290v-7h-157l-133 260h-117v-260h-147v711h265c120 0 206 -39 244 -122c12 -27 18 -58 18 -93zM540 484c0 71 -43 108 -116 108h-118v-213h118c70 0 116 35 116 105zM307 -208c21 34 37 70 37 126v42h104v-35
c0 -55 -21 -101 -43 -137c-9 -13 -18 -25 -28 -35z" />
    <glyph glyph-name="rcommaaccent" unicode="&#x157;" horiz-adv-x="555" 
d="M405 538c13 0 33 -3 44 -6l-2 -136c-15 1 -36 4 -51 4c-55 0 -88 -18 -105 -54v-346h-141v528h134l3 -63c23 40 59 73 118 73zM135 -208c21 34 37 70 37 126v42h104v-35c0 -55 -21 -101 -43 -137c-9 -13 -18 -25 -28 -35z" />
    <glyph glyph-name="Rcaron" unicode="&#x158;" horiz-adv-x="829" 
d="M686 496c0 -110 -52 -164 -127 -199l154 -290v-7h-157l-133 260h-117v-260h-147v711h265c120 0 206 -39 244 -122c12 -27 18 -58 18 -93zM540 484c0 71 -43 108 -116 108h-118v-213h118c70 0 116 35 116 105zM388 832l71 69h121v-5l-148 -137h-89l-147 138v4h120z" />
    <glyph glyph-name="rcaron" unicode="&#x159;" horiz-adv-x="555" 
d="M405 538c13 0 33 -3 44 -6l-2 -136c-15 1 -36 4 -51 4c-55 0 -88 -18 -105 -54v-346h-141v528h134l3 -63c23 40 59 73 118 73zM297 681l71 69h121v-5l-148 -137h-89l-147 138v4h120z" />
    <glyph glyph-name="Sacute" unicode="&#x15a;" horiz-adv-x="805" 
d="M417 106c61 0 111 22 111 81c0 51 -31 68 -69 86c-18 8 -42 16 -70 25c-90 29 -178 66 -219 143c-12 23 -18 50 -18 81c0 104 73 160 156 185c32 9 67 14 106 14c119 0 204 -51 242 -132c12 -27 19 -56 19 -88h-146c0 69 -48 103 -118 103c-62 0 -113 -23 -113 -83
c0 -23 12 -43 36 -58c24 -16 59 -31 105 -45c95 -29 185 -68 221 -152c10 -23 15 -49 15 -78c0 -105 -68 -161 -152 -184c-32 -10 -67 -14 -106 -14c-138 0 -240 59 -276 161c-8 22 -11 46 -11 73h147c0 -86 54 -118 140 -118zM441 901h153l-135 -151h-115z" />
    <glyph glyph-name="sacute" unicode="&#x15b;" horiz-adv-x="705" 
d="M354 90c45 0 82 16 82 56c0 34 -27 44 -54 54c-14 5 -32 9 -54 13c-74 16 -143 43 -174 101c-10 17 -14 37 -14 60c0 51 25 89 56 115c35 30 89 49 155 49c99 0 172 -36 205 -102c10 -21 16 -43 16 -68h-141c0 46 -32 70 -81 70c-42 0 -74 -20 -74 -58
c0 -31 26 -43 51 -51c36 -12 90 -20 126 -32c46 -15 83 -40 105 -78c10 -19 16 -41 16 -67c0 -53 -28 -91 -61 -115c-39 -29 -95 -47 -162 -47c-105 0 -181 44 -213 114c-10 21 -15 43 -15 64h134c2 -53 42 -78 97 -78zM383 750h153l-135 -151h-115z" />
    <glyph glyph-name="Scircumflex" unicode="&#x15c;" horiz-adv-x="805" 
d="M417 106c61 0 111 22 111 81c0 51 -31 68 -69 86c-18 8 -42 16 -70 25c-90 29 -178 66 -219 143c-12 23 -18 50 -18 81c0 104 73 160 156 185c32 9 67 14 106 14c119 0 204 -51 242 -132c12 -27 19 -56 19 -88h-146c0 69 -48 103 -118 103c-62 0 -113 -23 -113 -83
c0 -23 12 -43 36 -58c24 -16 59 -31 105 -45c95 -29 185 -68 221 -152c10 -23 15 -49 15 -78c0 -105 -68 -161 -152 -184c-32 -10 -67 -14 -106 -14c-138 0 -240 59 -276 161c-8 22 -11 46 -11 73h147c0 -86 54 -118 140 -118zM600 764v-6h-112l-75 71l-76 -71h-110v8
l145 135h82z" />
    <glyph glyph-name="scircumflex" unicode="&#x15d;" horiz-adv-x="705" 
d="M354 90c45 0 82 16 82 56c0 34 -27 44 -54 54c-14 5 -32 9 -54 13c-74 16 -143 43 -174 101c-10 17 -14 37 -14 60c0 51 25 89 56 115c35 30 89 49 155 49c99 0 172 -36 205 -102c10 -21 16 -43 16 -68h-141c0 46 -32 70 -81 70c-42 0 -74 -20 -74 -58
c0 -31 26 -43 51 -51c36 -12 90 -20 126 -32c46 -15 83 -40 105 -78c10 -19 16 -41 16 -67c0 -53 -28 -91 -61 -115c-39 -29 -95 -47 -162 -47c-105 0 -181 44 -213 114c-10 21 -15 43 -15 64h134c2 -53 42 -78 97 -78zM542 613v-6h-112l-75 71l-76 -71h-110v8l145 135h82z
" />
    <glyph glyph-name="Scedilla" unicode="&#x15e;" horiz-adv-x="805" 
d="M417 106c61 0 111 22 111 81c0 51 -31 68 -69 86c-18 8 -42 16 -70 25c-90 29 -178 66 -219 143c-12 23 -18 50 -18 81c0 104 73 160 156 185c32 9 67 14 106 14c119 0 204 -51 242 -132c12 -27 19 -56 19 -88h-146c0 69 -48 103 -118 103c-62 0 -113 -23 -113 -83
c0 -23 12 -43 36 -58c24 -16 59 -31 105 -45c95 -29 185 -68 221 -152c10 -23 15 -49 15 -78c0 -105 -68 -161 -152 -184c-32 -10 -67 -14 -106 -14c-138 0 -240 59 -276 161c-8 22 -11 46 -11 73h147c0 -86 54 -118 140 -118zM416 -104c0 33 -33 35 -69 38l15 69h105
l-5 -28c42 -6 73 -34 73 -84c0 -63 -45 -95 -97 -109c-21 -5 -45 -8 -73 -8l-4 82c30 0 55 10 55 40z" />
    <glyph glyph-name="scedilla" unicode="&#x15f;" horiz-adv-x="705" 
d="M354 90c45 0 82 16 82 56c0 34 -27 44 -54 54c-14 5 -32 9 -54 13c-74 16 -143 43 -174 101c-10 17 -14 37 -14 60c0 51 25 89 56 115c35 30 89 49 155 49c99 0 172 -36 205 -102c10 -21 16 -43 16 -68h-141c0 46 -32 70 -81 70c-42 0 -74 -20 -74 -58
c0 -31 26 -43 51 -51c36 -12 90 -20 126 -32c46 -15 83 -40 105 -78c10 -19 16 -41 16 -67c0 -53 -28 -91 -61 -115c-39 -29 -95 -47 -162 -47c-105 0 -181 44 -213 114c-10 21 -15 43 -15 64h134c2 -53 42 -78 97 -78zM358 -108c0 33 -33 35 -69 38l15 69h105l-5 -28
c42 -6 73 -34 73 -84c0 -63 -45 -95 -97 -109c-21 -5 -45 -8 -73 -8l-4 82c30 0 55 10 55 40z" />
    <glyph glyph-name="Scaron" unicode="&#x160;" horiz-adv-x="805" 
d="M417 106c61 0 111 22 111 81c0 51 -31 68 -69 86c-18 8 -42 16 -70 25c-90 29 -178 66 -219 143c-12 23 -18 50 -18 81c0 104 73 160 156 185c32 9 67 14 106 14c119 0 204 -51 242 -132c12 -27 19 -56 19 -88h-146c0 69 -48 103 -118 103c-62 0 -113 -23 -113 -83
c0 -23 12 -43 36 -58c24 -16 59 -31 105 -45c95 -29 185 -68 221 -152c10 -23 15 -49 15 -78c0 -105 -68 -161 -152 -184c-32 -10 -67 -14 -106 -14c-138 0 -240 59 -276 161c-8 22 -11 46 -11 73h147c0 -86 54 -118 140 -118zM413 832l71 69h121v-5l-148 -137h-89l-147 138
v4h120z" />
    <glyph glyph-name="scaron" unicode="&#x161;" horiz-adv-x="705" 
d="M354 90c45 0 82 16 82 56c0 34 -27 44 -54 54c-14 5 -32 9 -54 13c-74 16 -143 43 -174 101c-10 17 -14 37 -14 60c0 51 25 89 56 115c35 30 89 49 155 49c99 0 172 -36 205 -102c10 -21 16 -43 16 -68h-141c0 46 -32 70 -81 70c-42 0 -74 -20 -74 -58
c0 -31 26 -43 51 -51c36 -12 90 -20 126 -32c46 -15 83 -40 105 -78c10 -19 16 -41 16 -67c0 -53 -28 -91 -61 -115c-39 -29 -95 -47 -162 -47c-105 0 -181 44 -213 114c-10 21 -15 43 -15 64h134c2 -53 42 -78 97 -78zM354 681l71 69h121v-5l-148 -137h-89l-147 138v4h120z
" />
    <glyph glyph-name="uni0162" unicode="&#x162;" horiz-adv-x="809" 
d="M695 592h-218v-592h-147v592h-214v119h579v-119zM406 -101c0 33 -33 35 -69 38l15 69h105l-5 -28c42 -6 73 -34 73 -84c0 -63 -45 -95 -97 -109c-21 -5 -45 -8 -73 -8l-4 82c30 0 55 10 55 40z" />
    <glyph glyph-name="uni0163" unicode="&#x163;" horiz-adv-x="528" 
d="M329 -10c-102 0 -151 53 -151 156v279h-77v103h77v130h141v-130h90v-103h-90v-264c0 -39 15 -55 54 -55c15 0 30 1 42 4v-107c-26 -7 -52 -13 -86 -13zM311 -104c0 33 -33 35 -69 38l15 69h105l-5 -28c42 -6 73 -34 73 -84c0 -63 -45 -95 -97 -109c-21 -5 -45 -8 -73 -8
l-4 82c30 0 55 10 55 40z" />
    <glyph glyph-name="Tcaron" unicode="&#x164;" horiz-adv-x="809" 
d="M695 592h-218v-592h-147v592h-214v119h579v-119zM403 832l71 69h121v-5l-148 -137h-89l-147 138v4h120z" />
    <glyph glyph-name="tcaron" unicode="&#x165;" horiz-adv-x="548" 
d="M329 -10c-102 0 -151 53 -151 156v279h-77v103h77v130h141v-130h90v-103h-90v-264c0 -39 15 -55 54 -55c15 0 30 1 42 4v-107c-26 -7 -52 -13 -86 -13zM384 594c23 39 44 81 44 143v76h112v-76c0 -38 -13 -71 -26 -98c-16 -32 -39 -61 -63 -83z" />
    <glyph glyph-name="Tbar" unicode="&#x166;" horiz-adv-x="809" 
d="M567 366h-90v-366h-147v366h-105v89h105v137h-214v119h579v-119h-218v-137h90v-89z" />
    <glyph glyph-name="tbar" unicode="&#x167;" horiz-adv-x="528" 
d="M329 -10c-102 0 -151 53 -151 156v114h-97v89h97v76h-77v103h77v130h141v-130h90v-103h-90v-76h104v-89h-104v-99c0 -39 15 -55 54 -55c15 0 30 1 42 4v-107c-26 -7 -52 -13 -86 -13z" />
    <glyph glyph-name="Utilde" unicode="&#x168;" horiz-adv-x="849" 
d="M425 108c84 0 126 46 126 134v469h147v-469c0 -128 -67 -205 -164 -236c-34 -11 -70 -16 -109 -16c-128 0 -214 53 -252 143c-14 31 -20 68 -20 109v469h146v-469c0 -88 41 -134 126 -134zM483 853c25 0 42 20 42 47l82 -6c0 -58 -29 -99 -67 -119
c-14 -7 -28 -11 -44 -11c-46 0 -69 22 -100 36c-10 4 -22 6 -34 6c-26 0 -41 -20 -41 -47l-82 5c0 57 28 101 66 121c14 7 28 10 44 10c27 0 48 -12 68 -21c19 -10 39 -21 66 -21z" />
    <glyph glyph-name="utilde" unicode="&#x169;" horiz-adv-x="750" 
d="M363 104c49 0 81 19 99 50v374h141v-528h-132l-4 54c-32 -38 -78 -64 -145 -64c-121 0 -175 74 -175 197v341h141v-342c0 -52 23 -82 75 -82zM435 703c25 0 42 20 42 47l82 -6c0 -58 -29 -99 -67 -119c-14 -7 -28 -11 -44 -11c-46 0 -69 22 -100 36c-10 4 -22 6 -34 6
c-26 0 -41 -20 -41 -47l-82 5c0 57 28 101 66 121c14 7 28 10 44 10c27 0 48 -12 68 -21c19 -10 39 -21 66 -21z" />
    <glyph glyph-name="Umacron" unicode="&#x16a;" horiz-adv-x="849" 
d="M425 108c84 0 126 46 126 134v469h147v-469c0 -128 -67 -205 -164 -236c-34 -11 -70 -16 -109 -16c-128 0 -214 53 -252 143c-14 31 -20 68 -20 109v469h146v-469c0 -88 41 -134 126 -134zM603 780h-357v81h357v-81z" />
    <glyph glyph-name="umacron" unicode="&#x16b;" horiz-adv-x="750" 
d="M363 104c49 0 81 19 99 50v374h141v-528h-132l-4 54c-32 -38 -78 -64 -145 -64c-121 0 -175 74 -175 197v341h141v-342c0 -52 23 -82 75 -82zM555 630h-357v81h357v-81z" />
    <glyph glyph-name="Ubreve" unicode="&#x16c;" horiz-adv-x="849" 
d="M425 108c84 0 126 46 126 134v469h147v-469c0 -128 -67 -205 -164 -236c-34 -11 -70 -16 -109 -16c-128 0 -214 53 -252 143c-14 31 -20 68 -20 109v469h146v-469c0 -88 41 -134 126 -134zM424 832c42 0 68 23 68 64h101c0 -73 -45 -115 -100 -134
c-21 -7 -44 -11 -69 -11c-78 0 -135 33 -158 87c-8 17 -11 37 -11 58h100c0 -43 25 -64 69 -64z" />
    <glyph glyph-name="ubreve" unicode="&#x16d;" horiz-adv-x="750" 
d="M363 104c49 0 81 19 99 50v374h141v-528h-132l-4 54c-32 -38 -78 -64 -145 -64c-121 0 -175 74 -175 197v341h141v-342c0 -52 23 -82 75 -82zM376 681c42 0 68 23 68 64h101c0 -73 -45 -115 -100 -134c-21 -7 -44 -11 -69 -11c-78 0 -135 33 -158 87c-8 17 -11 37 -11 58
h100c0 -43 25 -64 69 -64z" />
    <glyph glyph-name="Uring" unicode="&#x16e;" horiz-adv-x="849" 
d="M425 108c84 0 126 46 126 134v469h147v-469c0 -128 -67 -205 -164 -236c-34 -11 -70 -16 -109 -16c-128 0 -214 53 -252 143c-14 31 -20 68 -20 109v469h146v-469c0 -88 41 -134 126 -134zM315 845c0 48 31 78 66 92c13 5 27 8 43 8c49 0 85 -27 101 -61
c5 -13 8 -26 8 -39c0 -48 -31 -77 -66 -90c-14 -5 -28 -8 -43 -8c-50 0 -85 26 -101 60c-6 11 -8 24 -8 38zM424 898c-32 0 -53 -22 -53 -53c0 -29 22 -52 53 -52c30 0 53 22 53 52c0 31 -22 53 -53 53z" />
    <glyph glyph-name="uring" unicode="&#x16f;" horiz-adv-x="750" 
d="M363 104c49 0 81 19 99 50v374h141v-528h-132l-4 54c-32 -38 -78 -64 -145 -64c-121 0 -175 74 -175 197v341h141v-342c0 -52 23 -82 75 -82zM267 693c0 48 31 78 66 92c13 5 27 8 43 8c49 0 85 -27 101 -61c5 -13 8 -26 8 -39c0 -48 -31 -77 -66 -90
c-14 -5 -28 -8 -43 -8c-50 0 -85 26 -101 60c-6 11 -8 24 -8 38zM376 746c-32 0 -53 -22 -53 -53c0 -29 22 -52 53 -52c30 0 53 22 53 52c0 31 -22 53 -53 53z" />
    <glyph glyph-name="Uhungarumlaut" unicode="&#x170;" horiz-adv-x="849" 
d="M425 108c84 0 126 46 126 134v469h147v-469c0 -128 -67 -205 -164 -236c-34 -11 -70 -16 -109 -16c-128 0 -214 53 -252 143c-14 31 -20 68 -20 109v469h146v-469c0 -88 41 -134 126 -134zM556 901h126l-130 -147h-106zM365 901h124l-112 -147h-103z" />
    <glyph glyph-name="uhungarumlaut" unicode="&#x171;" horiz-adv-x="750" 
d="M363 104c49 0 81 19 99 50v374h141v-528h-132l-4 54c-32 -38 -78 -64 -145 -64c-121 0 -175 74 -175 197v341h141v-342c0 -52 23 -82 75 -82zM509 750h126l-130 -147h-106zM318 750h124l-112 -147h-103z" />
    <glyph glyph-name="Uogonek" unicode="&#x172;" horiz-adv-x="849" 
d="M425 108c84 0 126 46 126 134v469h147v-469c0 -111 -53 -184 -127 -221c-18 -11 -32 -23 -42 -34c-10 -12 -14 -25 -14 -40c0 -20 10 -32 32 -32c17 0 27 5 39 10l14 -77c-21 -12 -45 -21 -80 -21c-67 0 -111 35 -111 102c0 25 5 45 17 61h-1c-128 0 -214 53 -252 143
c-14 31 -20 68 -20 109v469h146v-469c0 -88 41 -134 126 -134z" />
    <glyph glyph-name="uogonek" unicode="&#x173;" horiz-adv-x="750" 
d="M363 104c49 0 81 19 99 50v374h141v-528h-15c-24 -14 -43 -28 -56 -41s-19 -28 -19 -45c0 -20 10 -32 32 -32c17 0 27 5 39 10l14 -77c-21 -12 -45 -21 -80 -21c-66 0 -111 36 -111 102c0 52 25 83 63 108l-3 50c-32 -38 -78 -64 -145 -64c-121 0 -175 74 -175 197v341
h141v-342c0 -52 23 -82 75 -82z" />
    <glyph glyph-name="Wcircumflex" unicode="&#x174;" horiz-adv-x="1065" 
d="M713 205l96 506h146l-158 -711h-147l-116 476l-116 -476h-147l-158 711h146l96 -505l117 505h124zM724 764v-6h-112l-75 71l-76 -71h-110v8l145 135h82z" />
    <glyph glyph-name="wcircumflex" unicode="&#x175;" horiz-adv-x="925" 
d="M610 192l69 336h136l-135 -528h-118l-100 333l-100 -333h-118l-134 528h136l69 -336l96 336h102zM649 613v-6h-112l-75 71l-76 -71h-110v8l145 135h82z" />
    <glyph glyph-name="Ycircumflex" unicode="&#x176;" horiz-adv-x="809" 
d="M405 391l148 320h160l-234 -453v-258h-149v258l-233 453h161zM593 764v-6h-112l-75 71l-76 -71h-110v8l145 135h82z" />
    <glyph glyph-name="ycircumflex" unicode="&#x177;" horiz-adv-x="692" 
d="M154 -97c6 0 14 -1 21 -1c52 0 78 18 92 57l16 40l-186 529h152l98 -328l98 328h151l-211 -607c-26 -72 -70 -134 -169 -134c-25 0 -45 2 -62 9v107zM537 613v-6h-112l-75 71l-76 -71h-110v8l145 135h82z" />
    <glyph glyph-name="Ydieresis" unicode="&#x178;" horiz-adv-x="809" 
d="M405 391l148 320h160l-234 -453v-258h-149v258l-233 453h161zM287 756c-40 0 -68 23 -68 62c0 38 29 62 68 62c37 0 67 -25 67 -62c0 -38 -29 -62 -67 -62zM525 755c-39 0 -68 25 -68 63s29 62 68 62c37 0 67 -25 67 -62c0 -38 -30 -63 -67 -63z" />
    <glyph glyph-name="Zacute" unicode="&#x179;" horiz-adv-x="796" 
d="M315 118h358v-118h-541v86l351 506h-351v119h533v-84zM432 901h153l-135 -151h-115z" />
    <glyph glyph-name="zacute" unicode="&#x17a;" horiz-adv-x="699" 
d="M312 114h259v-114h-439v86l249 328h-242v114h424v-83zM380 750h153l-135 -151h-115z" />
    <glyph glyph-name="Zdotaccent" unicode="&#x17b;" horiz-adv-x="796" 
d="M315 118h358v-118h-541v86l351 506h-351v119h533v-84zM403 764c-42 0 -72 27 -72 67c0 42 29 67 72 67c42 0 72 -26 72 -67s-30 -67 -72 -67z" />
    <glyph glyph-name="zdotaccent" unicode="&#x17c;" horiz-adv-x="699" 
d="M312 114h259v-114h-439v86l249 328h-242v114h424v-83zM351 612c-42 0 -72 27 -72 67c0 42 29 67 72 67c42 0 72 -26 72 -67s-30 -67 -72 -67z" />
    <glyph glyph-name="Zcaron" unicode="&#x17d;" horiz-adv-x="796" 
d="M315 118h358v-118h-541v86l351 506h-351v119h533v-84zM403 832l71 69h121v-5l-148 -137h-89l-147 138v4h120z" />
    <glyph glyph-name="zcaron" unicode="&#x17e;" horiz-adv-x="699" 
d="M312 114h259v-114h-439v86l249 328h-242v114h424v-83zM351 681l71 69h121v-5l-148 -137h-89l-147 138v4h120z" />
    <glyph glyph-name="longs" unicode="&#x17f;" horiz-adv-x="450" 
d="M367 646c-47 0 -73 -25 -73 -72v-574h-141v574c0 122 71 186 194 186c28 0 54 -5 79 -10l-12 -109c-16 3 -28 5 -47 5z" />
    <glyph glyph-name="florin" unicode="&#x192;" horiz-adv-x="551" 
d="M398 646c-47 0 -72 -25 -72 -72v-46h102v-103h-102v-449c0 -118 -60 -189 -178 -189c-27 0 -47 2 -70 8l7 112c12 -4 30 -6 45 -6c45 0 55 29 55 75v449h-79v103h79v46c0 122 73 186 195 186c29 0 52 -5 78 -10l-11 -109c-16 3 -30 5 -49 5z" />
    <glyph glyph-name="Ohorn" unicode="&#x1a0;" horiz-adv-x="892" 
d="M700 559c25 -51 40 -113 40 -188v-32c0 -163 -66 -275 -179 -325c-37 -16 -78 -24 -123 -24c-97 0 -169 40 -218 93c-53 58 -85 146 -85 256v32c0 163 67 276 180 325c37 17 78 25 123 25c97 0 168 -39 217 -92c52 13 62 68 62 136h95c0 -107 -34 -179 -112 -206z
M438 110c115 0 153 104 153 229v33c0 126 -39 228 -154 228c-114 0 -154 -103 -154 -228v-33c0 -101 24 -180 89 -214c20 -10 42 -15 66 -15z" />
    <glyph glyph-name="ohorn" unicode="&#x1a1;" horiz-adv-x="772" 
d="M599 406c17 -38 29 -83 29 -137v-10c0 -125 -56 -210 -144 -249c-31 -13 -66 -20 -106 -20c-125 0 -202 68 -234 162c-11 33 -16 68 -16 107v10c0 125 54 210 143 248c31 14 66 21 106 21c83 0 143 -30 184 -76c30 20 39 64 39 116h85c0 -85 -28 -144 -86 -172zM377 424
c-82 0 -108 -73 -108 -155v-10c0 -84 25 -155 109 -155c82 0 109 72 109 155v10c0 83 -28 155 -110 155z" />
    <glyph glyph-name="Uhorn" unicode="&#x1af;" horiz-adv-x="903" 
d="M425 108c84 0 126 46 126 134v469h147v-111c82 5 95 63 95 150h95c0 -143 -52 -222 -190 -227v-281c0 -128 -67 -205 -165 -236c-33 -11 -69 -16 -108 -16c-128 0 -214 53 -252 143c-14 31 -20 68 -20 109v469h146v-469c0 -88 41 -134 126 -134z" />
    <glyph glyph-name="uhorn" unicode="&#x1b0;" horiz-adv-x="800" 
d="M603 461c52 11 61 51 61 114h84c0 -112 -42 -172 -145 -182v-393h-132l-4 54c-32 -38 -78 -64 -145 -64c-121 0 -175 74 -175 197v341h141v-342c0 -52 23 -82 75 -82c49 0 81 19 99 50v374h141v-67z" />
    <glyph glyph-name="uni01F0" unicode="&#x1f0;" horiz-adv-x="472" 
d="M110 -99c42 0 59 36 59 82v545h141v-545c0 -123 -63 -196 -185 -196c-29 0 -47 2 -70 8l7 112c14 -4 30 -6 48 -6zM230 668l71 69h121v-5l-148 -137h-89l-147 138v4h120z" />
    <glyph glyph-name="Aringacute" unicode="&#x1fa;" 
d="M561 146h-257l-49 -146h-156l265 711h136l266 -711h-156zM344 265h177l-89 266zM490 975h128l-131 -101h-88zM335 763c0 44 28 71 60 85c12 5 25 7 39 7c44 0 75 -25 89 -55c5 -11 8 -24 8 -37c0 -55 -43 -89 -97 -89c-46 0 -76 22 -91 53c-6 11 -8 23 -8 36zM434 808
c-26 0 -44 -19 -44 -45c0 -25 18 -43 44 -43c24 0 42 19 42 43c0 26 -17 45 -42 45z" />
    <glyph glyph-name="aringacute" unicode="&#x1fb;" horiz-adv-x="727" 
d="M578 128c0 -49 6 -87 21 -120v-8h-143c-7 13 -12 28 -14 47c-29 -33 -72 -57 -133 -57c-82 0 -140 40 -166 95c-10 19 -14 40 -14 63c0 131 110 175 244 175h63v30c0 51 -26 81 -78 81c-44 0 -76 -22 -76 -64h-141c0 53 28 92 61 118c38 31 94 50 164 50
c97 0 164 -37 196 -105c10 -23 16 -50 16 -81v-224zM270 159c0 -37 30 -61 70 -61c45 0 79 22 96 51v91h-58c-61 0 -108 -22 -108 -81zM421 824h128l-131 -101h-88zM266 612c0 44 28 71 60 85c12 5 25 7 39 7c44 0 75 -25 89 -55c5 -11 8 -24 8 -37c0 -55 -43 -89 -97 -89
c-46 0 -76 22 -91 53c-6 11 -8 23 -8 36zM365 657c-26 0 -44 -19 -44 -45c0 -25 18 -43 44 -43c24 0 42 19 42 43c0 26 -17 45 -42 45z" />
    <glyph glyph-name="AEacute" unicode="&#x1fc;" horiz-adv-x="1130" 
d="M1007 0h-438l-7 163h-218l-81 -163h-166l384 711h496v-115h-292l7 -174h245v-115h-240l8 -192h302v-115zM405 283h152l-12 279zM581 907h153l-135 -151h-115z" />
    <glyph glyph-name="aeacute" unicode="&#x1fd;" horiz-adv-x="1035" 
d="M901 49c-46 -35 -116 -59 -197 -59c-85 0 -147 28 -188 72c-41 -44 -107 -72 -192 -72c-92 0 -156 34 -183 98c-9 20 -13 43 -13 68c0 120 108 161 242 161h80v28c0 49 -28 79 -77 79c-40 0 -68 -12 -81 -37c-4 -7 -6 -15 -6 -23l-141 9c0 55 28 93 63 118
c39 29 96 47 166 47c69 0 124 -19 160 -54c38 33 89 55 159 54c110 0 178 -56 207 -140c10 -29 15 -62 15 -99v-79h-326c5 -73 49 -116 130 -116c62 0 103 17 144 37zM269 154c0 -43 33 -60 81 -60c42 0 76 18 100 39v92h-79c-46 0 -80 -16 -95 -45c-5 -9 -7 -17 -7 -26z
M776 328c0 58 -26 96 -83 96c-69 0 -96 -49 -103 -110h186v14zM545 750h153l-135 -151h-115z" />
    <glyph glyph-name="Oslashacute" unicode="&#x1fe;" horiz-adv-x="879" 
d="M659 630c54 -60 88 -146 88 -259v-32c0 -163 -67 -275 -180 -324c-37 -17 -78 -25 -122 -25c-54 0 -102 11 -144 34l-41 -70h-92l70 117c-60 60 -97 150 -97 268v32c0 162 68 276 180 326c37 16 78 24 123 24c62 0 113 -16 154 -41l36 61h91zM444 600
c-115 0 -154 -103 -154 -228v-33c0 -56 8 -102 24 -139l219 369c-24 20 -54 30 -89 31zM445 110c114 0 153 104 153 229v33c0 49 -6 90 -18 124l-214 -363c22 -15 48 -23 79 -23zM474 938h153l-135 -151h-115z" />
    <glyph glyph-name="oslashacute" unicode="&#x1ff;" horiz-adv-x="755" 
d="M229 34c-63 44 -101 122 -101 225v10c0 125 55 210 143 249c31 13 67 20 107 20c32 0 63 -5 91 -14l34 70h78l-50 -103c59 -45 98 -121 98 -222v-10c0 -125 -56 -210 -144 -248c-31 -14 -66 -21 -106 -21c-31 0 -60 4 -86 13l-35 -72h-79zM269 259c0 -40 7 -75 20 -102
l127 260c-12 5 -25 7 -38 7c-82 0 -109 -73 -109 -155v-10zM379 104c82 0 109 72 109 155v10c0 38 -7 69 -18 96l-125 -256c10 -3 21 -5 34 -5zM388 748h153l-135 -151h-115z" />
    <glyph glyph-name="uni0218" unicode="&#x218;" horiz-adv-x="805" 
d="M417 106c61 0 111 22 111 81c0 51 -31 68 -69 86c-18 8 -42 16 -70 25c-90 29 -178 66 -219 143c-12 23 -18 50 -18 81c0 104 73 160 156 185c32 9 67 14 106 14c119 0 204 -51 242 -132c12 -27 19 -56 19 -88h-146c0 69 -48 103 -118 103c-62 0 -113 -23 -113 -83
c0 -23 12 -43 36 -58c24 -16 59 -31 105 -45c95 -29 185 -68 221 -152c10 -23 15 -49 15 -78c0 -105 -68 -161 -152 -184c-32 -10 -67 -14 -106 -14c-138 0 -240 59 -276 161c-8 22 -11 46 -11 73h147c0 -86 54 -118 140 -118zM325 -213c21 34 37 70 37 126v42h104v-35
c0 -55 -21 -101 -43 -137c-9 -13 -18 -25 -28 -35z" />
    <glyph glyph-name="uni0219" unicode="&#x219;" horiz-adv-x="705" 
d="M354 90c45 0 82 16 82 56c0 34 -27 44 -54 54c-14 5 -32 9 -54 13c-74 16 -143 43 -174 101c-10 17 -14 37 -14 60c0 51 25 89 56 115c35 30 89 49 155 49c99 0 172 -36 205 -102c10 -21 16 -43 16 -68h-141c0 46 -32 70 -81 70c-42 0 -74 -20 -74 -58
c0 -31 26 -43 51 -51c36 -12 90 -20 126 -32c46 -15 83 -40 105 -78c10 -19 16 -41 16 -67c0 -53 -28 -91 -61 -115c-39 -29 -95 -47 -162 -47c-105 0 -181 44 -213 114c-10 21 -15 43 -15 64h134c2 -53 42 -78 97 -78zM266 -218c21 34 37 70 37 126v42h104v-35
c0 -55 -21 -101 -43 -137c-9 -13 -18 -25 -28 -35z" />
    <glyph glyph-name="uni021A" unicode="&#x21a;" horiz-adv-x="809" 
d="M695 592h-218v-592h-147v592h-214v119h579v-119zM314 -210c21 34 37 70 37 126v42h104v-35c0 -55 -21 -101 -43 -137c-9 -13 -18 -25 -28 -35z" />
    <glyph glyph-name="uni021B" unicode="&#x21b;" horiz-adv-x="528" 
d="M329 -10c-102 0 -151 53 -151 156v279h-77v103h77v130h141v-130h90v-103h-90v-264c0 -39 15 -55 54 -55c15 0 30 1 42 4v-107c-26 -7 -52 -13 -86 -13zM219 -213c21 34 37 70 37 126v42h104v-35c0 -55 -21 -101 -43 -137c-9 -13 -18 -25 -28 -35z" />
    <glyph glyph-name="uni0237" unicode="&#x237;" horiz-adv-x="472" 
d="M110 -99c42 0 59 36 59 82v545h141v-545c0 -123 -63 -196 -185 -196c-29 0 -47 2 -70 8l7 112c14 -4 30 -6 48 -6z" />
    <glyph glyph-name="schwa" unicode="&#x259;" horiz-adv-x="720" 
d="M146 478c46 37 116 61 200 61c122 0 200 -67 233 -157c11 -32 17 -66 17 -102v-19c0 -123 -54 -211 -138 -250c-30 -14 -63 -21 -99 -20c-148 0 -225 91 -225 238v80h319c-9 66 -48 116 -122 116c-48 0 -85 -8 -117 -23l-30 -15zM273 200c0 -58 27 -96 86 -96
c60 0 85 54 93 108h-179v-12z" />
    <glyph glyph-name="uni02BC" unicode="&#x2bc;" horiz-adv-x="420" 
d="M124 531c23 39 44 81 44 143v76h112v-76c0 -38 -13 -71 -26 -98c-16 -32 -39 -61 -63 -83z" />
    <glyph glyph-name="circumflex" unicode="&#x2c6;" horiz-adv-x="686" 
d="M529 613v-6h-112l-75 71l-76 -71h-110v8l145 135h82z" />
    <glyph glyph-name="caron" unicode="&#x2c7;" horiz-adv-x="661" 
d="M330 681l71 69h121v-5l-148 -137h-89l-147 138v4h120z" />
    <glyph glyph-name="breve" unicode="&#x2d8;" horiz-adv-x="634" 
d="M317 681c42 0 68 23 68 64h101c0 -73 -45 -115 -100 -134c-21 -7 -44 -11 -69 -11c-78 0 -135 33 -158 87c-8 17 -11 37 -11 58h100c0 -43 25 -64 69 -64z" />
    <glyph glyph-name="dotaccent" unicode="&#x2d9;" horiz-adv-x="456" 
d="M226 604c-42 0 -72 27 -72 67c0 42 29 67 72 67c42 0 72 -26 72 -67s-30 -67 -72 -67z" />
    <glyph glyph-name="ring" unicode="&#x2da;" horiz-adv-x="524" 
d="M154 647c0 48 31 78 66 92c13 5 27 8 42 8c50 0 86 -27 101 -62c6 -12 8 -25 8 -38c0 -48 -30 -77 -66 -90c-13 -5 -27 -8 -42 -8c-50 0 -85 26 -101 60c-6 11 -8 24 -8 38zM263 700c-32 0 -53 -22 -53 -53c0 -29 22 -52 53 -52c30 0 53 22 53 52c0 31 -22 53 -53 53z
" />
    <glyph glyph-name="ogonek" unicode="&#x2db;" horiz-adv-x="491" 
d="M223 -206c-66 0 -111 36 -111 102c0 50 26 81 57 104c14 10 31 20 52 29l72 -29c-24 -14 -43 -28 -56 -41s-19 -28 -19 -45c0 -20 10 -32 32 -32c16 0 29 5 39 10l15 -77c-21 -12 -46 -21 -81 -21z" />
    <glyph glyph-name="tilde" unicode="&#x2dc;" horiz-adv-x="671" 
d="M397 703c25 0 41 20 41 47l82 -6c0 -58 -28 -99 -67 -119c-13 -7 -28 -11 -44 -11c-45 0 -68 22 -100 36c-10 4 -21 6 -34 6c-25 0 -41 -20 -41 -47l-82 5c0 57 29 101 67 121c14 7 28 10 43 10c28 0 49 -12 69 -21c19 -10 39 -21 66 -21z" />
    <glyph glyph-name="hungarumlaut" unicode="&#x2dd;" horiz-adv-x="601" 
d="M406 750h126l-130 -147h-106zM215 750h124l-112 -147h-103z" />
    <glyph glyph-name="uni02F3" unicode="&#x2f3;" horiz-adv-x="504" 
d="M257 -195c-52 0 -92 31 -92 83c0 51 40 84 92 84c41 0 70 -22 83 -51c4 -10 7 -21 7 -33c0 -51 -39 -83 -90 -83zM257 -75c-22 0 -36 -15 -36 -37c0 -21 15 -36 36 -36s35 15 35 36c0 22 -14 37 -35 37z" />
    <glyph glyph-name="gravecomb" unicode="&#x300;" horiz-adv-x="191" 
d="M-113 606h-85l-86 144h112z" />
    <glyph glyph-name="acutecomb" unicode="&#x301;" horiz-adv-x="191" 
d="M-154 750h112l-91 -144h-84z" />
    <glyph glyph-name="tildecomb" unicode="&#x303;" horiz-adv-x="191" 
d="M-114 703c26 0 42 20 42 47l83 -6c0 -58 -29 -99 -68 -119c-13 -7 -28 -11 -44 -11c-45 0 -68 22 -100 36c-10 4 -21 6 -34 6c-25 0 -41 -20 -41 -47l-82 5c0 57 29 101 67 121c14 7 28 10 43 10c28 0 49 -12 69 -21c19 -10 39 -21 65 -21z" />
    <glyph glyph-name="hook" unicode="&#x309;" horiz-adv-x="191" 
d="M-76 720c0 -44 -35 -64 -74 -70v-31h-106l-7 65c34 2 67 4 67 32c0 30 -38 34 -69 34l4 65c62 0 108 -8 139 -25s46 -40 46 -70z" />
    <glyph glyph-name="uni030F" unicode="&#x30f;" horiz-adv-x="191" 
d="M-154 611h-116l-143 130h140zM13 611h-115l-119 130h136z" />
    <glyph glyph-name="dotbelow" unicode="&#x323;" horiz-adv-x="263" 
d="M-119 -114c0 -44 -34 -68 -79 -68c-37 0 -60 16 -73 41c-4 8 -6 17 -6 27c0 43 36 67 79 67c45 0 79 -23 79 -67z" />
    <glyph glyph-name="tonos" unicode="&#x384;" horiz-adv-x="527" 
d="M238 782h128l-80 -169h-84z" />
    <glyph glyph-name="dieresistonos" unicode="&#x385;" horiz-adv-x="739" 
d="M344 855h126l-75 -162h-72zM214 605c-40 0 -68 23 -68 62c0 38 29 62 68 62c37 0 67 -25 67 -62c0 -38 -29 -62 -67 -62zM514 604c-39 0 -67 25 -67 63c0 37 29 62 67 62s68 -24 68 -62s-30 -63 -68 -63z" />
    <glyph glyph-name="Alphatonos" unicode="&#x386;" 
d="M561 146h-257l-49 -146h-156l265 711h136l266 -711h-156zM344 265h177l-89 266zM174 782h128l-80 -169h-84z" />
    <glyph glyph-name="anoteleia" unicode="&#x387;" horiz-adv-x="492" 
d="M324 340c0 -46 -34 -75 -80 -75c-39 0 -63 19 -74 46c-4 9 -6 18 -6 29c0 46 33 76 80 76s80 -29 80 -76z" />
    <glyph glyph-name="Epsilontonos" unicode="&#x388;" horiz-adv-x="802" 
d="M636 308h-281v-190h330v-118h-477v711h476v-119h-329v-169h281v-115zM59 782h128l-80 -169h-84z" />
    <glyph glyph-name="Etatonos" unicode="&#x389;" horiz-adv-x="946" 
d="M787 0h-146v305h-286v-305h-147v711h147v-288h286v288h146v-711zM61 781h128l-80 -169h-84z" />
    <glyph glyph-name="Iotatonos" unicode="&#x38a;" horiz-adv-x="531" 
d="M364 0h-146v711h146v-711zM62 783h128l-80 -169h-84z" />
    <glyph glyph-name="Omicrontonos" unicode="&#x38c;" horiz-adv-x="891" 
d="M753 339c0 -164 -66 -274 -179 -324c-37 -17 -78 -25 -122 -25c-98 0 -171 40 -219 94c-53 58 -85 146 -85 255v32c0 163 67 276 180 326c37 16 78 24 123 24c97 0 169 -40 218 -94c52 -59 84 -146 84 -256v-32zM452 110c114 0 153 104 153 229v33
c0 126 -40 228 -154 228c-115 0 -155 -102 -155 -228v-33c0 -100 25 -180 90 -214c19 -10 41 -15 66 -15zM99 782h128l-80 -169h-84z" />
    <glyph glyph-name="Upsilontonos" unicode="&#x38e;" horiz-adv-x="857" 
d="M454 391l148 320h160l-234 -453v-258h-149v258l-233 453h161zM18 782h128l-80 -169h-85z" />
    <glyph glyph-name="Omegatonos" unicode="&#x38f;" horiz-adv-x="872" 
d="M720 378c0 -118 -53 -200 -114 -259h105v-119h-246v121c76 33 91 145 91 257v43c0 99 -30 180 -118 180s-119 -82 -119 -180v-43c0 -96 11 -182 56 -230c12 -13 25 -22 39 -27v-121h-250v119h106c-50 44 -89 107 -106 183c-6 25 -8 50 -8 76v42c0 140 67 236 167 278
c34 15 73 22 115 22c136 0 223 -78 261 -179c14 -37 21 -77 21 -121v-42zM111 782h128l-80 -169h-84z" />
    <glyph glyph-name="iotadieresistonos" unicode="&#x390;" horiz-adv-x="527" 
d="M315 -5c-102 0 -152 52 -152 155v378h142l-1 -363c0 -40 15 -55 55 -55c8 0 16 1 23 2l18 2v-107c-26 -8 -52 -12 -85 -12zM225 845h126l-75 -162h-72zM95 595c-40 0 -68 23 -68 62c0 38 29 62 68 62c37 0 67 -25 67 -62c0 -38 -29 -62 -67 -62zM395 594
c-39 0 -67 25 -67 63c0 37 29 62 67 62s68 -24 68 -62s-30 -63 -68 -63z" />
    <glyph glyph-name="Alpha" unicode="&#x391;" 
d="M561 146h-257l-49 -146h-156l265 711h136l266 -711h-156zM344 265h177l-89 266z" />
    <glyph glyph-name="Beta" unicode="&#x392;" horiz-adv-x="829" 
d="M688 209c0 -147 -105 -209 -257 -209h-272v711h249c118 0 207 -30 246 -108c12 -25 18 -54 18 -87c0 -78 -45 -128 -102 -150c70 -18 118 -71 118 -157zM541 210c0 68 -36 100 -104 100h-131v-192h125c64 0 110 29 110 92zM525 501c0 70 -44 91 -117 91h-102v-179h108
c66 1 111 25 111 88z" />
    <glyph glyph-name="Gamma" unicode="&#x393;" horiz-adv-x="748" 
d="M626 592h-319v-592h-147v711h466v-119z" />
    <glyph glyph-name="Delta" unicode="&#x394;" horiz-adv-x="921" 
d="M389 711h152l280 -711h-715zM304 118h319l-158 424z" />
    <glyph glyph-name="Delta" unicode="&#x2206;" horiz-adv-x="921" 
d="M389 711h152l280 -711h-715zM304 118h319l-158 424z" />
    <glyph glyph-name="Epsilon" unicode="&#x395;" horiz-adv-x="753" 
d="M587 308h-281v-190h330v-118h-477v711h476v-119h-329v-169h281v-115z" />
    <glyph glyph-name="Zeta" unicode="&#x396;" horiz-adv-x="796" 
d="M315 118h358v-118h-541v86l351 506h-351v119h533v-84z" />
    <glyph glyph-name="Eta" unicode="&#x397;" horiz-adv-x="897" 
d="M738 0h-146v305h-286v-305h-147v711h147v-288h286v288h146v-711z" />
    <glyph glyph-name="Theta" unicode="&#x398;" horiz-adv-x="878" 
d="M536 296h-187v114h187v-114zM742 339c0 -163 -67 -275 -180 -324c-37 -17 -78 -25 -123 -25c-97 0 -169 40 -218 94c-53 57 -86 145 -86 255v32c0 163 68 276 181 326c37 16 78 24 122 24c98 0 170 -40 219 -94c52 -59 85 -146 85 -256v-32zM439 110
c115 0 153 104 153 229v33c0 126 -39 228 -154 228c-114 0 -155 -102 -155 -228v-33c0 -100 26 -180 90 -214c20 -10 42 -15 66 -15z" />
    <glyph glyph-name="Iota" unicode="&#x399;" horiz-adv-x="482" 
d="M315 0h-146v711h146v-711z" />
    <glyph glyph-name="Kappa" unicode="&#x39a;" horiz-adv-x="825" 
d="M382 285l-76 -82v-203h-147v711h147v-322c78 111 163 215 246 322h180l-253 -316l260 -395h-174z" />
    <glyph glyph-name="Lambda" unicode="&#x39b;" horiz-adv-x="838" 
d="M419 509l-156 -509h-159l239 711h152l239 -711h-159z" />
    <glyph glyph-name="Mu" unicode="&#x39c;" horiz-adv-x="1066" 
d="M351 711l183 -516l181 516h193v-711h-147v194l14 336l-192 -530h-100l-192 529l15 -335v-194h-147v711h192z" />
    <glyph glyph-name="Nu" unicode="&#x39d;" horiz-adv-x="897" 
d="M738 0h-147l-285 468v-468h-147v711h147l286 -469v469h146v-711z" />
    <glyph glyph-name="Xi" unicode="&#x39e;" horiz-adv-x="757" 
d="M142 118h481v-118h-481v118zM199 416h368v-114h-368v114zM154 711h448v-119h-448v119z" />
    <glyph glyph-name="Omicron" unicode="&#x39f;" horiz-adv-x="881" 
d="M743 339c0 -164 -66 -274 -179 -324c-37 -17 -78 -25 -122 -25c-98 0 -171 40 -219 94c-53 58 -85 146 -85 255v32c0 163 67 276 180 326c37 16 78 24 123 24c97 0 169 -40 218 -94c52 -59 84 -146 84 -256v-32zM442 110c114 0 153 104 153 229v33
c0 126 -40 228 -154 228c-115 0 -155 -102 -155 -228v-33c0 -100 25 -180 90 -214c19 -10 41 -15 66 -15z" />
    <glyph glyph-name="Pi" unicode="&#x3a0;" horiz-adv-x="898" 
d="M739 0h-147v592h-285v-592h-147v711h579v-711z" />
    <glyph glyph-name="Rho" unicode="&#x3a1;" horiz-adv-x="836" 
d="M306 250v-250h-147v711h278c125 0 212 -53 249 -141c12 -29 18 -61 18 -94c0 -116 -66 -181 -155 -210c-33 -11 -70 -16 -112 -16h-131zM556 475c0 73 -45 117 -119 117h-131v-223h131c72 0 119 34 119 106z" />
    <glyph glyph-name="Sigma" unicode="&#x3a3;" horiz-adv-x="757" 
d="M501 355l-171 -237h306v-118h-505v74l215 285l-215 278v74h493v-119h-292l169 -230v-7z" />
    <glyph glyph-name="Tau" unicode="&#x3a4;" horiz-adv-x="809" 
d="M695 592h-218v-592h-147v592h-214v119h579v-119z" />
    <glyph glyph-name="Upsilon" unicode="&#x3a5;" horiz-adv-x="809" 
d="M405 391l148 320h160l-234 -453v-258h-149v258l-233 453h161z" />
    <glyph glyph-name="Phi" unicode="&#x3a6;" horiz-adv-x="960" 
d="M557 628c130 -4 218 -68 257 -164c14 -34 21 -72 21 -113c0 -129 -71 -212 -165 -249c-34 -13 -72 -21 -113 -22v-80h-146v80c-130 4 -219 66 -259 161c-14 33 -20 69 -20 109c0 132 69 219 165 256c34 13 72 21 114 22v83h146v-83zM411 501c-88 -3 -135 -60 -135 -151
c0 -88 49 -139 135 -142v293zM557 208c85 3 134 55 134 143c0 91 -47 147 -134 150v-293z" />
    <glyph glyph-name="Chi" unicode="&#x3a7;" horiz-adv-x="826" 
d="M414 466l133 245h169l-207 -353l212 -358h-170l-137 249l-137 -249h-170l212 358l-207 353h169z" />
    <glyph glyph-name="Psi" unicode="&#x3a8;" horiz-adv-x="917" 
d="M534 310c81 15 114 75 114 175v226h147v-226c0 -178 -102 -276 -261 -295v-190h-146v190c-127 10 -212 74 -248 176c-13 35 -19 74 -19 119v226h147v-226c0 -98 40 -159 120 -174v400h146v-401z" />
    <glyph glyph-name="Omega" unicode="&#x3a9;" horiz-adv-x="862" 
d="M710 378c0 -118 -53 -200 -114 -259h105v-119h-246v121c76 33 91 145 91 257v43c0 99 -30 180 -118 180s-119 -82 -119 -180v-43c0 -96 11 -182 56 -230c12 -13 25 -22 39 -27v-121h-250v119h106c-50 44 -89 107 -106 183c-6 25 -8 50 -8 76v42c0 140 67 236 167 278
c34 15 73 22 115 22c136 0 223 -78 261 -179c14 -37 21 -77 21 -121v-42z" />
    <glyph glyph-name="Omega" unicode="&#x2126;" horiz-adv-x="862" 
d="M710 378c0 -118 -53 -200 -114 -259h105v-119h-246v121c76 33 91 145 91 257v43c0 99 -30 180 -118 180s-119 -82 -119 -180v-43c0 -96 11 -182 56 -230c12 -13 25 -22 39 -27v-121h-250v119h106c-50 44 -89 107 -106 183c-6 25 -8 50 -8 76v42c0 140 67 236 167 278
c34 15 73 22 115 22c136 0 223 -78 261 -179c14 -37 21 -77 21 -121v-42z" />
    <glyph glyph-name="Iotadieresis" unicode="&#x3aa;" horiz-adv-x="482" 
d="M315 0h-146v711h146v-711zM123 758c-40 0 -68 23 -68 62c0 38 29 62 68 62c37 0 67 -25 67 -62c0 -38 -29 -62 -67 -62zM361 757c-39 0 -68 25 -68 63s29 62 68 62c37 0 67 -25 67 -62c0 -38 -30 -63 -67 -63z" />
    <glyph glyph-name="Upsilondieresis" unicode="&#x3ab;" horiz-adv-x="809" 
d="M405 391l148 320h160l-234 -453v-258h-149v258l-233 453h161zM287 756c-40 0 -68 23 -68 62c0 38 29 62 68 62c37 0 67 -25 67 -62c0 -38 -29 -62 -67 -62zM525 755c-39 0 -68 25 -68 63s29 62 68 62c37 0 67 -25 67 -62c0 -38 -30 -63 -67 -63z" />
    <glyph glyph-name="alphatonos" unicode="&#x3ac;" horiz-adv-x="754" 
d="M339 538c63 0 100 -32 128 -73l10 63h122v-357c0 -33 3 -65 35 -65c4 0 7 0 11 2l12 -106c-20 -10 -36 -12 -61 -12c-65 0 -103 32 -122 81c-28 -45 -68 -81 -136 -81c-109 0 -170 69 -193 156c-9 31 -13 66 -13 104v10c0 122 38 215 117 258c26 13 56 20 90 20zM458 373
c-17 30 -40 51 -84 51c-81 0 -101 -83 -101 -164v-10c0 -78 22 -146 100 -146c43 0 69 18 86 47c0 7 -1 13 -1 20v202zM382 782h128l-80 -169h-84z" />
    <glyph glyph-name="epsilontonos" unicode="&#x3ad;" horiz-adv-x="747" 
d="M381 223c-53 0 -98 -13 -98 -63c0 -46 49 -64 97 -64c42 0 75 12 91 38c4 7 7 14 7 22h141c0 -61 -34 -102 -74 -126c-39 -24 -97 -40 -157 -40c-102 0 -187 31 -227 92c-13 19 -19 42 -19 67c0 68 44 105 100 123c-45 19 -90 55 -90 112c0 87 66 127 139 144
c29 7 61 10 97 10c94 0 169 -35 205 -94c12 -20 18 -43 18 -68h-141c0 42 -48 55 -90 55c-40 0 -70 -12 -82 -37c-4 -7 -5 -14 -5 -21c0 -41 40 -56 88 -56h91v-94h-91zM365 782h128l-80 -169h-84z" />
    <glyph glyph-name="etatonos" unicode="&#x3ae;" horiz-adv-x="755" 
d="M386 424c-46 0 -77 -19 -96 -46v-378h-141v528h131l5 -65c32 42 81 75 152 75c122 0 170 -75 170 -200v-541h-141v541c0 56 -26 86 -80 86zM362 782h128l-80 -169h-84z" />
    <glyph glyph-name="iotatonos" unicode="&#x3af;" horiz-adv-x="527" 
d="M315 -5c-102 0 -152 52 -152 155v378h142l-1 -363c0 -40 15 -55 55 -55c8 0 16 1 23 2l18 2v-107c-26 -8 -52 -12 -85 -12zM225 772h128l-80 -169h-84z" />
    <glyph glyph-name="upsilondieresistonos" unicode="&#x3b0;" horiz-adv-x="736" 
d="M359 -10c-138 0 -208 75 -208 214v324h142v-325c0 -52 11 -99 61 -99c39 0 65 27 81 55c16 29 28 72 28 117c-2 95 -24 177 -50 252h135c33 -67 56 -150 56 -252c0 -128 -47 -222 -134 -264c-31 -15 -68 -22 -111 -22zM355 853h126l-75 -162h-72zM225 603
c-40 0 -68 23 -68 62c0 38 29 62 68 62c37 0 67 -25 67 -62c0 -38 -29 -62 -67 -62zM525 602c-39 0 -67 25 -67 63c0 37 29 62 67 62s68 -24 68 -62s-30 -63 -68 -63z" />
    <glyph glyph-name="alpha" unicode="&#x3b1;" horiz-adv-x="754" 
d="M339 538c63 0 100 -32 128 -73l10 63h122v-357c0 -33 3 -65 35 -65c4 0 7 0 11 2l12 -106c-20 -10 -36 -12 -61 -12c-65 0 -103 32 -122 81c-28 -45 -68 -81 -136 -81c-109 0 -170 69 -193 155c-9 32 -13 67 -13 105v10c0 122 38 215 117 258c26 13 56 20 90 20zM458 373
c-17 30 -40 51 -84 51c-81 0 -101 -83 -101 -164v-10c0 -78 22 -146 100 -146c43 0 69 18 86 47c0 7 -1 13 -1 20v202z" />
    <glyph glyph-name="beta" unicode="&#x3b2;" horiz-adv-x="792" 
d="M444 -10c-54 0 -103 15 -138 37v-225h-141v702c0 70 31 123 70 157c38 35 97 60 167 60c104 0 179 -39 212 -111c11 -24 17 -51 17 -82c0 -74 -42 -124 -94 -152c72 -25 124 -81 124 -174c0 -105 -49 -170 -127 -197c-27 -10 -57 -15 -90 -15zM520 204
c0 70 -36 112 -105 112h-47v103h32c63 0 90 36 90 99c0 54 -34 88 -88 88c-61 0 -96 -41 -96 -102v-372c25 -18 61 -28 106 -28c64 0 108 36 108 100z" />
    <glyph glyph-name="gamma" unicode="&#x3b3;" horiz-adv-x="701" 
d="M353 167l98 361h148l-177 -521v-211h-141v215l-177 517h148z" />
    <glyph glyph-name="delta" unicode="&#x3b4;" horiz-adv-x="755" 
d="M403 660c-40 0 -80 -12 -80 -47c0 -25 19 -38 38 -49c10 -5 24 -11 40 -17c76 -27 133 -63 171 -109c39 -46 58 -103 58 -172v-10c0 -124 -57 -207 -144 -246c-31 -13 -66 -20 -106 -20c-124 0 -202 65 -235 156c-11 32 -17 66 -17 103v10c0 88 43 153 95 190
c19 13 39 22 59 27l-1 3c-48 24 -92 64 -92 131c0 111 88 158 200 158c52 0 88 -11 129 -22v-109c-33 11 -72 23 -115 23zM269 262c0 -67 20 -121 62 -146c14 -8 30 -12 50 -12c80 0 109 77 109 158v10c0 60 -28 108 -64 134c-14 10 -29 17 -46 20c-62 0 -91 -45 -104 -96
c-4 -18 -7 -37 -7 -58v-10z" />
    <glyph glyph-name="epsilon" unicode="&#x3b5;" horiz-adv-x="747" 
d="M381 223c-53 0 -98 -13 -98 -63c0 -46 49 -64 97 -64c42 0 75 12 91 38c4 7 7 14 7 22h141c0 -61 -34 -102 -74 -126c-39 -24 -97 -40 -157 -40c-102 0 -187 31 -227 92c-13 19 -19 42 -19 67c0 68 44 105 100 123c-45 19 -90 55 -90 112c0 87 66 127 139 144
c29 7 61 10 97 10c94 0 169 -35 205 -94c12 -20 18 -43 18 -68h-141c0 42 -48 55 -90 55c-40 0 -70 -12 -82 -37c-4 -7 -5 -14 -5 -21c0 -41 40 -56 88 -56h91v-94h-91z" />
    <glyph glyph-name="zeta" unicode="&#x3b6;" horiz-adv-x="691" 
d="M569 711v-81l-176 -209c-49 -57 -99 -111 -99 -213c0 -61 31 -80 78 -95l39 -11c69 -20 143 -39 143 -126c0 -35 -21 -68 -38 -91c-21 -28 -49 -56 -76 -75l-72 55c15 16 26 31 34 46c8 14 11 26 11 36c1 30 -25 39 -54 47l-37 9c-94 25 -168 68 -168 184
c0 95 34 160 75 219c16 23 35 48 57 74l100 118h-253v113h436z" />
    <glyph glyph-name="eta" unicode="&#x3b7;" horiz-adv-x="755" 
d="M386 424c-46 0 -77 -19 -96 -46v-378h-141v528h131l5 -65c32 42 81 75 152 75c122 0 170 -75 170 -200v-541h-141v541c0 56 -26 86 -80 86z" />
    <glyph glyph-name="theta" unicode="&#x3b8;" horiz-adv-x="780" 
d="M631 297c0 -142 -45 -247 -142 -288c-30 -13 -62 -19 -98 -19c-126 0 -193 71 -223 171c-12 38 -17 83 -17 136v118c0 143 42 246 141 288c30 12 62 18 98 18c125 0 193 -70 223 -169c12 -39 18 -84 18 -137v-118zM490 303h-198v-25c0 -74 11 -139 57 -164
c12 -7 26 -10 42 -10c83 0 99 88 99 174v25zM390 606c-83 0 -98 -85 -98 -171v-23h198v23c0 87 -16 171 -100 171z" />
    <glyph glyph-name="iota" unicode="&#x3b9;" horiz-adv-x="527" 
d="M315 -5c-102 0 -152 52 -152 155v378h142l-1 -363c0 -40 15 -55 55 -55c8 0 16 1 23 2l18 2v-107c-26 -8 -52 -12 -85 -12z" />
    <glyph glyph-name="kappa" unicode="&#x3ba;" horiz-adv-x="780" 
d="M358 195h-57v-195h-142v528h142v-198h42l138 198h178l-186 -254l194 -274h-181z" />
    <glyph glyph-name="lambda" unicode="&#x3bb;" horiz-adv-x="739" 
d="M157 744c22 6 50 11 79 11c73 0 110 -32 132 -85l204 -512c8 -22 21 -53 51 -53h8c3 0 6 0 8 1l1 -111c-14 -2 -31 -3 -53 -4c-86 0 -124 45 -146 109l-81 224l-108 -324h-153l187 516l-35 81c-12 28 -28 44 -63 44c-11 0 -19 -1 -28 -2z" />
    <glyph glyph-name="uni03BC" unicode="&#x3bc;" horiz-adv-x="806" 
d="M500 33c-26 -26 -61 -43 -110 -43c-34 0 -62 7 -85 22v-215h-141v731h141v-302c0 -74 16 -122 88 -122c51 0 82 19 100 52v372h141v-528h-131z" />
    <glyph glyph-name="nu" unicode="&#x3bd;" horiz-adv-x="696" 
d="M348 172l98 356h148l-179 -528h-134l-179 528h148z" />
    <glyph glyph-name="xi" unicode="&#x3be;" horiz-adv-x="720" 
d="M293 404c-58 21 -106 58 -106 129c0 97 61 152 137 175c28 9 60 13 96 13c60 0 105 -9 148 -25l-22 -110c-37 10 -66 18 -110 18c-60 0 -107 -17 -107 -68c0 -57 52 -73 111 -73h74v-117h-70c-94 0 -157 -33 -157 -122c0 -73 59 -100 119 -114l47 -11
c57 -14 108 -30 132 -76c7 -14 10 -30 10 -49c0 -35 -20 -68 -37 -91c-21 -28 -49 -56 -76 -75l-73 55c15 16 26 31 34 45s12 26 12 37c0 28 -28 40 -55 48l-31 8c-120 36 -223 64 -223 218c0 103 63 158 147 185z" />
    <glyph glyph-name="omicron" unicode="&#x3bf;" horiz-adv-x="756" 
d="M128 269c0 125 55 210 143 249c31 13 67 20 107 20c125 0 202 -68 234 -162c11 -33 17 -68 17 -107v-10c0 -125 -56 -210 -144 -248c-31 -14 -66 -21 -106 -21c-126 0 -203 68 -235 162c-11 33 -16 68 -16 107v10zM488 269c0 83 -28 155 -110 155s-109 -73 -109 -155v-10
c0 -84 26 -155 110 -155c82 0 109 72 109 155v10z" />
    <glyph glyph-name="pi" unicode="&#x3c0;" horiz-adv-x="835" 
d="M635 -9c-103 0 -152 53 -152 156v274h-134v-421h-141v421h-86v107h587v-107h-85v-259c0 -40 15 -55 55 -55c15 0 30 1 41 4v-107c-26 -8 -52 -13 -85 -13z" />
    <glyph glyph-name="rho" unicode="&#x3c1;" horiz-adv-x="755" 
d="M422 -10c-62 0 -101 24 -130 59v-252h-141v485c0 119 56 201 140 237c30 13 63 19 101 19c122 0 190 -70 219 -166c10 -34 15 -71 15 -112v-10c0 -116 -40 -201 -117 -240c-26 -14 -55 -20 -87 -20zM385 104c77 0 100 68 100 146v10c0 67 -15 124 -54 151
c-13 9 -28 13 -46 13c-74 0 -93 -80 -93 -154v-122c17 -28 47 -44 93 -44z" />
    <glyph glyph-name="sigma1" unicode="&#x3c2;" horiz-adv-x="705" 
d="M454 332c0 54 -29 92 -83 92c-80 0 -103 -73 -103 -153v-14c0 -93 51 -125 124 -146c74 -21 146 -37 149 -128c0 -35 -20 -67 -36 -90c-21 -28 -48 -57 -75 -76l-74 56c15 16 26 31 34 44c8 14 11 27 11 38c0 30 -25 41 -52 47c-128 34 -222 95 -222 255v14
c0 122 52 208 138 247c30 13 66 20 106 20c102 0 169 -46 200 -119c10 -26 16 -55 16 -87h-133z" />
    <glyph glyph-name="sigma" unicode="&#x3c3;" horiz-adv-x="763" 
d="M658 414h-124c34 -29 64 -68 78 -117c4 -15 7 -31 7 -48v-10c0 -116 -56 -194 -138 -230c-30 -13 -65 -19 -103 -19c-125 0 -202 68 -234 162c-11 33 -16 68 -16 107v10c0 121 55 203 142 240c31 13 67 19 107 19h281v-114zM377 414c-80 0 -108 -65 -108 -145v-10
c0 -84 25 -155 109 -155c78 0 100 76 100 155v10c0 77 -25 145 -101 145z" />
    <glyph glyph-name="tau" unicode="&#x3c4;" horiz-adv-x="711" 
d="M436 -10c-106 0 -157 62 -157 172v253h-163v113h478v-113h-174v-255c0 -35 10 -55 44 -55c23 0 32 2 48 8l15 -107c-27 -9 -54 -16 -91 -16z" />
    <glyph glyph-name="upsilon" unicode="&#x3c5;" horiz-adv-x="736" 
d="M359 -10c-138 0 -208 75 -208 214v324h142v-325c0 -52 11 -99 61 -99c39 0 65 27 81 55c16 29 28 72 28 117c-2 95 -24 177 -50 252h135c33 -67 56 -150 56 -252c0 -128 -47 -222 -134 -264c-31 -15 -68 -22 -111 -22z" />
    <glyph glyph-name="phi" unicode="&#x3c6;" horiz-adv-x="936" 
d="M329 460c-37 -42 -63 -95 -66 -169c0 -102 45 -162 131 -180v281c0 69 40 113 90 133c18 7 38 11 59 11c120 0 195 -59 237 -139c17 -34 29 -76 29 -124c0 -125 -59 -202 -146 -245c-35 -18 -78 -30 -128 -35v-226h-141v227c-166 20 -272 116 -272 297
c0 86 28 150 66 199c13 17 28 32 44 45zM560 422c-19 0 -25 -8 -25 -26v-287c82 15 133 68 133 164c0 64 -22 115 -63 138c-13 7 -28 11 -45 11z" />
    <glyph glyph-name="chi" unicode="&#x3c7;" horiz-adv-x="699" 
d="M351 371l89 157h151l-150 -258l156 -270h-151l-94 166l-94 -166h-152l157 270l-150 258h151z" />
    <glyph glyph-name="psi" unicode="&#x3c8;" horiz-adv-x="935" 
d="M392 -6c-164 19 -263 112 -263 294v240h142v-242c0 -100 42 -154 121 -175v417h142v-418c86 19 132 77 132 181c-2 90 -26 167 -52 237h130c37 -61 63 -139 63 -237c0 -133 -55 -214 -145 -262c-35 -18 -78 -30 -128 -35v-227h-142v227z" />
    <glyph glyph-name="omega" unicode="&#x3c9;" horiz-adv-x="1011" 
d="M137 276c0 107 30 187 72 252h135c-35 -73 -64 -154 -66 -252c0 -65 8 -125 40 -157c10 -10 22 -15 37 -15c64 0 78 68 78 136v172h149v-172c0 -68 13 -136 78 -136c68 0 77 103 77 172c-4 98 -32 179 -67 252h135c42 -63 73 -147 73 -252c0 -124 -33 -219 -113 -263
c-27 -16 -60 -23 -100 -23c-82 0 -130 44 -158 104c-28 -59 -77 -104 -157 -104c-162 0 -213 125 -213 286z" />
    <glyph glyph-name="iotadieresis" unicode="&#x3ca;" horiz-adv-x="527" 
d="M315 -5c-102 0 -152 52 -152 155v378h142l-1 -363c0 -40 15 -55 55 -55c8 0 16 1 23 2l18 2v-107c-26 -8 -52 -12 -85 -12zM122 595c-40 0 -68 23 -68 62c0 38 29 62 68 62c37 0 67 -25 67 -62c0 -38 -29 -62 -67 -62zM360 594c-39 0 -68 25 -68 63s29 62 68 62
c37 0 67 -25 67 -62c0 -38 -30 -63 -67 -63z" />
    <glyph glyph-name="upsilondieresis" unicode="&#x3cb;" horiz-adv-x="736" 
d="M359 -10c-138 0 -208 75 -208 214v324h142v-325c0 -52 11 -99 61 -99c39 0 65 27 81 55c16 29 28 72 28 117c-2 95 -24 177 -50 252h135c33 -67 56 -150 56 -252c0 -128 -47 -222 -134 -264c-31 -15 -68 -22 -111 -22zM252 603c-40 0 -68 23 -68 62c0 38 29 62 68 62
c37 0 67 -25 67 -62c0 -38 -29 -62 -67 -62zM490 602c-39 0 -68 25 -68 63s29 62 68 62c37 0 67 -25 67 -62c0 -38 -30 -63 -67 -63z" />
    <glyph glyph-name="omicrontonos" unicode="&#x3cc;" horiz-adv-x="756" 
d="M128 269c0 125 55 210 143 249c31 13 67 20 107 20c125 0 202 -68 234 -162c11 -33 17 -68 17 -107v-10c0 -125 -56 -210 -144 -248c-31 -14 -66 -21 -106 -21c-126 0 -203 68 -235 162c-11 33 -16 68 -16 107v10zM488 269c0 83 -28 155 -110 155s-109 -73 -109 -155v-10
c0 -84 26 -155 110 -155c82 0 109 72 109 155v10zM361 782h128l-80 -169h-84z" />
    <glyph glyph-name="upsilontonos" unicode="&#x3cd;" horiz-adv-x="736" 
d="M359 -10c-138 0 -208 75 -208 214v324h142v-325c0 -52 11 -99 61 -99c39 0 65 27 81 55c16 29 28 72 28 117c-2 95 -24 177 -50 252h135c33 -67 56 -150 56 -252c0 -128 -47 -222 -134 -264c-31 -15 -68 -22 -111 -22zM355 780h128l-80 -169h-84z" />
    <glyph glyph-name="omegatonos" unicode="&#x3ce;" horiz-adv-x="1011" 
d="M137 276c0 107 30 187 72 252h135c-35 -73 -64 -154 -66 -252c0 -65 8 -125 40 -157c10 -10 22 -15 37 -15c64 0 78 68 78 136v172h149v-172c0 -68 13 -136 78 -136c68 0 77 103 77 172c-4 98 -32 179 -67 252h135c42 -63 73 -147 73 -252c0 -124 -33 -219 -113 -263
c-27 -16 -60 -23 -100 -23c-82 0 -130 44 -158 104c-28 -59 -77 -104 -157 -104c-162 0 -213 125 -213 286zM489 779h128l-80 -169h-84z" />
    <glyph glyph-name="uni03D1" unicode="&#x3d1;" horiz-adv-x="786" 
d="M397 108c60 0 85 51 85 116v43c-97 20 -170 75 -204 159c-11 27 -17 57 -17 88v11c0 94 45 156 113 183c23 9 48 13 75 13c122 0 181 -83 181 -205v-125c18 3 34 6 50 10l5 -119c-16 -6 -35 -10 -54 -14v-44c0 -113 -59 -186 -142 -217c-30 -12 -63 -17 -99 -17
c-114 0 -188 59 -220 141c-12 28 -17 59 -17 93v119l134 1v-120c0 -69 41 -116 110 -116zM442 595c-32 0 -47 -26 -47 -62v-12c0 -64 37 -105 87 -124v133c0 37 -7 65 -40 65z" />
    <glyph glyph-name="uni03D2" unicode="&#x3d2;" horiz-adv-x="781" 
d="M84 711c20 7 42 13 70 13c88 0 125 -49 150 -116l88 -233l88 229c25 69 65 120 149 120c28 0 50 -5 71 -13l-18 -112c-6 0 -14 2 -21 2h-8c-26 0 -39 -15 -48 -35l-143 -337v-229h-146v236l-139 330c-11 23 -27 35 -48 35h-8c-7 0 -14 -2 -20 -2z" />
    <glyph glyph-name="uni03D6" unicode="&#x3d6;" horiz-adv-x="1018" 
d="M138 276c0 58 9 108 23 152h-56v100h813v-100h-62c15 -44 25 -94 25 -152c0 -123 -29 -219 -108 -263c-26 -16 -59 -23 -99 -23c-83 0 -136 45 -164 106c-30 -61 -81 -106 -165 -106c-159 0 -207 127 -207 286zM304 428c-14 -46 -24 -96 -26 -152c0 -63 8 -125 38 -157
c9 -10 20 -15 33 -15c69 0 86 65 86 136v98h148v-98c0 -72 18 -136 86 -136c50 0 63 61 68 108c2 21 3 42 3 64c-1 56 -12 106 -27 152h-409z" />
    <glyph glyph-name="uni0400" unicode="&#x400;" horiz-adv-x="753" 
d="M587 308h-281v-190h330v-118h-477v711h476v-119h-329v-169h281v-115zM476 752h-116l-135 151h154z" />
    <glyph glyph-name="uni0401" unicode="&#x401;" horiz-adv-x="753" 
d="M587 308h-281v-190h330v-118h-477v711h476v-119h-329v-169h281v-115zM287 758c-40 0 -68 23 -68 62c0 38 29 62 68 62c37 0 67 -25 67 -62c0 -38 -29 -62 -67 -62zM525 757c-39 0 -68 25 -68 63s29 62 68 62c37 0 67 -25 67 -62c0 -38 -30 -63 -67 -63z" />
    <glyph glyph-name="uni0402" unicode="&#x402;" horiz-adv-x="938" 
d="M545 318c-43 0 -76 -4 -111 -11v-307h-147v592h-177v119h555v-119h-231v-170c36 9 76 15 119 15c120 0 206 -41 244 -123c12 -28 19 -61 19 -98c0 -109 -60 -173 -143 -204c-35 -14 -78 -20 -128 -20v111c79 0 125 30 125 105c0 73 -52 110 -125 110z" />
    <glyph glyph-name="uni0403" unicode="&#x403;" horiz-adv-x="748" 
d="M626 592h-319v-592h-147v711h466v-119zM426 903h153l-135 -151h-115z" />
    <glyph glyph-name="uni0404" unicode="&#x404;" horiz-adv-x="850" 
d="M432 107c91 0 131 45 139 129h147c-8 -117 -74 -195 -169 -228c-34 -12 -74 -18 -118 -18c-149 0 -236 84 -273 199c-14 42 -21 90 -21 143v45c0 158 64 272 174 320c37 16 78 24 122 24c172 0 271 -96 285 -252h-146c-5 86 -46 133 -138 133c-105 0 -142 -79 -148 -187
h218v-118h-218c5 -109 39 -190 146 -190z" />
    <glyph glyph-name="uni0405" unicode="&#x405;" horiz-adv-x="805" 
d="M417 106c61 0 110 22 110 81c0 51 -30 68 -68 86c-18 8 -42 16 -71 25c-89 29 -177 66 -218 143c-12 23 -19 50 -19 81c0 104 74 160 156 185c32 9 68 14 106 14c120 0 205 -51 243 -132c12 -27 18 -56 18 -88h-146c0 69 -47 103 -118 103c-61 0 -113 -23 -113 -83
c0 -23 12 -43 36 -58c24 -16 59 -31 105 -45c96 -29 186 -68 222 -152c10 -23 15 -49 15 -78c0 -105 -68 -161 -152 -184c-32 -10 -67 -14 -106 -14c-138 0 -240 59 -276 161c-8 22 -11 46 -11 73h147c0 -86 54 -118 140 -118z" />
    <glyph glyph-name="uni0406" unicode="&#x406;" horiz-adv-x="482" 
d="M315 0h-146v711h146v-711z" />
    <glyph glyph-name="uni0407" unicode="&#x407;" horiz-adv-x="482" 
d="M315 0h-146v711h146v-711zM123 758c-40 0 -68 23 -68 62c0 38 29 62 68 62c37 0 67 -25 67 -62c0 -38 -29 -62 -67 -62zM361 757c-39 0 -68 25 -68 63s29 62 68 62c37 0 67 -25 67 -62c0 -38 -30 -63 -67 -63z" />
    <glyph glyph-name="uni0408" unicode="&#x408;" horiz-adv-x="749" 
d="M354 108c61 0 92 47 92 111v492h147v-492c0 -111 -62 -184 -145 -213c-29 -11 -60 -16 -94 -16c-111 0 -188 44 -221 122c-12 27 -17 60 -17 98h147c0 -66 26 -102 91 -102z" />
    <glyph glyph-name="uni0409" unicode="&#x409;" horiz-adv-x="1248" 
d="M408 391c0 -225 -54 -391 -272 -391h-20v118h19c89 0 110 60 120 144c4 35 6 78 6 129v320h477v-242h116c124 0 214 -53 251 -140c12 -29 19 -60 19 -94c0 -116 -69 -187 -157 -217c-34 -12 -71 -18 -113 -18h-263v592h-183v-201zM738 351v-233h116c75 0 123 44 123 118
c0 54 -30 89 -69 106c-15 6 -33 9 -54 9h-116z" />
    <glyph glyph-name="uni040A" unicode="&#x40a;" horiz-adv-x="1249" 
d="M307 411h285v300h146v-246h117c124 0 212 -53 250 -140c12 -28 19 -59 19 -92c0 -116 -69 -184 -157 -215c-33 -12 -70 -18 -112 -18h-263v293h-285v-293h-147v711h147v-300zM738 347v-228h117c74 0 123 42 123 115c0 54 -30 87 -69 103c-16 7 -34 10 -54 10h-117z" />
    <glyph glyph-name="uni040B" unicode="&#x40b;" horiz-adv-x="962" 
d="M533 337c-34 0 -75 -5 -106 -9v-328h-146v592h-169v119h543v-119h-228v-146c31 5 72 9 106 9c167 0 277 -68 277 -236v-219h-146v219c0 89 -43 118 -131 118z" />
    <glyph glyph-name="uni040C" unicode="&#x40c;" horiz-adv-x="825" 
d="M382 285l-76 -82v-203h-147v711h147v-322c78 111 163 215 246 322h180l-253 -316l260 -395h-174zM416 901h153l-135 -151h-115z" />
    <glyph glyph-name="uni040D" unicode="&#x40d;" horiz-adv-x="891" 
d="M586 711h147v-711h-147v472l-285 -472h-146v711h146v-473zM515 752h-116l-135 151h154z" />
    <glyph glyph-name="uni040E" unicode="&#x40e;" horiz-adv-x="822" 
d="M264 -10c-9 0 -20 1 -29 1c-4 0 -8 0 -10 1l-2 117h8l11 -1c4 -1 7 -1 11 -1h9c53 0 74 27 87 68l12 29l-250 507h158l157 -336l129 336h159l-243 -572c-35 -80 -80 -149 -195 -149h-12zM423 834c42 0 68 23 68 64h101c0 -73 -45 -115 -100 -134c-21 -7 -44 -11 -69 -11
c-78 0 -135 33 -158 87c-8 17 -11 37 -11 58h100c0 -43 25 -64 69 -64z" />
    <glyph glyph-name="uni040F" unicode="&#x40f;" horiz-adv-x="891" 
d="M153 711h147v-593h284v593h147v-711h-209v-176h-147v176h-222v711z" />
    <glyph glyph-name="uni0410" unicode="&#x410;" 
d="M561 146h-257l-49 -146h-156l265 711h136l266 -711h-156zM344 265h177l-89 266z" />
    <glyph glyph-name="uni0411" unicode="&#x411;" horiz-adv-x="817" 
d="M623 592h-318v-137h117c123 0 213 -49 251 -132c13 -28 19 -59 19 -93c0 -116 -69 -183 -158 -213c-33 -11 -70 -17 -111 -17h-265v711h465v-119zM545 231c0 71 -51 105 -123 105h-117v-218h117c74 0 123 40 123 113z" />
    <glyph glyph-name="uni0412" unicode="&#x412;" horiz-adv-x="829" 
d="M688 209c0 -147 -105 -209 -257 -209h-272v711h249c118 0 207 -30 246 -108c12 -25 18 -54 18 -87c0 -78 -45 -128 -102 -150c70 -18 118 -71 118 -157zM541 210c0 68 -36 100 -104 100h-131v-192h125c64 0 110 29 110 92zM525 501c0 70 -44 91 -117 91h-102v-179h108
c66 1 111 25 111 88z" />
    <glyph glyph-name="uni0413" unicode="&#x413;" horiz-adv-x="748" 
d="M626 592h-319v-592h-147v711h466v-119z" />
    <glyph glyph-name="uni0414" unicode="&#x414;" horiz-adv-x="938" 
d="M819 -175h-136v175h-428v-174h-139l-8 292h54c70 61 94 167 100 301l20 292h465v-593h83zM408 419c-5 -124 -27 -225 -76 -301h269v474h-181z" />
    <glyph glyph-name="uni0415" unicode="&#x415;" horiz-adv-x="753" 
d="M587 308h-281v-190h330v-118h-477v711h476v-119h-329v-169h281v-115z" />
    <glyph glyph-name="uni0416" unicode="&#x416;" horiz-adv-x="1188" 
d="M759 290h-84v-290h-147v290h-86l-155 -290h-183l222 381l-211 330h182l158 -287h73v287h147v-287h71l154 287h182l-207 -329l218 -382h-183z" />
    <glyph glyph-name="uni0417" unicode="&#x417;" horiz-adv-x="807" 
d="M521 201c0 76 -43 104 -119 104h-87v115h87c68 0 108 28 108 95c0 62 -53 87 -116 87c-48 0 -83 -18 -100 -48c-6 -11 -9 -22 -9 -35h-146c0 69 34 117 76 148c43 31 106 53 179 53c116 0 206 -36 244 -114c12 -25 19 -55 19 -88c0 -81 -54 -127 -110 -153
c70 -25 121 -75 121 -166c0 -111 -76 -169 -164 -194c-34 -9 -70 -14 -110 -14c-124 0 -222 49 -255 141c-7 19 -10 41 -10 65h147c0 -46 34 -70 70 -82c14 -5 30 -7 47 -7c57 0 101 19 119 56c6 11 9 24 9 37z" />
    <glyph glyph-name="uni0418" unicode="&#x418;" horiz-adv-x="891" 
d="M586 711h147v-711h-147v472l-285 -472h-146v711h146v-473z" />
    <glyph glyph-name="uni0419" unicode="&#x419;" horiz-adv-x="891" 
d="M586 711h147v-711h-147v472l-285 -472h-146v711h146v-473zM445 834c42 0 68 23 68 64h101c0 -73 -45 -115 -100 -134c-21 -7 -44 -11 -69 -11c-78 0 -135 33 -158 87c-8 17 -11 37 -11 58h100c0 -43 25 -64 69 -64z" />
    <glyph glyph-name="uni041A" unicode="&#x41a;" horiz-adv-x="836" 
d="M391 291h-84v-291h-147v711h147v-285h67l174 285h178l-219 -336l242 -375h-174z" />
    <glyph glyph-name="uni041B" unicode="&#x41b;" horiz-adv-x="897" 
d="M738 711v-711h-147v592h-189l-8 -201c-6 -125 -20 -229 -66 -303c-36 -58 -89 -88 -176 -88h-36v118h19c48 4 71 23 87 63c8 21 13 48 16 82s6 77 9 128l14 320h477z" />
    <glyph glyph-name="uni041C" unicode="&#x41c;" horiz-adv-x="1066" 
d="M351 711l183 -516l181 516h193v-711h-147v194l14 336l-192 -530h-100l-192 529l15 -335v-194h-147v711h192z" />
    <glyph glyph-name="uni041D" unicode="&#x41d;" horiz-adv-x="897" 
d="M738 0h-146v305h-286v-305h-147v711h147v-288h286v288h146v-711z" />
    <glyph glyph-name="uni041E" unicode="&#x41e;" horiz-adv-x="881" 
d="M743 339c0 -164 -66 -274 -179 -324c-37 -17 -78 -25 -122 -25c-98 0 -171 40 -219 94c-53 58 -85 146 -85 255v32c0 163 67 276 180 326c37 16 78 24 123 24c97 0 169 -40 218 -94c52 -59 84 -146 84 -256v-32zM442 110c114 0 153 104 153 229v33
c0 126 -40 228 -154 228c-115 0 -155 -102 -155 -228v-33c0 -100 25 -180 90 -214c19 -10 41 -15 66 -15z" />
    <glyph glyph-name="uni041F" unicode="&#x41f;" horiz-adv-x="898" 
d="M739 0h-147v592h-285v-592h-147v711h579v-711z" />
    <glyph glyph-name="uni0420" unicode="&#x420;" horiz-adv-x="836" 
d="M306 250v-250h-147v711h278c125 0 212 -53 249 -141c12 -29 18 -61 18 -94c0 -116 -66 -181 -155 -210c-33 -11 -70 -16 -112 -16h-131zM556 475c0 73 -45 117 -119 117h-131v-223h131c72 0 119 34 119 106z" />
    <glyph glyph-name="uni0421" unicode="&#x421;" horiz-adv-x="845" 
d="M431 110c91 0 134 42 140 127h147c-9 -119 -74 -194 -170 -228c-34 -13 -73 -19 -117 -19c-150 0 -236 84 -273 200c-14 42 -20 89 -20 142v46c0 158 63 271 173 319c36 16 77 24 122 24c172 0 268 -96 286 -251h-147c-6 86 -47 131 -139 131c-116 0 -147 -94 -147 -222
v-47c0 -121 25 -222 145 -222z" />
    <glyph glyph-name="uni0422" unicode="&#x422;" horiz-adv-x="809" 
d="M695 592h-218v-592h-147v592h-214v119h579v-119z" />
    <glyph glyph-name="uni0423" unicode="&#x423;" horiz-adv-x="822" 
d="M264 -10c-9 0 -20 1 -29 1c-4 0 -8 0 -11 1l-2 117h9l11 -1c4 -1 7 -1 11 -1h9c53 0 74 27 87 68l12 29l-250 507h158l157 -336l129 336h159l-243 -572c-35 -80 -80 -149 -195 -149h-12z" />
    <glyph glyph-name="uni0424" unicode="&#x424;" horiz-adv-x="1007" 
d="M577 647h2c142 0 236 -71 278 -173c15 -37 23 -77 23 -122c0 -141 -77 -231 -180 -269c-37 -14 -77 -21 -121 -21h-2v-91h-141v91h-4c-141 0 -237 68 -278 170c-15 35 -22 75 -22 119c0 143 74 235 179 275c37 14 77 21 121 21h4v93h141v-93zM270 351
c0 -105 57 -167 162 -167h4v342h-4c-107 0 -162 -68 -162 -175zM741 352c0 108 -54 174 -161 174h-3v-342h3c105 0 161 62 161 168z" />
    <glyph glyph-name="uni0425" unicode="&#x425;" horiz-adv-x="826" 
d="M414 466l133 245h169l-207 -353l212 -358h-170l-137 249l-137 -249h-170l212 358l-207 353h169z" />
    <glyph glyph-name="uni0426" unicode="&#x426;" horiz-adv-x="949" 
d="M153 711h147v-593h284v593h147v-593h97l-9 -289h-137v171h-529v711z" />
    <glyph glyph-name="uni0427" unicode="&#x427;" horiz-adv-x="886" 
d="M440 374c49 0 99 4 140 14v323h147v-711h-147v270c-43 -8 -91 -15 -140 -15c-168 0 -277 70 -277 237v219h147v-219c0 -64 21 -102 73 -113c16 -3 35 -5 57 -5z" />
    <glyph glyph-name="uni0428" unicode="&#x428;" horiz-adv-x="1149" 
d="M305 711v-593h198v593h147v-593h195v593h147v-711h-834v711h147z" />
    <glyph glyph-name="uni0429" unicode="&#x429;" horiz-adv-x="1212" 
d="M305 711v-593h198v593h147v-593h195v593h147v-598h94l-10 -284h-131v171h-787v711h147z" />
    <glyph glyph-name="uni042A" unicode="&#x42a;" horiz-adv-x="961" 
d="M109 711h340v-256h117c123 0 213 -49 251 -132c13 -28 19 -59 19 -93c0 -116 -69 -183 -158 -213c-33 -11 -70 -17 -111 -17h-264v597h-194v114zM689 231c0 71 -51 105 -123 105h-117v-218h117c74 0 123 40 123 113z" />
    <glyph glyph-name="uni042B" unicode="&#x42b;" horiz-adv-x="1062" 
d="M308 455h117c122 0 213 -48 251 -133c12 -27 19 -58 19 -92c0 -116 -69 -183 -157 -213c-34 -11 -71 -17 -113 -17h-264v711h147v-256zM903 0h-147v711h147v-711zM548 231c0 71 -51 105 -123 105h-117v-218h117c73 0 123 40 123 113z" />
    <glyph glyph-name="uni042C" unicode="&#x42c;" horiz-adv-x="816" 
d="M306 455h116c123 0 213 -49 251 -132c13 -28 19 -59 19 -93c0 -116 -69 -183 -158 -213c-33 -11 -70 -17 -111 -17h-265v711h148v-256zM545 231c0 71 -51 105 -123 105h-117v-218h117c74 0 123 40 123 113z" />
    <glyph glyph-name="uni042D" unicode="&#x42d;" horiz-adv-x="841" 
d="M411 602c-93 0 -133 -47 -138 -133h-147c10 118 71 198 166 233c34 13 74 19 118 19c150 0 238 -86 275 -201c14 -42 20 -90 20 -143v-45c0 -159 -60 -269 -170 -318c-36 -16 -77 -24 -122 -24c-133 0 -221 56 -262 147c-14 30 -22 63 -25 99h146c8 -84 49 -129 141 -129
c106 0 140 80 146 189h-224v119h224c-7 108 -44 187 -148 187z" />
    <glyph glyph-name="uni042E" unicode="&#x42e;" horiz-adv-x="1134" 
d="M996 339c0 -163 -67 -275 -180 -324c-37 -17 -78 -25 -123 -25c-137 0 -223 73 -268 170c-16 36 -27 77 -33 123h-81v-283h-147v711h147v-315h79c6 149 75 257 184 303c36 15 76 22 118 22c98 0 170 -40 219 -94c52 -59 85 -146 85 -256v-32zM693 110
c115 0 153 104 153 229v33c0 126 -39 228 -154 228c-114 0 -154 -103 -154 -228v-33c0 -100 25 -181 89 -214c20 -10 42 -15 66 -15z" />
    <glyph glyph-name="uni042F" unicode="&#x42f;" horiz-adv-x="787" 
d="M234 303c-66 36 -110 93 -110 188c0 153 108 220 263 220h248v-711h-147v256h-119l-128 -256h-159zM387 592c-77 0 -116 -38 -116 -112c0 -79 37 -113 116 -113h101v225h-101z" />
    <glyph glyph-name="uni0430" unicode="&#x430;" horiz-adv-x="727" 
d="M578 128c0 -49 6 -87 21 -120v-8h-143c-7 13 -12 28 -14 47c-29 -33 -72 -57 -133 -57c-82 0 -140 40 -166 95c-10 19 -14 40 -14 63c0 131 110 175 244 175h63v30c0 51 -26 81 -78 81c-44 0 -76 -22 -76 -64h-141c0 53 28 92 61 118c38 31 94 50 164 50
c97 0 164 -37 196 -105c10 -23 16 -50 16 -81v-224zM270 159c0 -37 30 -61 70 -61c45 0 79 22 96 51v91h-58c-61 0 -108 -22 -108 -81z" />
    <glyph glyph-name="uni0431" unicode="&#x431;" horiz-adv-x="760" 
d="M253 434c39 39 86 65 159 65c112 0 181 -63 208 -148c10 -31 15 -64 15 -99v-10c0 -119 -57 -198 -142 -233c-31 -13 -66 -19 -106 -19c-126 0 -202 69 -234 164c-11 33 -16 70 -16 109v27c0 171 41 299 141 366c29 19 62 33 98 40c42 10 98 15 98 65h115
c0 -123 -84 -154 -188 -175c-86 -18 -131 -66 -148 -152zM494 252c0 77 -32 133 -108 133c-77 0 -108 -56 -108 -133v-10c0 -80 28 -138 109 -138c78 0 107 59 107 138v10z" />
    <glyph glyph-name="uni0432" unicode="&#x432;" horiz-adv-x="756" 
d="M603 381c0 -59 -44 -94 -94 -110c63 -12 121 -47 121 -120c0 -116 -99 -151 -216 -151h-255v528h221c94 0 174 -22 207 -82c10 -19 16 -40 16 -65zM489 165c0 40 -30 54 -75 54h-113v-106h113c44 0 75 12 75 52zM462 362c0 44 -34 53 -82 53h-79v-101h87
c43 0 74 10 74 48z" />
    <glyph glyph-name="uni0433" unicode="&#x433;" horiz-adv-x="609" 
d="M510 414h-219v-414h-141v528h360v-114z" />
    <glyph glyph-name="uni0434" unicode="&#x434;" horiz-adv-x="822" 
d="M158 114c42 44 70 89 79 163c3 22 5 47 6 76l2 175h389v-414h76v-273h-141v159h-313v-159h-144v273h46zM383 353c-3 -99 -23 -178 -60 -239h169v298h-108z" />
    <glyph glyph-name="uni0435" unicode="&#x435;" horiz-adv-x="731" 
d="M599 85c-41 -56 -109 -95 -206 -95c-127 0 -209 65 -244 157c-12 31 -18 64 -18 99v19c0 125 56 214 144 253c30 13 65 20 103 20c118 0 189 -62 218 -153c10 -32 15 -68 15 -107v-60h-337c6 -53 36 -89 79 -105c14 -6 31 -9 50 -9c58 0 99 23 127 59zM472 326
c0 61 -34 98 -95 98c-66 0 -94 -51 -101 -110h196v12z" />
    <glyph glyph-name="uni0436" unicode="&#x436;" horiz-adv-x="1045" 
d="M658 196h-63v-196h-142v196h-63l-105 -196h-170l167 276l-165 252h175l110 -197h51v197h142v-197h52l111 197h174l-163 -248l168 -280h-174z" />
    <glyph glyph-name="uni0437" unicode="&#x437;" horiz-adv-x="704" 
d="M437 160c0 49 -30 64 -80 64h-77v92h77c45 0 71 16 71 57c0 40 -29 58 -71 58c-41 0 -78 -16 -78 -55h-141c0 85 61 132 129 151c26 7 53 11 83 11c95 0 170 -27 203 -88c10 -19 16 -41 16 -66c0 -55 -40 -92 -81 -112c52 -19 90 -55 90 -123c0 -56 -29 -92 -64 -116
c-40 -28 -98 -43 -164 -43c-92 0 -166 33 -201 92c-13 21 -19 45 -19 74h141c0 -42 42 -60 86 -60c45 0 80 20 80 64z" />
    <glyph glyph-name="uni0438" unicode="&#x438;" horiz-adv-x="758" 
d="M469 528h141v-528h-141v326l-177 -326h-142v528h142v-325z" />
    <glyph glyph-name="uni0439" unicode="&#x439;" horiz-adv-x="758" 
d="M469 528h141v-528h-141v326l-177 -326h-142v528h142v-325zM383 679c42 0 68 23 68 64h101c0 -73 -45 -115 -100 -134c-21 -7 -44 -11 -69 -11c-78 0 -135 33 -158 87c-8 17 -11 37 -11 58h100c0 -43 25 -64 69 -64z" />
    <glyph glyph-name="uni043A" unicode="&#x43a;" horiz-adv-x="754" 
d="M357 195h-56v-195h-142v528h142v-198h50l115 198h178l-173 -251l189 -277h-188z" />
    <glyph glyph-name="uni043B" unicode="&#x43b;" horiz-adv-x="759" 
d="M610 528v-528h-141v414h-123l-5 -111c-7 -170 -37 -303 -211 -303h-23l-2 116h15c59 0 69 43 74 101c2 23 3 52 5 86l10 225h401z" />
    <glyph glyph-name="uni043C" unicode="&#x43c;" horiz-adv-x="950" 
d="M472 167l138 361h177v-528h-141v324l-127 -324h-94l-124 319v-319h-142v528h176z" />
    <glyph glyph-name="uni043D" unicode="&#x43d;" horiz-adv-x="758" 
d="M608 0h-141v203h-176v-203h-141v528h141v-212h176v212h141v-528z" />
    <glyph glyph-name="uni043E" unicode="&#x43e;" horiz-adv-x="756" 
d="M128 269c0 125 55 210 143 249c31 13 67 20 107 20c125 0 202 -68 234 -162c11 -33 17 -68 17 -107v-10c0 -125 -56 -210 -144 -248c-31 -14 -66 -21 -106 -21c-126 0 -203 68 -235 162c-11 33 -16 68 -16 107v10zM488 269c0 83 -28 155 -110 155s-109 -73 -109 -155v-10
c0 -84 26 -155 110 -155c82 0 109 72 109 155v10z" />
    <glyph glyph-name="uni043F" unicode="&#x43f;" horiz-adv-x="758" 
d="M610 0h-142v414h-177v-414h-141v528h460v-528z" />
    <glyph glyph-name="uni0440" unicode="&#x440;" horiz-adv-x="753" 
d="M286 477c29 36 70 61 134 61c111 0 168 -69 192 -158c9 -33 14 -70 14 -110v-11c0 -118 -41 -207 -117 -248c-26 -14 -55 -21 -88 -21c-60 0 -101 24 -130 56v-249h-141v731h131zM384 104c78 0 101 76 101 155v11c0 79 -24 153 -102 153c-48 0 -76 -19 -92 -50v-217
c15 -32 44 -52 93 -52z" />
    <glyph glyph-name="uni0441" unicode="&#x441;" horiz-adv-x="712" 
d="M269 257c0 -83 17 -153 100 -153c53 0 87 29 89 79h132c0 -61 -29 -108 -64 -138c-35 -32 -89 -55 -155 -55c-124 0 -199 67 -228 163c-10 32 -15 67 -15 104v14c0 122 50 208 136 247c30 13 66 20 107 20c103 0 172 -47 203 -120c11 -26 17 -55 17 -86h-132
c0 54 -36 92 -90 92c-82 0 -100 -71 -100 -153v-14z" />
    <glyph glyph-name="uni0442" unicode="&#x442;" horiz-adv-x="700" 
d="M589 415h-170v-415h-141v415h-167v113h478v-113z" />
    <glyph glyph-name="uni0443" unicode="&#x443;" horiz-adv-x="692" 
d="M154 -97c6 0 14 -1 21 -1c52 0 78 18 92 57l16 40l-186 529h152l98 -328l98 328h151l-211 -607c-26 -72 -70 -134 -169 -134c-25 0 -45 2 -62 9v107z" />
    <glyph glyph-name="uni0444" unicode="&#x444;" horiz-adv-x="921" 
d="M389 3c-18 -8 -41 -13 -65 -13c-105 0 -159 71 -182 156c-9 31 -13 66 -13 104v10c0 119 35 215 111 258c24 13 53 20 85 20c26 0 45 -5 64 -14v226h142v-227c17 9 39 15 65 15c109 0 162 -77 184 -166c8 -34 12 -71 12 -112v-10c0 -114 -36 -201 -110 -240
c-24 -14 -53 -20 -85 -20c-25 0 -47 5 -66 14v-207h-142v206zM561 104c73 0 91 72 91 146v10c0 66 -13 123 -50 151c-12 9 -26 13 -42 13c-11 0 -22 -1 -29 -4v-314c9 -2 19 -3 30 -2zM389 420c-9 1 -19 4 -28 4c-76 0 -91 -87 -91 -164v-10c0 -75 15 -146 90 -146
c10 0 20 1 29 2v314z" />
    <glyph glyph-name="uni0445" unicode="&#x445;" horiz-adv-x="699" 
d="M351 371l89 157h151l-150 -258l156 -270h-151l-94 166l-94 -166h-152l157 270l-150 258h151z" />
    <glyph glyph-name="uni0446" unicode="&#x446;" horiz-adv-x="800" 
d="M150 528h141v-414h177v414h142v-415h79l-10 -270h-131v157h-398v528z" />
    <glyph glyph-name="uni0447" unicode="&#x447;" horiz-adv-x="744" 
d="M381 272c27 0 49 4 73 9v247h142v-528h-142v166c-24 -4 -48 -7 -73 -7c-147 0 -242 57 -242 202v167h141v-167c0 -68 32 -89 101 -89z" />
    <glyph glyph-name="uni0448" unicode="&#x448;" horiz-adv-x="1018" 
d="M291 528v-414h145v414h142v-414h145v414h141v-528h-714v528h141z" />
    <glyph glyph-name="uni0449" unicode="&#x449;" horiz-adv-x="1091" 
d="M290 528v-414h145v414h141v-414h145v414h142v-415h105l-10 -270h-131v157h-678v528h141z" />
    <glyph glyph-name="uni044A" unicode="&#x44a;" horiz-adv-x="847" 
d="M112 528h292v-154h100c104 0 180 -40 212 -111c10 -23 16 -49 16 -77c0 -95 -59 -148 -132 -172c-28 -9 -60 -14 -96 -14h-241v414h-151v114zM591 186c0 51 -35 74 -87 74h-100v-147h100c51 0 87 23 87 73z" />
    <glyph glyph-name="uni044B" unicode="&#x44b;" horiz-adv-x="1018" 
d="M301 374h100c104 0 180 -40 212 -111c10 -23 16 -49 16 -77c0 -95 -59 -148 -132 -172c-28 -9 -60 -14 -96 -14h-242v528h142v-154zM854 0h-141v528h141v-528zM488 186c0 51 -35 74 -87 74h-100v-147h100c51 0 87 23 87 73z" />
    <glyph glyph-name="uni044C" unicode="&#x44c;" horiz-adv-x="749" 
d="M301 374h100c104 0 180 -40 212 -111c10 -23 16 -49 16 -77c0 -95 -59 -148 -132 -172c-28 -9 -60 -14 -96 -14h-242v528h142v-154zM488 186c0 51 -35 74 -87 74h-100v-147h100c51 0 87 23 87 73z" />
    <glyph glyph-name="uni044D" unicode="&#x44d;" horiz-adv-x="711" 
d="M444 309c-8 62 -32 115 -102 115c-48 0 -83 -30 -83 -78h-133c0 94 61 151 131 177c26 10 55 15 85 15c125 0 199 -68 229 -163c10 -32 15 -67 15 -104v-14c0 -123 -53 -207 -138 -246c-30 -14 -65 -21 -104 -21c-102 0 -172 47 -202 120c-10 25 -15 54 -15 86h133
c0 -54 29 -92 84 -92c69 0 92 56 100 119h-142v86h142z" />
    <glyph glyph-name="uni044E" unicode="&#x44e;" horiz-adv-x="1003" 
d="M303 326h75c15 97 70 166 152 197c28 10 59 15 93 15c126 0 203 -68 235 -162c11 -33 16 -68 16 -107v-10c0 -125 -55 -210 -143 -248c-31 -14 -67 -21 -107 -21c-113 0 -184 55 -221 133c-13 27 -21 56 -25 89h-75v-212h-141v528h141v-202zM733 269
c0 83 -27 155 -110 155c-80 0 -108 -74 -108 -155v-10c0 -83 27 -155 109 -155c83 0 109 72 109 155v10z" />
    <glyph glyph-name="uni044F" unicode="&#x44f;" horiz-adv-x="750" 
d="M231 207c-54 25 -98 72 -98 145c0 90 59 141 130 163c28 9 59 13 95 13h233v-528h-141v183h-89l-102 -183h-143zM274 347c0 -42 37 -66 81 -66h95v134h-92c-46 0 -84 -24 -84 -68z" />
    <glyph glyph-name="uni0450" unicode="&#x450;" horiz-adv-x="731" 
d="M599 85c-41 -56 -109 -95 -206 -95c-127 0 -209 65 -244 157c-12 31 -18 64 -18 99v19c0 125 56 214 144 253c30 13 65 20 103 20c118 0 189 -62 218 -153c10 -32 15 -68 15 -107v-60h-337c6 -53 36 -89 79 -105c14 -6 31 -9 50 -9c58 0 99 23 127 59zM472 326
c0 61 -34 98 -95 98c-66 0 -94 -51 -101 -110h196v12zM432 599h-116l-135 151h154z" />
    <glyph glyph-name="uni0451" unicode="&#x451;" horiz-adv-x="731" 
d="M599 85c-41 -56 -109 -95 -206 -95c-127 0 -209 65 -244 157c-12 31 -18 64 -18 99v19c0 125 56 214 144 253c30 13 65 20 103 20c118 0 189 -62 218 -153c10 -32 15 -68 15 -107v-60h-337c6 -53 36 -89 79 -105c14 -6 31 -9 50 -9c58 0 99 23 127 59zM472 326
c0 61 -34 98 -95 98c-66 0 -94 -51 -101 -110h196v12zM242 605c-40 0 -68 23 -68 62c0 38 29 62 68 62c37 0 67 -25 67 -62c0 -38 -29 -62 -67 -62zM480 604c-39 0 -68 25 -68 63s29 62 68 62c37 0 67 -25 67 -62c0 -38 -30 -63 -67 -63z" />
    <glyph glyph-name="uni0452" unicode="&#x452;" horiz-adv-x="751" 
d="M378 423c-45 0 -74 -19 -90 -48v-375h-141v581h-77v89h77v80h141v-80h123v-89h-123v-110c30 38 75 67 141 67c124 0 174 -78 174 -205v-103h1v-247c0 -123 -64 -196 -186 -196c-29 0 -47 2 -70 8l7 111c14 -4 31 -6 49 -6c42 0 58 36 58 83v351c0 61 -24 89 -84 89z" />
    <glyph glyph-name="uni0453" unicode="&#x453;" horiz-adv-x="609" 
d="M510 414h-219v-414h-141v528h360v-114zM333 748h153l-135 -151h-115z" />
    <glyph glyph-name="uni0454" unicode="&#x454;" horiz-adv-x="711" 
d="M270 215c5 -63 29 -111 98 -111c53 0 87 29 89 79h132c0 -61 -29 -108 -64 -138c-35 -32 -89 -55 -154 -55c-126 0 -199 67 -229 163c-10 32 -15 67 -15 104v14c0 121 51 208 136 247c30 13 66 20 107 20c103 0 172 -47 203 -120c11 -26 17 -55 17 -86h-132
c0 54 -36 92 -90 92c-73 0 -94 -56 -99 -123h150v-86h-149z" />
    <glyph glyph-name="uni0455" unicode="&#x455;" horiz-adv-x="705" 
d="M354 90c45 0 82 16 82 56c0 34 -27 44 -54 54c-14 5 -32 9 -54 13c-74 16 -143 43 -174 101c-10 17 -14 37 -14 60c0 51 25 89 56 115c35 30 89 49 155 49c99 0 172 -36 205 -102c10 -21 16 -43 16 -68h-141c0 46 -32 70 -81 70c-42 0 -74 -20 -74 -58
c0 -31 26 -43 51 -51c36 -12 90 -20 126 -32c46 -15 83 -40 105 -78c10 -19 16 -41 16 -67c0 -53 -28 -91 -61 -115c-39 -29 -95 -47 -162 -47c-105 0 -181 44 -213 114c-10 21 -15 43 -15 64h134c2 -53 42 -78 97 -78z" />
    <glyph glyph-name="uni0456" unicode="&#x456;" horiz-adv-x="456" 
d="M299 0h-141v528h141v-528zM228 592c-47 0 -79 27 -79 73c0 44 33 73 79 73s79 -27 79 -73s-33 -73 -79 -73z" />
    <glyph glyph-name="uni0457" unicode="&#x457;" horiz-adv-x="464" 
d="M303 0h-142v528h142v-528zM114 598c-40 0 -68 23 -68 62c0 38 29 62 68 62c37 0 67 -25 67 -62c0 -38 -29 -62 -67 -62zM352 597c-39 0 -68 25 -68 63s29 62 68 62c37 0 67 -25 67 -62c0 -38 -30 -63 -67 -63z" />
    <glyph glyph-name="uni0458" unicode="&#x458;" horiz-adv-x="450" 
d="M94 -98c43 0 64 24 64 69v557h142v-557c0 -117 -64 -184 -181 -184c-26 0 -48 3 -69 8v112c13 -3 28 -5 44 -5zM226 592c-47 0 -79 27 -79 73c0 45 32 73 79 73c46 0 79 -28 79 -73c0 -46 -33 -73 -79 -73z" />
    <glyph glyph-name="uni0459" unicode="&#x459;" horiz-adv-x="1049" 
d="M349 303c0 -177 -45 -303 -219 -303h-23l-2 114l15 1c29 0 51 15 65 46s22 78 22 142v225h398v-167h100c104 0 179 -37 212 -107c10 -22 16 -46 16 -73c0 -93 -59 -144 -132 -167c-28 -9 -60 -14 -96 -14h-242v414h-114v-111zM792 182c0 47 -39 66 -87 66h-100v-135h100
c50 0 87 21 87 69z" />
    <glyph glyph-name="uni045A" unicode="&#x45a;" horiz-adv-x="1052" 
d="M291 324h175v204h141v-167h100c104 0 181 -37 214 -107c10 -22 15 -46 15 -73c0 -93 -59 -144 -131 -167c-28 -9 -61 -14 -97 -14h-241v211h-176v-211h-141v528h141v-204zM794 182c0 47 -38 66 -87 66h-100v-135h100c51 0 87 21 87 69z" />
    <glyph glyph-name="uni045B" unicode="&#x45b;" horiz-adv-x="755" 
d="M378 423c-45 0 -74 -19 -90 -48v-375h-141v586h-70v90h70v74h141v-74h131v-90h-131v-115c30 38 75 67 141 67c124 0 174 -78 174 -205v-333h-141v334c0 61 -24 89 -84 89z" />
    <glyph glyph-name="uni045C" unicode="&#x45c;" horiz-adv-x="754" 
d="M357 195h-56v-195h-142v528h142v-198h50l115 198h178l-173 -251l189 -277h-188zM408 748h153l-135 -151h-115z" />
    <glyph glyph-name="uni045D" unicode="&#x45d;" horiz-adv-x="758" 
d="M469 528h141v-528h-141v326l-177 -326h-142v528h142v-325zM453 597h-116l-135 151h154z" />
    <glyph glyph-name="uni045E" unicode="&#x45e;" horiz-adv-x="692" 
d="M154 -97c6 0 14 -1 21 -1c52 0 78 18 92 57l16 40l-186 529h152l98 -328l98 328h151l-211 -607c-26 -72 -70 -134 -169 -134c-25 0 -45 2 -62 9v107zM351 681c42 0 68 23 68 64h101c0 -73 -45 -115 -100 -134c-21 -7 -44 -11 -69 -11c-78 0 -135 33 -158 87
c-8 17 -11 37 -11 58h100c0 -43 25 -64 69 -64z" />
    <glyph glyph-name="uni045F" unicode="&#x45f;" horiz-adv-x="758" 
d="M291 528v-414h177v414h142v-528h-160v-175h-141v175h-159v528h141z" />
    <glyph glyph-name="uni0460" unicode="&#x460;" horiz-adv-x="1137" 
d="M738 107c66 0 95 47 95 120v484h147v-484c0 -118 -58 -192 -146 -222c-30 -10 -62 -15 -96 -15c-80 0 -136 31 -171 79c-36 -48 -92 -79 -171 -79c-116 0 -190 52 -224 134c-12 30 -18 64 -18 103v484h147v-484c0 -69 27 -120 95 -120c67 0 97 47 97 120v484h148v-484
c0 -70 28 -120 97 -120z" />
    <glyph glyph-name="uni0461" unicode="&#x461;" horiz-adv-x="1011" 
d="M662 104c57 0 73 48 73 114v310h141v-310c0 -111 -47 -184 -128 -213c-26 -10 -55 -15 -87 -15c-70 0 -118 28 -150 70c-32 -43 -82 -70 -154 -70c-104 0 -167 52 -196 130c-11 28 -16 61 -16 98v310h141v-310c0 -64 16 -114 72 -114c62 0 84 45 84 114v310h142v-310
c0 -68 17 -114 78 -114z" />
    <glyph glyph-name="uni0462" unicode="&#x462;" horiz-adv-x="816" 
d="M416 532h-111v-77h117c123 0 213 -49 251 -132c13 -28 19 -59 19 -93c0 -116 -69 -183 -158 -213c-33 -11 -70 -17 -111 -17h-265v532h-83v89h83v90h148v-90h110v-89zM545 231c0 71 -51 105 -123 105h-117v-218h117c74 0 123 40 123 113z" />
    <glyph glyph-name="uni0463" unicode="&#x463;" horiz-adv-x="748" 
d="M426 528h-125v-142h100c105 0 180 -42 212 -114c10 -24 16 -50 16 -78c0 -97 -58 -154 -132 -179c-28 -10 -60 -15 -96 -15h-242v528h-76v90h76v144h142v-144h125v-90zM488 193c0 53 -33 79 -87 79h-100v-159h100c54 0 87 27 87 80z" />
    <glyph glyph-name="uni0464" unicode="&#x464;" horiz-adv-x="1083" 
d="M681 110c92 0 131 43 139 127h146c-8 -118 -72 -195 -168 -228c-34 -12 -74 -18 -118 -18c-144 0 -227 77 -268 183c-14 39 -23 83 -25 132h-84v-306h-147v711h147v-291h85c10 139 74 237 179 280c35 14 73 21 115 21c172 0 271 -95 285 -251h-146
c-5 86 -46 131 -139 131c-102 0 -139 -75 -145 -181h210v-114h-211c3 -114 36 -196 145 -196z" />
    <glyph glyph-name="uni0465" unicode="&#x465;" horiz-adv-x="945" 
d="M600 104c51 0 89 28 89 79h133c0 -62 -30 -108 -65 -138c-36 -32 -89 -55 -154 -55c-151 0 -230 94 -243 230h-66v-220h-141v528h141v-218h67c10 104 60 177 142 211c28 11 61 17 99 17c102 0 172 -47 203 -120c10 -26 16 -55 17 -86h-133c0 55 -36 92 -90 92
c-71 0 -90 -52 -98 -114h159v-90h-159c5 -66 27 -116 99 -116z" />
    <glyph glyph-name="uni0466" unicode="&#x466;" horiz-adv-x="851" 
d="M534 205h-46v-205h-122v205h-42l-67 -205h-154l251 711h152l250 -711h-154zM357 306h144l-72 219z" />
    <glyph glyph-name="uni0467" unicode="&#x467;" horiz-adv-x="750" 
d="M453 131h-37v-131h-93v131h-34l-46 -131h-144l200 528h145l200 -528h-144zM321 223h100l-35 103l-15 62l-15 -62z" />
    <glyph glyph-name="uni0468" unicode="&#x468;" horiz-adv-x="1126" 
d="M314 306h163l143 405h152l250 -711h-154l-67 205h-47v-205h-122v205h-42l-67 -205h-154l73 205h-128v-205h-146v711h146v-405zM623 306h144l-71 219z" />
    <glyph glyph-name="uni0469" unicode="&#x469;" horiz-adv-x="989" 
d="M299 223h123l116 305h145l200 -528h-144l-47 131h-37v-131h-94v131h-33l-46 -131h-144l50 132h-89v-132h-141v528h141v-305zM559 223h101l-36 103l-14 62l-15 -62z" />
    <glyph glyph-name="uni046A" unicode="&#x46a;" horiz-adv-x="1062" 
d="M149 164c0 165 96 224 258 227l-182 320h630l-182 -321c151 -5 241 -69 241 -226v-164h-147v164c0 80 -37 107 -117 107h-38v-271h-147v271h-52c-80 0 -117 -27 -117 -107v-164h-147v164zM540 413l92 178h-183z" />
    <glyph glyph-name="uni046B" unicode="&#x46b;" horiz-adv-x="924" 
d="M634 88c0 71 -23 103 -93 103h-6v-191h-141v191h-10c-70 0 -93 -32 -93 -103v-88h-141v88c0 100 37 164 109 192c24 9 51 15 81 18l-133 230h518l-133 -231c118 -14 183 -77 183 -209v-88h-141v88zM466 307l62 128h-123z" />
    <glyph glyph-name="uni046C" unicode="&#x46c;" horiz-adv-x="1353" 
d="M704 271c-79 0 -117 -28 -117 -107v-164h-146v164c0 45 6 82 21 113h-147v-277h-146v711h146v-318h383l-181 318h630l-183 -321c152 -5 241 -68 241 -226v-164h-146v164c0 80 -38 107 -117 107h-39v-271h-146v271h-53zM832 413l92 178h-184z" />
    <glyph glyph-name="uni046D" unicode="&#x46d;" horiz-adv-x="1197" 
d="M865 297c118 -14 183 -77 183 -209v-88h-141v88c0 51 -13 88 -53 99c-12 3 -25 4 -40 4h-6v-191h-141v191h-11c-70 0 -92 -32 -92 -103v-88h-141v88c0 43 5 79 19 108h-139v-196h-142v528h142v-228h309l-133 228h519zM739 307l61 128h-122z" />
    <glyph glyph-name="uni046E" unicode="&#x46e;" horiz-adv-x="704" 
d="M417 197c0 76 -55 108 -134 108h-70v118h73c64 0 109 26 109 89c0 59 -47 82 -112 82h-128v117h128c140 0 253 -47 253 -186c0 -86 -48 -134 -111 -160c74 -25 133 -73 133 -166c0 -109 -62 -169 -146 -195c-30 -9 -64 -14 -100 -14h-28c-36 0 -56 -15 -56 -47
c0 -45 40 -61 71 -76l-40 -86c-91 21 -157 75 -160 182c0 103 71 144 175 144h30c61 0 113 29 113 90zM336 872l71 69h121v-5l-148 -137h-89l-148 138v4h121z" />
    <glyph glyph-name="uni046F" unicode="&#x46f;" horiz-adv-x="694" 
d="M404 154c0 52 -55 65 -114 65h-77v87h80c49 0 90 16 90 64c0 17 -8 30 -24 40s-42 15 -76 15h-128v103h128c99 0 185 -20 223 -80c12 -18 18 -40 18 -65c0 -64 -39 -99 -87 -119c57 -17 108 -49 108 -116c0 -87 -63 -130 -134 -147c-28 -8 -59 -11 -92 -11h-24
c-39 0 -63 -13 -63 -47c0 -44 34 -60 63 -76l-40 -78c-76 25 -142 78 -145 174c0 93 66 129 160 129h27c52 0 107 17 107 62zM326 683l71 69h121v-5l-148 -137h-89l-147 138v4h120z" />
    <glyph glyph-name="uni0470" unicode="&#x470;" horiz-adv-x="917" 
d="M534 310c81 15 114 75 114 175v226h147v-226c0 -178 -102 -276 -261 -295v-190h-146v190c-127 10 -212 74 -248 176c-13 35 -19 74 -19 119v226h147v-226c0 -98 40 -159 120 -174v400h146v-401z" />
    <glyph glyph-name="uni0471" unicode="&#x471;" horiz-adv-x="935" 
d="M392 -6c-164 19 -263 112 -263 294v240h142v-242c0 -100 42 -154 121 -175v417h142v-418c86 19 132 77 132 181c-2 90 -26 167 -52 237h130c37 -61 63 -139 63 -237c0 -133 -55 -214 -145 -261c-35 -19 -78 -31 -128 -36v-227h-142v227z" />
    <glyph glyph-name="uni0472" unicode="&#x472;" horiz-adv-x="878" 
d="M745 339c0 -163 -66 -275 -179 -325c-37 -16 -78 -24 -123 -24c-97 0 -170 40 -219 93c-52 59 -85 147 -85 256v32c0 163 67 276 180 326c38 16 79 24 123 24c98 0 170 -40 219 -94c52 -59 84 -146 84 -256v-32zM288 312c6 -112 48 -202 155 -202s147 91 152 202h-307z
M595 402c-5 110 -46 198 -153 198c-106 0 -147 -88 -154 -198h307z" />
    <glyph glyph-name="uni0473" unicode="&#x473;" horiz-adv-x="755" 
d="M128 269c0 125 54 210 143 249c31 13 66 20 106 20c125 0 202 -68 234 -162c11 -33 17 -68 17 -107v-10c0 -125 -56 -210 -144 -249c-31 -13 -66 -20 -106 -20c-125 0 -202 68 -234 162c-11 33 -16 68 -16 107v10zM485 307c-8 64 -38 117 -108 117
c-71 0 -99 -54 -106 -117h214zM271 218c7 -63 37 -114 107 -114c69 0 98 52 106 114h-213z" />
    <glyph glyph-name="uni0474" unicode="&#x474;" horiz-adv-x="833" 
d="M405 193l8 -45c34 137 75 266 111 400c28 88 68 172 181 172l19 -1l-1 -123h-14c-31 0 -50 -29 -57 -56l-161 -540h-152l-238 711h156z" />
    <glyph glyph-name="uni0475" unicode="&#x475;" horiz-adv-x="701" 
d="M602 417c-5 0 -19 2 -25 2c-30 0 -48 -27 -54 -50l-114 -369h-135l-170 528h148l79 -326l10 -52l9 52l46 173c15 53 36 93 63 121s62 42 104 42c20 0 36 -2 51 -9z" />
    <glyph glyph-name="uni0476" unicode="&#x476;" horiz-adv-x="833" 
d="M405 193l9 -45c33 137 74 266 111 400c27 88 67 172 181 172l19 -1l-1 -123h-14c-32 0 -51 -29 -58 -56l-161 -540h-152l-238 711h156zM392 754h-116l-143 130h140zM558 754h-114l-119 130h136z" />
    <glyph glyph-name="uni0477" unicode="&#x477;" horiz-adv-x="701" 
d="M602 417c-5 0 -19 2 -25 2c-30 0 -48 -27 -54 -50l-114 -369h-135l-170 528h148l79 -326l10 -52l9 52l46 173c15 53 36 93 63 121s62 42 104 42c20 0 36 -2 51 -9zM344 605h-116l-143 130h140zM510 605h-114l-119 130h136z" />
    <glyph glyph-name="uni0478" unicode="&#x478;" horiz-adv-x="1383" 
d="M743 339c0 -164 -66 -274 -179 -324c-37 -17 -78 -25 -122 -25c-98 0 -171 40 -219 94c-53 58 -85 146 -85 255v32c0 163 67 276 180 326c37 16 78 24 123 24c97 0 169 -40 218 -94c52 -59 84 -146 84 -256v-32zM442 110c114 0 153 104 153 229v33
c0 126 -40 228 -154 228c-115 0 -155 -102 -155 -228v-33c0 -100 25 -180 90 -214c19 -10 41 -15 66 -15zM844 -97c6 0 14 -1 21 -1c52 0 78 18 92 57l16 40l-186 529h152l98 -328l98 328h151l-211 -607c-26 -72 -70 -134 -169 -134c-25 0 -45 2 -62 9v107z" />
    <glyph glyph-name="uni0479" unicode="&#x479;" horiz-adv-x="1258" 
d="M128 269c0 125 55 210 143 249c31 13 67 20 107 20c125 0 202 -68 234 -162c11 -33 17 -68 17 -107v-10c0 -125 -56 -210 -144 -248c-31 -14 -66 -21 -106 -21c-126 0 -203 68 -235 162c-11 33 -16 68 -16 107v10zM488 269c0 83 -28 155 -110 155s-109 -73 -109 -155v-10
c0 -84 26 -155 110 -155c82 0 109 72 109 155v10zM719 -97c6 0 14 -1 21 -1c52 0 78 18 92 57l16 40l-186 529h152l98 -328l98 328h151l-211 -607c-26 -72 -70 -134 -169 -134c-25 0 -45 2 -62 9v107z" />
    <glyph glyph-name="uni047A" unicode="&#x47a;" horiz-adv-x="878" 
d="M488 544h-96v226h96v-226zM489 -66h-96v230h96v-230zM745 339c0 -163 -66 -275 -179 -325c-37 -16 -78 -24 -123 -24c-97 0 -170 40 -219 93c-52 59 -85 147 -85 256v32c0 163 67 276 180 326c38 16 79 24 123 24c98 0 170 -40 219 -94c52 -59 84 -146 84 -256v-32z
M443 110c115 0 153 104 153 229v33c0 126 -39 228 -154 228c-114 0 -155 -102 -155 -228v-33c0 -100 26 -180 90 -214c20 -10 42 -15 66 -15z" />
    <glyph glyph-name="uni047B" unicode="&#x47b;" horiz-adv-x="755" 
d="M420 369h-81v219h81v-219zM418 -61h-82v227h82v-227zM128 269c0 125 55 210 143 249c31 13 67 20 107 20c125 0 202 -68 234 -162c11 -33 17 -68 17 -107v-10c0 -125 -56 -210 -144 -249c-31 -13 -66 -20 -106 -20c-126 0 -203 68 -235 162c-11 33 -16 68 -16 107v10z
M488 269c0 83 -28 155 -110 155s-109 -73 -109 -155v-10c0 -84 26 -155 110 -155c82 0 109 72 109 155v10z" />
    <glyph glyph-name="uni047C" unicode="&#x47c;" horiz-adv-x="1137" 
d="M825 469c0 74 -29 123 -95 123v119c115 0 189 -54 223 -138c12 -30 18 -65 18 -104v-239c0 -118 -57 -194 -145 -224c-30 -11 -62 -16 -97 -16c-75 0 -131 29 -167 73c-35 -45 -90 -73 -167 -73c-115 0 -189 54 -223 137c-12 29 -19 64 -19 103v239c0 119 58 196 146 227
c30 10 62 15 97 15v-119c-67 0 -95 -49 -95 -123v-239c0 -74 28 -123 95 -123s97 47 97 120v171h140v-171c0 -73 29 -120 97 -120c66 0 95 50 95 123v239zM422 787c0 72 41 106 113 106c42 0 77 -16 110 -29c37 -15 77 -30 129 -30h10v-65h-10c-79 0 -138 27 -193 49
c-16 7 -31 10 -45 10c-32 0 -49 -17 -49 -50v-9h-65v18zM501 652c16 22 33 42 33 74v46h83v-49c0 -23 -15 -43 -26 -57c-13 -15 -33 -32 -50 -41z" />
    <glyph glyph-name="uni047D" unicode="&#x47d;" horiz-adv-x="999" 
d="M707 311c0 65 -24 112 -82 112v114c106 0 175 -51 207 -128c11 -29 17 -61 17 -98v-95c0 -109 -48 -182 -127 -211c-26 -10 -53 -15 -83 -15c-67 0 -112 30 -140 72c-30 -42 -74 -72 -140 -72c-103 0 -167 52 -195 128c-10 28 -16 61 -16 98v95c0 112 52 182 135 212
c28 9 57 14 89 14v-114c-59 0 -83 -46 -83 -112v-95c0 -39 7 -68 19 -85c13 -18 30 -27 51 -27c57 0 72 54 72 114v78h135v-78c0 -64 17 -114 73 -114c20 0 37 9 49 27c12 17 19 46 19 85v95zM361 622c0 72 41 106 113 106c60 0 101 -28 149 -43c26 -9 56 -16 91 -16h10v-65
h-11c-79 0 -138 27 -193 50c-16 6 -30 9 -44 9c-32 0 -50 -17 -50 -50v-9h-65v18zM444 490c16 22 32 42 32 74v46h83v-49c0 -23 -14 -43 -26 -57c-13 -16 -32 -32 -49 -42z" />
    <glyph glyph-name="uni047E" unicode="&#x47e;" horiz-adv-x="1137" 
d="M352 824v65h432l1 -65h-177v-62h-88v62h-168zM738 107c66 0 95 47 95 120v484h147v-484c0 -118 -58 -192 -146 -222c-30 -10 -62 -15 -96 -15c-80 0 -136 31 -171 79c-36 -48 -92 -79 -171 -79c-116 0 -190 52 -224 134c-12 30 -18 64 -18 103v484h147v-484
c0 -69 27 -120 95 -120c67 0 97 47 97 120v484h148v-484c0 -70 28 -120 97 -120z" />
    <glyph glyph-name="uni047F" unicode="&#x47f;" horiz-adv-x="1011" 
d="M311 646v65h403l2 -65h-164v-62h-88v62h-153zM662 104c57 0 73 48 73 114v310h141v-310c0 -111 -47 -184 -128 -213c-26 -10 -55 -15 -87 -15c-70 0 -118 28 -150 70c-32 -43 -82 -70 -154 -70c-104 0 -167 52 -196 130c-11 28 -16 61 -16 98v310h141v-310
c0 -64 16 -114 72 -114c62 0 84 45 84 114v310h142v-310c0 -68 17 -114 78 -114z" />
    <glyph glyph-name="uni0480" unicode="&#x480;" horiz-adv-x="812" 
d="M533 474c0 87 -33 129 -119 129c-93 0 -128 -81 -128 -174v-147c0 -76 23 -134 72 -162c16 -9 34 -13 56 -13h95v-283h-146v170c-109 17 -179 86 -209 181c-10 33 -15 68 -15 107v146c0 137 64 230 161 272c34 14 72 21 114 21c166 0 265 -81 265 -247h-146z" />
    <glyph glyph-name="uni0481" unicode="&#x481;" horiz-adv-x="725" 
d="M279 257c0 -81 21 -153 103 -153h91v-282h-141v172c-97 16 -157 81 -182 169c-8 29 -12 61 -12 94v14c0 122 52 208 138 247c30 13 66 20 106 20c101 0 171 -47 200 -120c10 -26 16 -55 16 -86h-133c0 53 -31 92 -83 92c-80 0 -103 -73 -103 -153v-14z" />
    <glyph glyph-name="uni0482" unicode="&#x482;" horiz-adv-x="813" 
d="M389 219l142 -84l-36 -62l-142 83l-88 -156h-86l110 194l-141 84l35 62l143 -83l99 176l-142 83l36 64l142 -84l90 159h84l-111 -197l143 -84l-37 -62l-141 83z" />
    <glyph glyph-name="uni0483" unicode="&#x483;" horiz-adv-x="191" 
d="M-262 641v-62l-87 1l1 116h266v53l87 -1v-107h-267z" />
    <glyph glyph-name="uni0484" unicode="&#x484;" horiz-adv-x="191" 
d="M-41 645c0 33 -20 50 -52 50c-14 0 -29 -3 -45 -9c-55 -23 -117 -50 -196 -50h-12v66h11c78 0 130 30 189 49c18 6 37 9 55 9c74 0 118 -33 118 -106v-18h-68v9z" />
    <glyph glyph-name="uni0485" unicode="&#x485;" horiz-adv-x="191" 
d="M-207 732v70h93l-1 -78l29 -53l-40 -33z" />
    <glyph glyph-name="uni0486" unicode="&#x486;" horiz-adv-x="191" 
d="M-158 638l-40 33l28 53v78h92v-70z" />
    <glyph glyph-name="uni0488" unicode="&#x488;" horiz-adv-x="191" 
d="M-163 668c-31 0 -48 -18 -48 -49h-55c0 59 44 91 103 91c61 0 103 -32 103 -91h-55c0 31 -17 49 -48 49zM126 533c-31 0 -47 -20 -47 -50h-55c0 59 41 92 102 92c60 0 103 -32 103 -92h-55c0 31 -17 50 -48 50zM217 287c-31 0 -47 -19 -47 -49h-55c0 59 42 92 102 92
s103 -33 103 -92h-55c0 32 -17 49 -48 49zM121 34c-31 0 -47 -20 -47 -50h-55c0 59 42 92 102 92s103 -33 103 -92h-55c0 31 -17 50 -48 50zM-161 -105c-30 0 -47 -19 -47 -49h-55c0 59 43 92 102 92c60 0 103 -33 103 -92h-55c0 31 -16 49 -48 49zM-443 533
c-30 0 -47 -19 -47 -50h-56c0 59 44 92 103 92c61 0 103 -32 103 -92h-54c0 31 -17 50 -49 50zM-529 287c-30 0 -47 -19 -47 -49h-56c0 59 44 92 103 92c61 0 103 -33 103 -92h-55c0 31 -16 49 -48 49zM-448 34c-30 0 -47 -19 -47 -50h-56c0 58 45 92 103 92
c49 0 82 -21 97 -55c5 -11 7 -24 7 -37h-56c0 31 -16 50 -48 50z" />
    <glyph glyph-name="uni0489" unicode="&#x489;" horiz-adv-x="-94" 
d="M-99 -29l6 -7l-60 -166h-47l34 173h67zM-194 550l-6 7l60 165h47l-35 -172h-66zM138 308l6 6l162 -61v-47l-168 34v68zM-431 211l-7 -5l-162 60v48l169 -35v-68zM21 489l1 8l156 75l33 -33l-143 -98zM-314 10l-1 -8l-156 -75l-34 34l143 98zM-383 420l-8 1l-72 159l32 34
l96 -146zM88 79l8 -1l73 -159l-32 -35l-96 146z" />
    <glyph glyph-name="uni048A" unicode="&#x48a;" horiz-adv-x="891" 
d="M586 711h147v-711h-147v472l-285 -472h-146v711h146v-473zM445 834c42 0 68 23 68 64h101c0 -73 -45 -115 -100 -134c-21 -7 -44 -11 -69 -11c-78 0 -135 33 -158 87c-8 17 -11 37 -11 58h100c0 -43 25 -64 69 -64zM671 -161c24 46 51 87 51 157v103h120l-1 -96
c0 -67 -28 -120 -58 -161c-12 -15 -24 -29 -38 -41z" />
    <glyph glyph-name="uni048B" unicode="&#x48b;" horiz-adv-x="758" 
d="M469 528h141v-528h-141v326l-177 -326h-142v528h142v-325zM383 679c42 0 68 23 68 64h101c0 -73 -45 -115 -100 -134c-21 -7 -44 -11 -69 -11c-78 0 -135 33 -158 87c-8 17 -11 37 -11 58h100c0 -43 25 -64 69 -64zM549 -161c24 46 51 87 51 157v103h120l-1 -96
c0 -67 -28 -120 -58 -161c-12 -15 -24 -29 -38 -41z" />
    <glyph glyph-name="uni048C" unicode="&#x48c;" horiz-adv-x="816" 
d="M416 532h-111v-77h117c123 0 213 -49 251 -132c13 -28 19 -59 19 -93c0 -116 -69 -183 -158 -213c-33 -11 -70 -17 -111 -17h-265v532h-83v89h83v90h148v-90h110v-89zM545 231c0 71 -51 105 -123 105h-117v-218h117c74 0 123 40 123 113z" />
    <glyph glyph-name="uni048D" unicode="&#x48d;" horiz-adv-x="748" 
d="M426 622h-125v-236h100c105 0 180 -42 212 -114c10 -24 16 -50 16 -78c0 -97 -58 -154 -132 -179c-28 -10 -60 -15 -96 -15h-242v622h-76v89h76v78h142v-78h125v-89zM488 193c0 53 -33 79 -87 79h-100v-159h100c54 0 87 27 87 80z" />
    <glyph glyph-name="uni048E" unicode="&#x48e;" horiz-adv-x="820" 
d="M695 250l-50 -44l-213 239l49 44zM306 250v-250h-147v711h278c125 0 212 -53 249 -141c12 -29 18 -61 18 -94c0 -116 -66 -181 -155 -210c-33 -11 -70 -16 -112 -16h-131zM556 475c0 73 -45 117 -119 117h-131v-223h131c72 0 119 34 119 106z" />
    <glyph glyph-name="uni048F" unicode="&#x48f;" horiz-adv-x="754" 
d="M617 2l-51 -44l-187 226l50 44zM286 477c29 36 70 61 133 61c112 0 169 -69 193 -158c9 -33 13 -70 13 -110v-11c0 -118 -40 -207 -117 -248c-25 -14 -54 -21 -87 -21c-60 0 -101 24 -130 56v-249h-141v731h131zM383 104c79 0 101 76 101 155v11c0 79 -23 153 -102 153
c-47 0 -75 -19 -92 -50v-217c16 -32 45 -52 93 -52z" />
    <glyph glyph-name="uni0490" unicode="&#x490;" horiz-adv-x="746" 
d="M630 598h-7v-6h-319v-592h-146v711h331v182h141v-295z" />
    <glyph glyph-name="uni0491" unicode="&#x491;" horiz-adv-x="652" 
d="M529 415h-20v-1h-219v-414h-141v528h239v155h141v-268z" />
    <glyph glyph-name="uni0492" unicode="&#x492;" horiz-adv-x="748" 
d="M424 323h-117v-323h-147v323h-77v90h77v298h466v-119h-319v-179h117v-90z" />
    <glyph glyph-name="uni0493" unicode="&#x493;" horiz-adv-x="609" 
d="M409 221h-118v-221h-141v221h-82v90h82v217h360v-114h-219v-103h118v-90z" />
    <glyph glyph-name="uni0494" unicode="&#x494;" horiz-adv-x="753" 
d="M543 114c0 113 -47 179 -155 179h-82v-293h-147v711h466v-119h-319v-184h82c142 0 233 -58 274 -160c14 -36 22 -78 22 -126c0 -129 -52 -219 -141 -263c-34 -17 -76 -25 -124 -25l-1 108c95 0 125 77 125 172z" />
    <glyph glyph-name="uni0495" unicode="&#x495;" horiz-adv-x="719" 
d="M450 87c0 83 -52 123 -135 123h-25v-210h-141v528h360v-114h-219v-89h25c127 0 215 -46 255 -134c14 -29 21 -64 21 -104c0 -85 -48 -144 -99 -184c-24 -18 -51 -32 -83 -43l-59 95c32 15 56 32 74 53c17 21 26 47 26 79z" />
    <glyph glyph-name="uni0496" unicode="&#x496;" horiz-adv-x="1188" 
d="M759 290h-84v-290h-147v290h-86l-155 -290h-183l222 381l-211 330h182l158 -287h73v287h147v-287h71l154 287h182l-207 -329l218 -382h-183zM1157 -174h-141v274h141v-274z" />
    <glyph glyph-name="uni0497" unicode="&#x497;" horiz-adv-x="1045" 
d="M658 196h-63v-196h-142v196h-63l-105 -196h-170l167 276l-165 252h175l110 -197h51v197h142v-197h52l111 197h174l-163 -248l168 -280h-174zM993 -174h-141v274h141v-274z" />
    <glyph glyph-name="uni0498" unicode="&#x498;" horiz-adv-x="807" 
d="M521 201c0 76 -43 104 -119 104h-87v115h87c68 0 108 28 108 95c0 62 -53 87 -116 87c-48 0 -83 -18 -100 -48c-6 -11 -9 -22 -9 -35h-146c0 69 34 117 76 148c43 31 106 53 179 53c116 0 206 -36 244 -114c12 -25 19 -55 19 -88c0 -81 -54 -127 -110 -153
c70 -25 121 -75 121 -166c0 -111 -76 -169 -164 -194c-34 -9 -70 -14 -110 -14c-124 0 -222 49 -255 141c-7 19 -10 41 -10 65h147c0 -46 34 -70 70 -82c14 -5 30 -7 48 -7c56 0 100 19 118 56c6 11 9 24 9 37zM472 -234h-141v274h141v-274z" />
    <glyph glyph-name="uni0499" unicode="&#x499;" horiz-adv-x="704" 
d="M437 160c0 49 -30 64 -80 64h-77v92h77c45 0 71 16 71 57c0 40 -29 58 -71 58c-41 0 -78 -16 -78 -55h-141c0 85 61 132 129 151c26 7 53 11 83 11c95 0 170 -27 203 -88c10 -19 16 -41 16 -66c0 -55 -40 -92 -81 -112c52 -19 90 -55 90 -123c0 -56 -29 -92 -64 -116
c-40 -28 -98 -43 -164 -43c-92 0 -166 33 -201 92c-13 21 -19 45 -19 74h141c0 -42 42 -60 86 -60c45 0 80 20 80 64zM427 -234h-141v274h141v-274z" />
    <glyph glyph-name="uni049A" unicode="&#x49a;" horiz-adv-x="836" 
d="M391 291h-84v-291h-147v711h147v-285h67l174 285h178l-219 -336l242 -375h-174zM807 -174h-141v274h141v-274z" />
    <glyph glyph-name="uni049B" unicode="&#x49b;" horiz-adv-x="754" 
d="M357 195h-56v-195h-142v528h142v-198h50l115 198h178l-173 -251l189 -277h-188zM717 -174h-141v274h141v-274z" />
    <glyph glyph-name="uni049C" unicode="&#x49c;" horiz-adv-x="852" 
d="M752 711l-186 -325l205 -386h-187l-131 289h-26v-112h-81v112h-40v-289h-148v711h148v-288h40v126h81v-126h18l125 288h182z" />
    <glyph glyph-name="uni049D" unicode="&#x49d;" horiz-adv-x="793" 
d="M690 528l-143 -251l151 -277h-181l-81 195h-23v-83h-74v83h-38v-195h-142v528h142v-198h38v92h74v-92h22l77 198h178z" />
    <glyph glyph-name="uni049E" unicode="&#x49e;" horiz-adv-x="846" 
d="M401 291h-84v-291h-147v536h-90v89h90v86h147v-86h105v-89h-105v-110h67l173 285h179l-219 -336l242 -375h-175z" />
    <glyph glyph-name="uni049F" unicode="&#x49f;" horiz-adv-x="734" 
d="M352 212l-52 -51v-161h-141v590h-97v89h97v71h141v-71h103v-89h-103v-256c51 68 109 129 164 194h169l-191 -220l208 -308h-162z" />
    <glyph glyph-name="uni04A0" unicode="&#x4a0;" horiz-adv-x="1016" 
d="M577 291h-85v-291h-146v597h-231v114h377v-285h67l174 285h179l-219 -336l242 -375h-175z" />
    <glyph glyph-name="uni04A1" unicode="&#x4a1;" horiz-adv-x="906" 
d="M515 195h-57v-195h-141v414h-193v114h334v-198h51l115 198h178l-173 -251l189 -277h-188z" />
    <glyph glyph-name="uni04A2" unicode="&#x4a2;" horiz-adv-x="897" 
d="M738 0h-146v305h-286v-305h-147v711h147v-288h286v288h146v-711zM845 -174h-141v274h141v-274z" />
    <glyph glyph-name="uni04A3" unicode="&#x4a3;" horiz-adv-x="758" 
d="M608 0h-141v203h-176v-203h-141v528h141v-212h176v212h141v-528zM716 -174h-141v274h141v-274z" />
    <glyph glyph-name="uni04A4" unicode="&#x4a4;" horiz-adv-x="1176" 
d="M306 423h286v288h450v-114h-304v-597h-146v305h-286v-305h-147v711h147v-288z" />
    <glyph glyph-name="uni04A5" unicode="&#x4a5;" horiz-adv-x="897" 
d="M290 316h175v212h308v-113h-166v-415h-142v203h-175v-203h-141v528h141v-212z" />
    <glyph glyph-name="uni04A6" unicode="&#x4a6;" horiz-adv-x="1235" 
d="M964 113c0 113 -46 179 -153 179h-72v-292h-147v592h-285v-592h-147v711h579v-304h72c141 0 232 -58 273 -161c14 -35 21 -77 21 -125c0 -129 -52 -219 -141 -263c-34 -17 -75 -25 -124 -25v108c95 0 124 77 124 172z" />
    <glyph glyph-name="uni04A7" unicode="&#x4a7;" horiz-adv-x="1056" 
d="M797 91c0 85 -59 122 -144 122h-45v-213h-141v414h-177v-414h-141v528h459v-199h45c129 0 222 -45 263 -133c14 -30 21 -65 21 -105c0 -85 -47 -145 -99 -184c-23 -18 -50 -32 -81 -43l-59 94c55 24 99 59 99 133z" />
    <glyph glyph-name="uni04A8" unicode="&#x4a8;" horiz-adv-x="994" 
d="M767 114c26 -5 53 -8 86 -8v-112c-77 0 -142 12 -199 33c-47 -23 -103 -37 -170 -37c-109 0 -192 40 -248 96c-55 53 -94 133 -94 236v103c0 132 60 230 151 274c31 15 66 22 104 22v-123c-58 0 -82 -55 -93 -104c-5 -21 -7 -43 -7 -68v-104c0 -95 41 -164 108 -194
c23 -11 49 -16 79 -16c10 0 19 1 29 2c-58 57 -100 136 -100 244v95c0 117 46 207 123 247c26 14 54 21 86 21c74 0 128 -36 163 -82c38 -51 63 -123 63 -211v-81c0 -99 -34 -176 -81 -233zM700 445c0 75 -7 153 -78 153c-64 0 -70 -77 -70 -144v-97c0 -83 35 -144 84 -184
c38 40 64 98 64 174v98z" />
    <glyph glyph-name="uni04A9" unicode="&#x4a9;" horiz-adv-x="836" 
d="M638 75c23 -4 48 -7 75 -7v-81c-66 0 -121 8 -169 26c-38 -14 -79 -23 -129 -23c-132 0 -219 68 -257 162c-14 33 -20 68 -20 106v48c0 105 49 181 123 215c26 11 54 17 85 17v-118c-44 -6 -60 -58 -60 -113v-49c0 -67 27 -115 72 -137c15 -8 32 -12 52 -13
c-29 39 -47 87 -47 151v76c0 90 38 156 98 187c20 11 43 16 69 16c90 0 139 -66 161 -137c8 -27 13 -57 13 -89v-72c0 -72 -28 -127 -66 -165zM511 138c30 23 51 60 51 110v73c0 37 -7 75 -28 92c-6 5 -12 7 -20 7c-37 0 -47 -51 -47 -90v-78c0 -45 15 -83 44 -114z" />
    <glyph glyph-name="uni04AA" unicode="&#x4aa;" horiz-adv-x="845" 
d="M431 110c91 0 134 42 140 127h147c-9 -119 -74 -194 -170 -228c-34 -13 -73 -19 -117 -19c-150 0 -236 84 -273 200c-14 42 -20 89 -20 142v46c0 158 63 271 173 319c36 16 77 24 122 24c172 0 268 -96 286 -251h-147c-6 86 -47 131 -139 131c-116 0 -147 -94 -147 -222
v-47c0 -121 25 -222 145 -222zM501 -230h-141v274h141v-274z" />
    <glyph glyph-name="uni04AB" unicode="&#x4ab;" horiz-adv-x="712" 
d="M269 257c0 -83 17 -153 101 -153c52 0 86 29 89 79h132c0 -61 -30 -108 -64 -138c-36 -32 -90 -55 -155 -55c-125 0 -200 67 -229 163c-10 32 -15 67 -15 104v14c0 122 50 208 136 247c30 13 66 20 107 20c103 0 172 -47 203 -120c11 -26 17 -55 17 -86h-132
c0 54 -36 92 -90 92c-82 0 -100 -71 -100 -153v-14zM437 -230h-141v274h141v-274z" />
    <glyph glyph-name="uni04AC" unicode="&#x4ac;" horiz-adv-x="809" 
d="M695 592h-218v-592h-147v592h-214v119h579v-119zM570 -174h-141v274h141v-274z" />
    <glyph glyph-name="uni04AD" unicode="&#x4ad;" horiz-adv-x="700" 
d="M589 415h-170v-415h-141v415h-167v113h478v-113zM527 -174h-141v274h141v-274z" />
    <glyph glyph-name="uni04AE" unicode="&#x4ae;" horiz-adv-x="809" 
d="M405 391l148 320h160l-234 -453v-258h-149v258l-233 453h161z" />
    <glyph glyph-name="uni04AF" unicode="&#x4af;" horiz-adv-x="701" 
d="M353 167l98 361h148l-177 -521v-211h-141v215l-177 517h148z" />
    <glyph glyph-name="uni04B0" unicode="&#x4b0;" horiz-adv-x="809" 
d="M579 251h-100v-251h-149v251h-92v89h50l-191 371h161l147 -320l148 320h160l-191 -371h57v-89z" />
    <glyph glyph-name="uni04B1" unicode="&#x4b1;" horiz-adv-x="701" 
d="M526 5h-104v-209h-141v209h-97v90h68l-148 433h148l101 -361l98 361h148l-148 -433h75v-90z" />
    <glyph glyph-name="uni04B2" unicode="&#x4b2;" horiz-adv-x="826" 
d="M414 466l133 245h169l-207 -353l212 -358h-170l-137 249l-137 -249h-170l212 358l-207 353h169zM755 -174h-141v274h141v-274z" />
    <glyph glyph-name="uni04B3" unicode="&#x4b3;" horiz-adv-x="699" 
d="M351 371l89 157h151l-150 -258l156 -270h-151l-94 166l-94 -166h-152l157 270l-150 258h151zM628 -174h-141v274h141v-274z" />
    <glyph glyph-name="uni04B4" unicode="&#x4b4;" horiz-adv-x="1086" 
d="M275 597h-162v114h469v-114h-160v-479h284v593h147v-593h97l-9 -289h-137v171h-529v597z" />
    <glyph glyph-name="uni04B5" unicode="&#x4b5;" horiz-adv-x="878" 
d="M225 415h-107v113h345v-113h-96v-301h176v414h142v-415h79l-10 -270h-131v157h-398v415z" />
    <glyph glyph-name="uni04B6" unicode="&#x4b6;" horiz-adv-x="886" 
d="M440 374c49 0 99 4 140 14v323h147v-711h-147v270c-43 -8 -91 -15 -140 -15c-168 0 -277 70 -277 237v219h147v-219c0 -64 21 -102 73 -113c16 -3 35 -5 57 -5zM832 -174h-141v274h141v-274z" />
    <glyph glyph-name="uni04B7" unicode="&#x4b7;" horiz-adv-x="744" 
d="M381 272c27 0 49 4 73 9v247h142v-528h-142v166c-24 -4 -48 -7 -73 -7c-147 0 -242 57 -242 202v167h141v-167c0 -68 32 -89 101 -89zM703 -174h-141v274h141v-274z" />
    <glyph glyph-name="uni04B8" unicode="&#x4b8;" horiz-adv-x="871" 
d="M475 145h-81v372h81v-372zM427 374c48 0 98 4 139 14v323h147v-711h-147v270c-42 -8 -91 -15 -139 -15c-168 0 -278 70 -278 237v219h147v-219c0 -64 21 -102 73 -113c16 -3 36 -5 58 -5z" />
    <glyph glyph-name="uni04B9" unicode="&#x4b9;" horiz-adv-x="751" 
d="M418 87h-82v318h82v-318zM388 272c27 0 50 4 74 9v247h141v-528h-141v166c-24 -4 -48 -7 -74 -7c-147 0 -241 57 -241 202v167h141v-167c0 -68 32 -89 100 -89z" />
    <glyph glyph-name="uni04BA" unicode="&#x4ba;" horiz-adv-x="890" 
d="M449 337c-50 0 -99 -6 -141 -14v-323h-147v711h147v-270c43 8 91 15 140 15c168 0 277 -70 277 -237v-219h-147v219c0 64 -21 102 -73 113c-16 3 -35 5 -56 5z" />
    <glyph glyph-name="uni04BB" unicode="&#x4bb;" horiz-adv-x="750" 
d="M378 423c-45 0 -74 -19 -90 -48v-375h-141v750h141v-279c30 38 75 67 141 67c124 0 174 -78 174 -205v-333h-141v334c0 61 -24 89 -84 89z" />
    <glyph glyph-name="uni04BC" unicode="&#x4bc;" horiz-adv-x="947" 
d="M564 117c68 0 130 11 179 30l24 -121c-51 -25 -126 -37 -203 -37c-159 0 -263 68 -305 183c-14 38 -20 79 -20 124v22c-102 16 -156 93 -156 210h97c0 -54 19 -88 59 -103c0 140 76 232 177 274c35 15 73 22 115 21c145 0 225 -82 258 -197c12 -41 18 -87 18 -138v-78
h-421v-11c0 -117 59 -179 178 -179zM660 440c0 91 -38 151 -129 151c-76 0 -118 -44 -136 -102c-6 -20 -9 -41 -9 -64h274v15z" />
    <glyph glyph-name="uni04BD" unicode="&#x4bd;" horiz-adv-x="788" 
d="M672 85c-41 -56 -110 -95 -206 -95c-122 0 -203 60 -240 144c-13 29 -20 61 -22 94c-90 19 -141 85 -141 193h88c0 -51 19 -85 57 -99c14 98 69 170 151 201c27 10 57 15 90 15c119 0 190 -62 219 -153c10 -32 15 -68 15 -107v-60h-337c6 -53 36 -89 80 -105
c14 -6 31 -9 49 -9c58 0 99 23 127 59zM544 326c0 61 -33 98 -94 98c-67 0 -95 -50 -102 -110h196v12z" />
    <glyph glyph-name="uni04BE" unicode="&#x4be;" horiz-adv-x="947" 
d="M564 117c68 0 130 11 179 30l24 -121c-51 -25 -126 -37 -203 -37c-159 0 -263 68 -305 184c-14 37 -20 78 -20 123v22c-102 16 -156 93 -156 210h97c0 -54 19 -88 59 -103c0 140 76 232 177 274c35 15 73 22 115 21c145 0 225 -82 258 -197c12 -41 18 -87 18 -138v-78
h-421v-11c0 -117 59 -179 178 -179zM660 440c0 91 -38 151 -129 151c-76 0 -118 -44 -136 -101c-6 -21 -9 -42 -9 -65h274v15zM627 -229h-141v274h141v-274z" />
    <glyph glyph-name="uni04BF" unicode="&#x4bf;" horiz-adv-x="788" 
d="M672 85c-41 -56 -110 -95 -206 -95c-122 0 -203 60 -240 145c-13 29 -20 60 -22 93c-90 19 -141 85 -141 193h88c0 -51 19 -85 57 -99c14 98 69 170 151 201c27 10 57 15 91 15c118 0 189 -62 218 -153c10 -32 15 -68 15 -107v-60h-337c6 -53 36 -89 80 -105
c14 -6 31 -9 49 -9c58 0 99 23 127 59zM544 326c0 61 -33 98 -94 98c-67 0 -95 -50 -102 -110h196v12zM517 -225h-141v274h141v-274z" />
    <glyph glyph-name="uni04C0" unicode="&#x4c0;" horiz-adv-x="482" 
d="M315 0h-146v711h146v-711z" />
    <glyph glyph-name="uni04C1" unicode="&#x4c1;" horiz-adv-x="1188" 
d="M759 290h-84v-290h-147v290h-86l-155 -290h-183l222 381l-211 330h182l158 -287h73v287h147v-287h71l154 287h182l-207 -329l218 -382h-183zM597 834c42 0 68 23 68 64h101c0 -73 -45 -115 -100 -134c-21 -7 -44 -11 -69 -11c-78 0 -135 33 -158 87c-8 17 -11 37 -11 58
h100c0 -43 25 -64 69 -64z" />
    <glyph glyph-name="uni04C2" unicode="&#x4c2;" horiz-adv-x="1045" 
d="M658 196h-63v-196h-142v196h-63l-105 -196h-170l167 276l-165 252h175l110 -197h51v197h142v-197h52l111 197h174l-163 -248l168 -280h-174zM535 679c42 0 68 23 68 64h101c0 -73 -45 -115 -100 -134c-21 -7 -44 -11 -69 -11c-78 0 -135 33 -158 87c-8 17 -11 37 -11 58
h100c0 -43 25 -64 69 -64z" />
    <glyph glyph-name="uni04C3" unicode="&#x4c3;" horiz-adv-x="840" 
d="M581 111c0 110 -45 177 -148 177h-127v-288h-148v711h148v-286h48l175 286h182l-213 -309c143 -22 230 -116 230 -282c0 -146 -67 -244 -180 -278c-26 -8 -56 -12 -90 -12v112c94 0 123 75 123 169z" />
    <glyph glyph-name="uni04C4" unicode="&#x4c4;" horiz-adv-x="761" 
d="M499 76c0 85 -59 119 -144 119h-54v-195h-142v528h142v-198h42l123 198h178l-167 -235c95 -28 163 -94 163 -217c0 -85 -48 -142 -100 -181c-23 -17 -50 -31 -82 -42l-58 94c55 24 97 58 99 129z" />
    <glyph glyph-name="uni04C5" unicode="&#x4c5;" horiz-adv-x="897" 
d="M738 711v-711h-147v592h-189l-8 -201c-6 -125 -20 -229 -66 -303c-36 -58 -89 -88 -176 -88h-36v118h19c48 4 71 23 87 63c8 21 13 48 16 82s6 77 9 128l14 320h477zM675 -161c24 46 51 87 51 157v103h120l-1 -96c0 -67 -28 -120 -58 -161c-12 -15 -24 -29 -38 -41z" />
    <glyph glyph-name="uni04C6" unicode="&#x4c6;" horiz-adv-x="759" 
d="M610 528v-528h-141v414h-123l-5 -111c-7 -170 -37 -303 -211 -303h-23l-2 116h15c59 0 69 43 74 101c2 23 3 52 5 86l10 225h401zM549 -161c24 46 51 87 51 157v103h120l-1 -96c0 -67 -28 -120 -58 -161c-12 -15 -24 -29 -38 -41z" />
    <glyph glyph-name="uni04C7" unicode="&#x4c7;" horiz-adv-x="898" 
d="M533 -95c42 0 59 36 59 82v304h-285v-291h-147v711h147v-302h285v302h147v-724c0 -125 -66 -200 -190 -200c-29 0 -48 2 -72 8l7 116c14 -4 30 -6 49 -6z" />
    <glyph glyph-name="uni04C8" unicode="&#x4c8;" horiz-adv-x="755" 
d="M407 -99c42 0 58 36 58 82v220h-175v-203h-141v528h141v-212h175v212h142v-545c0 -123 -64 -196 -186 -196c-28 0 -48 2 -70 8l7 112c14 -4 30 -6 49 -6z" />
    <glyph glyph-name="uni04C9" unicode="&#x4c9;" horiz-adv-x="897" 
d="M738 0h-146v305h-286v-305h-147v711h147v-288h286v288h146v-711zM677 -161c24 46 51 87 51 157v103h120l-1 -96c0 -67 -28 -120 -58 -161c-12 -15 -24 -29 -38 -41z" />
    <glyph glyph-name="uni04CA" unicode="&#x4ca;" horiz-adv-x="758" 
d="M608 0h-141v203h-176v-203h-141v528h141v-212h176v212h141v-528zM548 -161c24 46 51 87 51 157v103h120l-1 -96c0 -67 -28 -120 -58 -161c-12 -15 -24 -29 -38 -41z" />
    <glyph glyph-name="uni04CB" unicode="&#x4cb;" horiz-adv-x="886" 
d="M440 374c49 0 99 4 140 14v323h147v-711h-147v270c-43 -8 -91 -15 -140 -15c-168 0 -277 70 -277 237v219h147v-219c0 -64 21 -102 73 -113c16 -3 35 -5 57 -5zM612 -174h-141v274h141v-274z" />
    <glyph glyph-name="uni04CC" unicode="&#x4cc;" horiz-adv-x="744" 
d="M381 272c27 0 49 4 73 9v247h142v-528h-142v166c-24 -4 -48 -7 -73 -7c-147 0 -242 57 -242 202v167h141v-167c0 -68 32 -89 101 -89zM484 -174h-141v274h141v-274z" />
    <glyph glyph-name="uni04CD" unicode="&#x4cd;" horiz-adv-x="1066" 
d="M351 711l183 -516l181 516h193v-711h-147v194l14 336l-192 -530h-100l-192 529l15 -335v-194h-147v711h192zM843 -161c24 46 51 87 51 157v103h120l-1 -96c0 -67 -28 -120 -58 -161c-12 -15 -24 -29 -38 -41z" />
    <glyph glyph-name="uni04CE" unicode="&#x4ce;" horiz-adv-x="950" 
d="M472 167l138 361h177v-528h-141v324l-127 -324h-94l-124 319v-319h-142v528h176zM726 -161c24 46 51 87 51 157v103h120l-1 -96c0 -67 -28 -120 -58 -161c-12 -15 -24 -29 -38 -41z" />
    <glyph glyph-name="uni04CF" unicode="&#x4cf;" horiz-adv-x="482" 
d="M315 0h-146v711h146v-711z" />
    <glyph glyph-name="uni04D0" unicode="&#x4d0;" 
d="M561 146h-257l-49 -146h-156l265 711h136l266 -711h-156zM344 265h177l-89 266zM435 832c42 0 68 23 68 64h101c0 -73 -45 -115 -100 -134c-21 -7 -44 -11 -69 -11c-78 0 -135 33 -158 87c-8 17 -11 37 -11 58h100c0 -43 25 -64 69 -64z" />
    <glyph glyph-name="uni04D1" unicode="&#x4d1;" horiz-adv-x="727" 
d="M578 128c0 -49 6 -87 21 -120v-8h-143c-7 13 -12 28 -14 47c-29 -33 -72 -57 -133 -57c-82 0 -140 40 -166 95c-10 19 -14 40 -14 63c0 131 110 175 244 175h63v30c0 51 -26 81 -78 81c-44 0 -76 -22 -76 -64h-141c0 53 28 92 61 118c38 31 94 50 164 50
c97 0 164 -37 196 -105c10 -23 16 -50 16 -81v-224zM270 159c0 -37 30 -61 70 -61c45 0 79 22 96 51v91h-58c-61 0 -108 -22 -108 -81zM366 681c42 0 68 23 68 64h101c0 -73 -45 -115 -100 -134c-21 -7 -44 -11 -69 -11c-78 0 -135 33 -158 87c-8 17 -11 37 -11 58h100
c0 -43 25 -64 69 -64z" />
    <glyph glyph-name="uni04D2" unicode="&#x4d2;" 
d="M561 146h-257l-49 -146h-156l265 711h136l266 -711h-156zM344 265h177l-89 266zM314 756c-40 0 -68 23 -68 62c0 38 29 62 68 62c37 0 67 -25 67 -62c0 -38 -29 -62 -67 -62zM552 755c-39 0 -68 25 -68 63s29 62 68 62c37 0 67 -25 67 -62c0 -38 -30 -63 -67 -63z" />
    <glyph glyph-name="uni04D3" unicode="&#x4d3;" horiz-adv-x="727" 
d="M578 128c0 -49 6 -87 21 -120v-8h-143c-7 13 -12 28 -14 47c-29 -33 -72 -57 -133 -57c-82 0 -140 40 -166 95c-10 19 -14 40 -14 63c0 131 110 175 244 175h63v30c0 51 -26 81 -78 81c-44 0 -76 -22 -76 -64h-141c0 53 28 92 61 118c38 31 94 50 164 50
c97 0 164 -37 196 -105c10 -23 16 -50 16 -81v-224zM270 159c0 -37 30 -61 70 -61c45 0 79 22 96 51v91h-58c-61 0 -108 -22 -108 -81zM246 605c-40 0 -68 23 -68 62c0 38 29 62 68 62c37 0 67 -25 67 -62c0 -38 -29 -62 -67 -62zM484 604c-39 0 -68 25 -68 63s29 62 68 62
c37 0 67 -25 67 -62c0 -38 -30 -63 -67 -63z" />
    <glyph glyph-name="uni04D4" unicode="&#x4d4;" horiz-adv-x="1130" 
d="M1007 0h-438l-7 163h-218l-81 -163h-166l384 711h496v-115h-292l7 -174h245v-115h-240l8 -192h302v-115zM405 283h152l-12 279z" />
    <glyph glyph-name="uni04D5" unicode="&#x4d5;" horiz-adv-x="1035" 
d="M901 49c-46 -35 -116 -59 -197 -59c-85 0 -147 28 -188 72c-41 -44 -107 -72 -192 -72c-92 0 -156 34 -183 98c-9 20 -13 43 -13 68c0 120 108 161 242 161h80v28c0 49 -28 79 -77 79c-40 0 -68 -12 -81 -37c-4 -7 -6 -15 -6 -23l-141 9c0 55 28 93 63 118
c39 29 96 47 166 47c69 0 124 -19 160 -54c38 33 89 55 159 54c110 0 178 -56 207 -140c10 -29 15 -62 15 -99v-79h-326c5 -73 49 -116 130 -116c62 0 103 17 144 37zM269 154c0 -43 33 -60 81 -60c42 0 76 18 100 39v92h-79c-46 0 -80 -16 -95 -45c-5 -9 -7 -17 -7 -26z
M776 328c0 58 -26 96 -83 96c-69 0 -96 -49 -103 -110h186v14z" />
    <glyph glyph-name="uni04D6" unicode="&#x4d6;" horiz-adv-x="753" 
d="M587 308h-281v-190h330v-118h-477v711h476v-119h-329v-169h281v-115zM407 834c42 0 68 23 68 64h101c0 -73 -45 -115 -100 -134c-21 -7 -44 -11 -69 -11c-78 0 -135 33 -158 87c-8 17 -11 37 -11 58h100c0 -43 25 -64 69 -64z" />
    <glyph glyph-name="uni04D7" unicode="&#x4d7;" horiz-adv-x="731" 
d="M599 85c-41 -56 -109 -95 -206 -95c-127 0 -209 65 -244 157c-12 31 -18 64 -18 99v19c0 125 56 214 144 253c30 13 65 20 103 20c118 0 189 -62 218 -153c10 -32 15 -68 15 -107v-60h-337c6 -53 36 -89 79 -105c14 -6 31 -9 50 -9c58 0 99 23 127 59zM472 326
c0 61 -34 98 -95 98c-66 0 -94 -51 -101 -110h196v12zM362 681c42 0 68 23 68 64h101c0 -73 -45 -115 -100 -134c-21 -7 -44 -11 -69 -11c-78 0 -135 33 -158 87c-8 17 -11 37 -11 58h100c0 -43 25 -64 69 -64z" />
    <glyph glyph-name="uni04D8" unicode="&#x4d8;" horiz-adv-x="885" 
d="M399 592c-75 0 -134 -14 -189 -30l-24 120c35 18 83 27 134 34c24 3 50 5 79 5c168 0 278 -74 322 -198c14 -41 22 -85 22 -133v-72c0 -154 -77 -257 -185 -304c-37 -16 -77 -24 -120 -24c-156 0 -248 77 -286 196c-13 41 -19 87 -19 138v79h463c-4 122 -70 189 -197 189
zM279 269c0 -100 56 -151 159 -151c101 0 146 75 157 166h-316v-15z" />
    <glyph glyph-name="uni04D9" unicode="&#x4d9;" horiz-adv-x="720" 
d="M146 478c46 37 116 61 200 61c122 0 200 -67 233 -157c11 -32 17 -66 17 -102v-19c0 -123 -54 -211 -138 -250c-30 -14 -63 -21 -99 -20c-148 0 -225 91 -225 238v80h319c-9 66 -48 116 -122 116c-48 0 -85 -8 -117 -23l-30 -15zM273 200c0 -58 27 -96 86 -96
c60 0 85 54 93 108h-179v-12z" />
    <glyph glyph-name="uni04DA" unicode="&#x4da;" horiz-adv-x="885" 
d="M399 592c-75 0 -134 -14 -189 -30l-24 120c35 18 83 27 134 34c24 3 50 5 79 5c168 0 278 -74 322 -198c14 -41 22 -85 22 -133v-72c0 -154 -77 -257 -185 -304c-37 -16 -77 -24 -120 -24c-156 0 -248 77 -286 196c-13 41 -19 87 -19 138v79h463c-4 122 -70 189 -197 189
zM279 269c0 -100 56 -151 159 -151c101 0 146 75 157 166h-316v-15zM296 735c-40 0 -68 23 -68 62c0 38 29 62 68 62c37 0 67 -25 67 -62c0 -38 -29 -62 -67 -62zM534 734c-39 0 -68 25 -68 63s29 62 68 62c37 0 67 -25 67 -62c0 -38 -30 -63 -67 -63z" />
    <glyph glyph-name="uni04DB" unicode="&#x4db;" horiz-adv-x="720" 
d="M146 478c46 37 116 61 200 61c122 0 200 -67 233 -157c11 -32 17 -66 17 -102v-19c0 -123 -54 -211 -138 -250c-30 -14 -63 -21 -99 -20c-148 0 -225 91 -225 238v80h319c-9 66 -48 116 -122 116c-48 0 -85 -8 -117 -23l-30 -15zM273 200c0 -58 27 -96 86 -96
c60 0 85 54 93 108h-179v-12zM243 605c-40 0 -68 23 -68 62c0 38 29 62 68 62c37 0 67 -25 67 -62c0 -38 -29 -62 -67 -62zM481 604c-39 0 -68 25 -68 63s29 62 68 62c37 0 67 -25 67 -62c0 -38 -30 -63 -67 -63z" />
    <glyph glyph-name="uni04DC" unicode="&#x4dc;" horiz-adv-x="1188" 
d="M759 290h-84v-290h-147v290h-86l-155 -290h-183l222 381l-211 330h182l158 -287h73v287h147v-287h71l154 287h182l-207 -329l218 -382h-183zM477 758c-40 0 -68 23 -68 62c0 38 29 62 68 62c37 0 67 -25 67 -62c0 -38 -29 -62 -67 -62zM715 757c-39 0 -68 25 -68 63
s29 62 68 62c37 0 67 -25 67 -62c0 -38 -30 -63 -67 -63z" />
    <glyph glyph-name="uni04DD" unicode="&#x4dd;" horiz-adv-x="1045" 
d="M658 196h-63v-196h-142v196h-63l-105 -196h-170l167 276l-165 252h175l110 -197h51v197h142v-197h52l111 197h174l-163 -248l168 -280h-174zM415 603c-40 0 -68 23 -68 62c0 38 29 62 68 62c37 0 67 -25 67 -62c0 -38 -29 -62 -67 -62zM653 602c-39 0 -68 25 -68 63
s29 62 68 62c37 0 67 -25 67 -62c0 -38 -30 -63 -67 -63z" />
    <glyph glyph-name="uni04DE" unicode="&#x4de;" horiz-adv-x="807" 
d="M521 201c0 76 -43 104 -119 104h-87v115h87c68 0 108 28 108 95c0 62 -53 87 -116 87c-48 0 -83 -18 -100 -48c-6 -11 -9 -22 -9 -35h-146c0 69 34 117 76 148c43 31 106 53 179 53c116 0 206 -36 244 -114c12 -25 19 -55 19 -88c0 -81 -54 -127 -110 -153
c70 -25 121 -75 121 -166c0 -111 -76 -169 -164 -194c-34 -9 -70 -14 -110 -14c-124 0 -222 49 -255 141c-7 19 -10 41 -10 65h147c0 -46 34 -70 70 -82c14 -5 30 -7 48 -7c56 0 100 19 118 56c6 11 9 24 9 37zM278 760c-40 0 -68 23 -68 62c0 38 29 62 68 62
c37 0 67 -25 67 -62c0 -38 -29 -62 -67 -62zM516 759c-39 0 -68 25 -68 63s29 62 68 62c37 0 67 -25 67 -62c0 -38 -30 -63 -67 -63z" />
    <glyph glyph-name="uni04DF" unicode="&#x4df;" horiz-adv-x="704" 
d="M437 160c0 49 -30 64 -80 64h-77v92h77c45 0 71 16 71 57c0 40 -29 58 -71 58c-41 0 -78 -16 -78 -55h-141c0 85 61 132 129 151c26 7 53 11 83 11c95 0 170 -27 203 -88c10 -19 16 -41 16 -66c0 -55 -40 -92 -81 -112c52 -19 90 -55 90 -123c0 -56 -29 -92 -64 -116
c-40 -28 -98 -43 -164 -43c-92 0 -166 33 -201 92c-13 21 -19 45 -19 74h141c0 -42 42 -60 86 -60c45 0 80 20 80 64zM236 605c-40 0 -68 23 -68 62c0 38 29 62 68 62c37 0 67 -25 67 -62c0 -38 -29 -62 -67 -62zM474 604c-39 0 -68 25 -68 63s29 62 68 62
c37 0 67 -25 67 -62c0 -38 -30 -63 -67 -63z" />
    <glyph glyph-name="uni04E0" unicode="&#x4e0;" horiz-adv-x="769" 
d="M499 201c0 90 -46 132 -135 132h-66v92l165 167h-297v119h465l1 -98l-175 -189c114 -20 188 -94 188 -225c0 -110 -70 -170 -156 -195c-32 -9 -67 -14 -105 -14c-108 0 -188 43 -227 114c-15 26 -22 57 -22 93h147c0 -44 27 -69 59 -82c12 -5 27 -8 43 -8
c52 0 90 22 107 57c5 11 8 24 8 37z" />
    <glyph glyph-name="uni04E1" unicode="&#x4e1;" horiz-adv-x="770" 
d="M501 18c0 93 -45 133 -137 133h-66v90l164 173h-299v114h464l1 -93l-175 -194c115 -20 189 -93 189 -225c0 -109 -69 -170 -155 -195c-32 -9 -66 -14 -104 -14c-107 0 -188 43 -226 113c-14 27 -21 58 -21 94h142c0 -59 45 -93 105 -93c65 0 118 33 118 97z" />
    <glyph glyph-name="uni04E2" unicode="&#x4e2;" horiz-adv-x="891" 
d="M586 711h147v-711h-147v472l-285 -472h-146v711h146v-473zM624 782h-357v81h357v-81z" />
    <glyph glyph-name="uni04E3" unicode="&#x4e3;" horiz-adv-x="758" 
d="M469 528h141v-528h-141v326l-177 -326h-142v528h142v-325zM562 627h-357v81h357v-81z" />
    <glyph glyph-name="uni04E4" unicode="&#x4e4;" horiz-adv-x="891" 
d="M586 711h147v-711h-147v472l-285 -472h-146v711h146v-473zM325 758c-40 0 -68 23 -68 62c0 38 29 62 68 62c37 0 67 -25 67 -62c0 -38 -29 -62 -67 -62zM563 757c-39 0 -68 25 -68 63s29 62 68 62c37 0 67 -25 67 -62c0 -38 -30 -63 -67 -63z" />
    <glyph glyph-name="uni04E5" unicode="&#x4e5;" horiz-adv-x="758" 
d="M469 528h141v-528h-141v326l-177 -326h-142v528h142v-325zM263 603c-40 0 -68 23 -68 62c0 38 29 62 68 62c37 0 67 -25 67 -62c0 -38 -29 -62 -67 -62zM501 602c-39 0 -68 25 -68 63s29 62 68 62c37 0 67 -25 67 -62c0 -38 -30 -63 -67 -63z" />
    <glyph glyph-name="uni04E6" unicode="&#x4e6;" horiz-adv-x="881" 
d="M743 339c0 -164 -66 -274 -179 -324c-37 -17 -78 -25 -122 -25c-98 0 -171 40 -219 94c-53 58 -85 146 -85 255v32c0 163 67 276 180 326c37 16 78 24 123 24c97 0 169 -40 218 -94c52 -59 84 -146 84 -256v-32zM442 110c114 0 153 104 153 229v33
c0 126 -40 228 -154 228c-115 0 -155 -102 -155 -228v-33c0 -100 25 -180 90 -214c19 -10 41 -15 66 -15zM321 756c-40 0 -68 23 -68 62c0 38 29 62 68 62c37 0 67 -25 67 -62c0 -38 -29 -62 -67 -62zM559 755c-39 0 -68 25 -68 63s29 62 68 62c37 0 67 -25 67 -62
c0 -38 -30 -63 -67 -63z" />
    <glyph glyph-name="uni04E7" unicode="&#x4e7;" horiz-adv-x="756" 
d="M128 269c0 125 55 210 143 249c31 13 67 20 107 20c125 0 202 -68 234 -162c11 -33 17 -68 17 -107v-10c0 -125 -56 -210 -144 -248c-31 -14 -66 -21 -106 -21c-126 0 -203 68 -235 162c-11 33 -16 68 -16 107v10zM488 269c0 83 -28 155 -110 155s-109 -73 -109 -155v-10
c0 -84 26 -155 110 -155c82 0 109 72 109 155v10zM258 605c-40 0 -68 23 -68 62c0 38 29 62 68 62c37 0 67 -25 67 -62c0 -38 -29 -62 -67 -62zM496 604c-39 0 -68 25 -68 63s29 62 68 62c37 0 67 -25 67 -62c0 -38 -30 -63 -67 -63z" />
    <glyph glyph-name="uni04E8" unicode="&#x4e8;" horiz-adv-x="878" 
d="M745 339c0 -163 -66 -275 -179 -324c-37 -17 -78 -25 -122 -25c-98 0 -171 40 -219 94c-53 58 -85 146 -85 255v32c0 163 66 276 180 326c37 16 78 24 123 24c97 0 169 -40 218 -94c52 -59 84 -146 84 -256v-32zM289 312c5 -112 47 -202 155 -202c106 0 146 91 152 202
h-307zM596 402c-6 110 -47 198 -153 198c-107 0 -148 -88 -154 -198h307z" />
    <glyph glyph-name="uni04E9" unicode="&#x4e9;" horiz-adv-x="755" 
d="M128 269c0 125 54 210 143 249c31 13 66 20 106 20c125 0 202 -68 234 -162c11 -33 17 -68 17 -107v-10c0 -125 -56 -210 -144 -248c-31 -14 -66 -21 -106 -21c-125 0 -202 68 -234 162c-11 33 -16 68 -16 107v10zM485 307c-8 64 -38 117 -108 117
c-71 0 -99 -54 -106 -117h214zM271 218c7 -63 37 -114 107 -114c69 0 98 52 106 114h-213z" />
    <glyph glyph-name="uni04EA" unicode="&#x4ea;" horiz-adv-x="878" 
d="M745 339c0 -163 -66 -275 -179 -324c-37 -17 -78 -25 -122 -25c-98 0 -171 40 -219 94c-53 58 -85 146 -85 255v32c0 163 66 276 180 326c37 16 78 24 123 24c97 0 169 -40 218 -94c52 -59 84 -146 84 -256v-32zM289 312c5 -112 47 -202 155 -202c106 0 146 91 152 202
h-307zM596 402c-6 110 -47 198 -153 198c-107 0 -148 -88 -154 -198h307zM330 757c-40 0 -68 23 -68 62c0 38 29 62 68 62c37 0 67 -25 67 -62c0 -38 -29 -62 -67 -62zM568 756c-39 0 -68 25 -68 63s29 62 68 62c37 0 67 -25 67 -62c0 -38 -30 -63 -67 -63z" />
    <glyph glyph-name="uni04EB" unicode="&#x4eb;" horiz-adv-x="755" 
d="M128 269c0 125 54 210 143 249c31 13 66 20 106 20c125 0 202 -68 234 -162c11 -33 17 -68 17 -107v-10c0 -125 -56 -210 -144 -248c-31 -14 -66 -21 -106 -21c-125 0 -202 68 -234 162c-11 33 -16 68 -16 107v10zM485 307c-8 64 -38 117 -108 117
c-71 0 -99 -54 -106 -117h214zM271 218c7 -63 37 -114 107 -114c69 0 98 52 106 114h-213zM253 609c-40 0 -68 23 -68 62c0 38 29 62 68 62c37 0 67 -25 67 -62c0 -38 -29 -62 -67 -62zM491 608c-39 0 -68 25 -68 63s29 62 68 62c37 0 67 -25 67 -62c0 -38 -30 -63 -67 -63z
" />
    </font>
</defs>
</svg>
